%TF.GenerationSoftware,KiCad,Pcbnew,(5.1.9)-1*%
%TF.CreationDate,2021-05-16T11:37:59+01:00*%
%TF.ProjectId,Controller,436f6e74-726f-46c6-9c65-722e6b696361,rev?*%
%TF.SameCoordinates,Original*%
%TF.FileFunction,Soldermask,Bot*%
%TF.FilePolarity,Negative*%
%FSLAX46Y46*%
G04 Gerber Fmt 4.6, Leading zero omitted, Abs format (unit mm)*
G04 Created by KiCad (PCBNEW (5.1.9)-1) date 2021-05-16 11:37:59*
%MOMM*%
%LPD*%
G01*
G04 APERTURE LIST*
%ADD10O,1.700000X1.700000*%
%ADD11R,1.700000X1.700000*%
%ADD12C,1.448000*%
%ADD13C,1.524000*%
%ADD14R,1.524000X1.524000*%
%ADD15C,2.780000*%
%ADD16R,2.780000X2.780000*%
%ADD17C,4.400000*%
G04 APERTURE END LIST*
D10*
%TO.C,J5*%
X175260000Y-116840000D03*
X180340000Y-116840000D03*
D11*
X182880000Y-116840000D03*
%TD*%
D12*
%TO.C,H6*%
X185928000Y-145288000D03*
%TD*%
%TO.C,H5*%
X144526000Y-79756000D03*
%TD*%
D13*
%TO.C,U1*%
X170487065Y-100330000D03*
X170487065Y-102870000D03*
X170487065Y-105410000D03*
X170487065Y-107950000D03*
X170487065Y-110490000D03*
X170487065Y-113030000D03*
X170487065Y-115570000D03*
X170487065Y-118110000D03*
X170487065Y-120650000D03*
X170487065Y-123190000D03*
X170487065Y-125730000D03*
X170487065Y-128270000D03*
X170487065Y-130810000D03*
X170487065Y-133350000D03*
X170487065Y-135890000D03*
X145087065Y-135890000D03*
X145087065Y-133350000D03*
X145087065Y-130810000D03*
X145087065Y-128270000D03*
X145087065Y-125730000D03*
X145087065Y-123190000D03*
X145087065Y-120650000D03*
X145087065Y-118110000D03*
X145087065Y-115570000D03*
X145087065Y-113030000D03*
X145087065Y-110490000D03*
X145087065Y-107950000D03*
X145087065Y-105410000D03*
X145087065Y-102870000D03*
D14*
X145087065Y-100330000D03*
%TD*%
D10*
%TO.C,J10*%
X175260000Y-85090000D03*
X180340000Y-85090000D03*
D11*
X182880000Y-85090000D03*
%TD*%
D10*
%TO.C,J9*%
X175260000Y-91440000D03*
X180340000Y-91440000D03*
D11*
X182880000Y-91440000D03*
%TD*%
D15*
%TO.C,J11*%
X165100000Y-86360000D03*
X160020000Y-86360000D03*
X154940000Y-86360000D03*
D16*
X149860000Y-86360000D03*
%TD*%
D10*
%TO.C,J6*%
X175260000Y-110490000D03*
X180340000Y-110490000D03*
D11*
X182880000Y-110490000D03*
%TD*%
D17*
%TO.C,H1*%
X146075400Y-96291400D03*
%TD*%
D10*
%TO.C,J4*%
X175260000Y-123190000D03*
X180340000Y-123190000D03*
D11*
X182880000Y-123190000D03*
%TD*%
D10*
%TO.C,J3*%
X175260000Y-129540000D03*
X180340000Y-129540000D03*
D11*
X182880000Y-129540000D03*
%TD*%
D17*
%TO.C,H2*%
X169468800Y-96291400D03*
%TD*%
D10*
%TO.C,J8*%
X175260000Y-97790000D03*
X180340000Y-97790000D03*
D11*
X182880000Y-97790000D03*
%TD*%
D10*
%TO.C,J7*%
X175260000Y-104140000D03*
X180340000Y-104140000D03*
D11*
X182880000Y-104140000D03*
%TD*%
D17*
%TO.C,H3*%
X146075400Y-143764000D03*
%TD*%
D10*
%TO.C,J2*%
X175260000Y-135890000D03*
X180340000Y-135890000D03*
D11*
X182880000Y-135890000D03*
%TD*%
D10*
%TO.C,J1*%
X175260000Y-142240000D03*
X180340000Y-142240000D03*
D11*
X182880000Y-142240000D03*
%TD*%
D17*
%TO.C,H4*%
X169494200Y-143789400D03*
%TD*%
M02*
