M48
; DRILL file {KiCad (5.1.9)-1} date 05/16/21 11:37:57
; FORMAT={-:-/ absolute / inch / decimal}
; #@! TF.CreationDate,2021-05-16T11:37:57+01:00
; #@! TF.GenerationSoftware,Kicad,Pcbnew,(5.1.9)-1
FMAT,2
INCH
T1C0.0157
T2C0.0300
T3C0.0354
T4C0.0394
T5C0.0701
T6C0.0866
T7C0.0454
%
G90
G05
T1
X6.03Y-5.35
X6.04Y-4.78
X6.45Y-4.475
X6.45Y-5.085
T2
X5.7121Y-3.95
T3
X5.7121Y-4.05
X5.7121Y-4.15
X5.7121Y-4.25
X5.7121Y-4.35
X5.7121Y-4.45
X5.7121Y-4.55
X5.7121Y-4.65
X5.7121Y-4.75
X5.7121Y-4.85
X5.7121Y-4.95
X5.7121Y-5.05
X5.7121Y-5.15
X5.7121Y-5.25
X5.7121Y-5.35
X6.7121Y-3.95
X6.7121Y-4.05
X6.7121Y-4.15
X6.7121Y-4.25
X6.7121Y-4.35
X6.7121Y-4.45
X6.7121Y-4.55
X6.7121Y-4.65
X6.7121Y-4.75
X6.7121Y-4.85
X6.7121Y-4.95
X6.7121Y-5.05
X6.7121Y-5.15
X6.7121Y-5.25
X6.7121Y-5.35
T4
X6.9Y-3.35
X6.9Y-3.6
X6.9Y-3.85
X6.9Y-4.1
X6.9Y-4.35
X6.9Y-4.6
X6.9Y-4.85
X6.9Y-5.1
X6.9Y-5.35
X6.9Y-5.6
X7.1Y-3.35
X7.1Y-3.6
X7.1Y-3.85
X7.1Y-4.1
X7.1Y-4.35
X7.1Y-4.6
X7.1Y-4.85
X7.1Y-5.1
X7.1Y-5.35
X7.1Y-5.6
X7.2Y-3.35
X7.2Y-3.6
X7.2Y-3.85
X7.2Y-4.1
X7.2Y-4.35
X7.2Y-4.6
X7.2Y-4.85
X7.2Y-5.1
X7.2Y-5.35
X7.2Y-5.6
T5
X5.9Y-3.4
X6.1Y-3.4
X6.3Y-3.4
X6.5Y-3.4
T6
X5.751Y-3.791
X5.751Y-5.66
X6.672Y-3.791
X6.673Y-5.661
T7
X5.69Y-3.14
X7.32Y-5.72
T0
M30
