%TF.GenerationSoftware,KiCad,Pcbnew,(5.1.9)-1*%
%TF.CreationDate,2021-03-22T14:40:55+00:00*%
%TF.ProjectId,Controller,436f6e74-726f-46c6-9c65-722e6b696361,rev?*%
%TF.SameCoordinates,Original*%
%TF.FileFunction,Copper,L2,Bot*%
%TF.FilePolarity,Positive*%
%FSLAX46Y46*%
G04 Gerber Fmt 4.6, Leading zero omitted, Abs format (unit mm)*
G04 Created by KiCad (PCBNEW (5.1.9)-1) date 2021-03-22 14:40:55*
%MOMM*%
%LPD*%
G01*
G04 APERTURE LIST*
%TA.AperFunction,ComponentPad*%
%ADD10C,4.400000*%
%TD*%
%TA.AperFunction,ComponentPad*%
%ADD11O,1.700000X1.700000*%
%TD*%
%TA.AperFunction,ComponentPad*%
%ADD12R,1.700000X1.700000*%
%TD*%
%TA.AperFunction,ComponentPad*%
%ADD13C,2.780000*%
%TD*%
%TA.AperFunction,ComponentPad*%
%ADD14R,2.780000X2.780000*%
%TD*%
%TA.AperFunction,ComponentPad*%
%ADD15C,1.524000*%
%TD*%
%TA.AperFunction,ComponentPad*%
%ADD16R,1.524000X1.524000*%
%TD*%
%TA.AperFunction,ViaPad*%
%ADD17C,0.800000*%
%TD*%
%TA.AperFunction,Conductor*%
%ADD18C,0.254000*%
%TD*%
%TA.AperFunction,Conductor*%
%ADD19C,0.100000*%
%TD*%
G04 APERTURE END LIST*
D10*
%TO.P,H4,1*%
%TO.N,N/C*%
X173990000Y-142240000D03*
%TD*%
%TO.P,H3,1*%
%TO.N,N/C*%
X148590000Y-142240000D03*
%TD*%
%TO.P,H2,1*%
%TO.N,N/C*%
X173990000Y-82550000D03*
%TD*%
%TO.P,H1,1*%
%TO.N,N/C*%
X148590000Y-82550000D03*
%TD*%
D11*
%TO.P,J8,3*%
%TO.N,GND*%
X182880000Y-69850000D03*
%TO.P,J8,2*%
%TO.N,/B1*%
X187960000Y-69850000D03*
D12*
%TO.P,J8,1*%
%TO.N,+5V*%
X190500000Y-69850000D03*
%TD*%
D11*
%TO.P,J7,3*%
%TO.N,GND*%
X182880000Y-80010000D03*
%TO.P,J7,2*%
%TO.N,/B2*%
X187960000Y-80010000D03*
D12*
%TO.P,J7,1*%
%TO.N,+5V*%
X190500000Y-80010000D03*
%TD*%
D11*
%TO.P,J6,3*%
%TO.N,GND*%
X182880000Y-91440000D03*
%TO.P,J6,2*%
%TO.N,/B3*%
X187960000Y-91440000D03*
D12*
%TO.P,J6,1*%
%TO.N,+5V*%
X190500000Y-91440000D03*
%TD*%
D11*
%TO.P,J5,3*%
%TO.N,GND*%
X182880000Y-101600000D03*
%TO.P,J5,2*%
%TO.N,/B4*%
X187960000Y-101600000D03*
D12*
%TO.P,J5,1*%
%TO.N,+5V*%
X190500000Y-101600000D03*
%TD*%
D11*
%TO.P,J4,3*%
%TO.N,GND*%
X182880000Y-111760000D03*
%TO.P,J4,2*%
%TO.N,/B5*%
X187960000Y-111760000D03*
D12*
%TO.P,J4,1*%
%TO.N,+5V*%
X190500000Y-111760000D03*
%TD*%
D11*
%TO.P,J3,3*%
%TO.N,GND*%
X182880000Y-121920000D03*
%TO.P,J3,2*%
%TO.N,/B6*%
X187960000Y-121920000D03*
D12*
%TO.P,J3,1*%
%TO.N,+5V*%
X190500000Y-121920000D03*
%TD*%
D11*
%TO.P,J2,3*%
%TO.N,GND*%
X182880000Y-132080000D03*
%TO.P,J2,2*%
%TO.N,/B7*%
X187960000Y-132080000D03*
D12*
%TO.P,J2,1*%
%TO.N,+5V*%
X190500000Y-132080000D03*
%TD*%
D11*
%TO.P,J1,3*%
%TO.N,GND*%
X182880000Y-142240000D03*
%TO.P,J1,2*%
%TO.N,/B8*%
X187960000Y-142240000D03*
D12*
%TO.P,J1,1*%
%TO.N,+5V*%
X190500000Y-142240000D03*
%TD*%
D13*
%TO.P,J9,4*%
%TO.N,+5V*%
X168910000Y-68580000D03*
%TO.P,J9,3*%
%TO.N,GND*%
X163830000Y-68580000D03*
%TO.P,J9,2*%
X158750000Y-68580000D03*
D14*
%TO.P,J9,1*%
%TO.N,+12V*%
X153670000Y-68580000D03*
%TD*%
D15*
%TO.P,U1,30*%
%TO.N,Net-(U1-Pad30)*%
X173990000Y-92710000D03*
%TO.P,U1,29*%
%TO.N,Net-(U1-Pad29)*%
X173990000Y-95250000D03*
%TO.P,U1,28*%
%TO.N,Net-(U1-Pad28)*%
X173990000Y-97790000D03*
%TO.P,U1,27*%
%TO.N,Net-(U1-Pad27)*%
X173990000Y-100330000D03*
%TO.P,U1,26*%
%TO.N,Net-(U1-Pad26)*%
X173990000Y-102870000D03*
%TO.P,U1,25*%
%TO.N,Net-(U1-Pad25)*%
X173990000Y-105410000D03*
%TO.P,U1,24*%
%TO.N,Net-(U1-Pad24)*%
X173990000Y-107950000D03*
%TO.P,U1,23*%
%TO.N,Net-(U1-Pad23)*%
X173990000Y-110490000D03*
%TO.P,U1,22*%
%TO.N,Net-(U1-Pad22)*%
X173990000Y-113030000D03*
%TO.P,U1,21*%
%TO.N,Net-(U1-Pad21)*%
X173990000Y-115570000D03*
%TO.P,U1,20*%
%TO.N,Net-(U1-Pad20)*%
X173990000Y-118110000D03*
%TO.P,U1,19*%
%TO.N,Net-(U1-Pad19)*%
X173990000Y-120650000D03*
%TO.P,U1,18*%
%TO.N,Net-(U1-Pad18)*%
X173990000Y-123190000D03*
%TO.P,U1,17*%
%TO.N,GND*%
X173990000Y-125730000D03*
%TO.P,U1,16*%
%TO.N,Net-(U1-Pad16)*%
X173990000Y-128270000D03*
%TO.P,U1,15*%
%TO.N,+12V*%
X148590000Y-128270000D03*
%TO.P,U1,14*%
%TO.N,GND*%
X148590000Y-125730000D03*
%TO.P,U1,13*%
%TO.N,/A8*%
X148590000Y-123190000D03*
%TO.P,U1,12*%
%TO.N,/A7*%
X148590000Y-120650000D03*
%TO.P,U1,11*%
%TO.N,/A6*%
X148590000Y-118110000D03*
%TO.P,U1,10*%
%TO.N,/A5*%
X148590000Y-115570000D03*
%TO.P,U1,9*%
%TO.N,/A4*%
X148590000Y-113030000D03*
%TO.P,U1,8*%
%TO.N,/A3*%
X148590000Y-110490000D03*
%TO.P,U1,7*%
%TO.N,/A2*%
X148590000Y-107950000D03*
%TO.P,U1,6*%
%TO.N,/A1*%
X148590000Y-105410000D03*
%TO.P,U1,5*%
%TO.N,Net-(U1-Pad5)*%
X148590000Y-102870000D03*
%TO.P,U1,4*%
%TO.N,Net-(U1-Pad4)*%
X148590000Y-100330000D03*
%TO.P,U1,3*%
%TO.N,Net-(U1-Pad3)*%
X148590000Y-97790000D03*
%TO.P,U1,2*%
%TO.N,Net-(U1-Pad2)*%
X148590000Y-95250000D03*
D16*
%TO.P,U1,1*%
%TO.N,Net-(U1-Pad1)*%
X148590000Y-92710000D03*
%TD*%
D17*
%TO.N,GND*%
X159010000Y-87370000D03*
X167943191Y-79614699D03*
%TD*%
D18*
%TO.N,GND*%
X192913000Y-144653000D02*
X175481555Y-144653000D01*
X175797207Y-144442088D01*
X176192088Y-144047207D01*
X176502344Y-143582876D01*
X176716052Y-143066939D01*
X176809550Y-142596891D01*
X181438519Y-142596891D01*
X181535843Y-142871252D01*
X181684822Y-143121355D01*
X181879731Y-143337588D01*
X182113080Y-143511641D01*
X182375901Y-143636825D01*
X182523110Y-143681476D01*
X182753000Y-143560155D01*
X182753000Y-142367000D01*
X183007000Y-142367000D01*
X183007000Y-143560155D01*
X183236890Y-143681476D01*
X183384099Y-143636825D01*
X183646920Y-143511641D01*
X183880269Y-143337588D01*
X184075178Y-143121355D01*
X184224157Y-142871252D01*
X184321481Y-142596891D01*
X184200814Y-142367000D01*
X183007000Y-142367000D01*
X182753000Y-142367000D01*
X181559186Y-142367000D01*
X181438519Y-142596891D01*
X176809550Y-142596891D01*
X176825000Y-142519223D01*
X176825000Y-141960777D01*
X176809551Y-141883109D01*
X181438519Y-141883109D01*
X181559186Y-142113000D01*
X182753000Y-142113000D01*
X182753000Y-140919845D01*
X183007000Y-140919845D01*
X183007000Y-142113000D01*
X184200814Y-142113000D01*
X184210923Y-142093740D01*
X186475000Y-142093740D01*
X186475000Y-142386260D01*
X186532068Y-142673158D01*
X186644010Y-142943411D01*
X186806525Y-143186632D01*
X187013368Y-143393475D01*
X187256589Y-143555990D01*
X187526842Y-143667932D01*
X187813740Y-143725000D01*
X188106260Y-143725000D01*
X188393158Y-143667932D01*
X188663411Y-143555990D01*
X188906632Y-143393475D01*
X189038487Y-143261620D01*
X189060498Y-143334180D01*
X189119463Y-143444494D01*
X189198815Y-143541185D01*
X189295506Y-143620537D01*
X189405820Y-143679502D01*
X189525518Y-143715812D01*
X189650000Y-143728072D01*
X191350000Y-143728072D01*
X191474482Y-143715812D01*
X191594180Y-143679502D01*
X191704494Y-143620537D01*
X191801185Y-143541185D01*
X191880537Y-143444494D01*
X191939502Y-143334180D01*
X191975812Y-143214482D01*
X191988072Y-143090000D01*
X191988072Y-141390000D01*
X191975812Y-141265518D01*
X191939502Y-141145820D01*
X191880537Y-141035506D01*
X191801185Y-140938815D01*
X191704494Y-140859463D01*
X191594180Y-140800498D01*
X191474482Y-140764188D01*
X191350000Y-140751928D01*
X189650000Y-140751928D01*
X189525518Y-140764188D01*
X189405820Y-140800498D01*
X189295506Y-140859463D01*
X189198815Y-140938815D01*
X189119463Y-141035506D01*
X189060498Y-141145820D01*
X189038487Y-141218380D01*
X188906632Y-141086525D01*
X188663411Y-140924010D01*
X188393158Y-140812068D01*
X188106260Y-140755000D01*
X187813740Y-140755000D01*
X187526842Y-140812068D01*
X187256589Y-140924010D01*
X187013368Y-141086525D01*
X186806525Y-141293368D01*
X186644010Y-141536589D01*
X186532068Y-141806842D01*
X186475000Y-142093740D01*
X184210923Y-142093740D01*
X184321481Y-141883109D01*
X184224157Y-141608748D01*
X184075178Y-141358645D01*
X183880269Y-141142412D01*
X183646920Y-140968359D01*
X183384099Y-140843175D01*
X183236890Y-140798524D01*
X183007000Y-140919845D01*
X182753000Y-140919845D01*
X182523110Y-140798524D01*
X182375901Y-140843175D01*
X182113080Y-140968359D01*
X181879731Y-141142412D01*
X181684822Y-141358645D01*
X181535843Y-141608748D01*
X181438519Y-141883109D01*
X176809551Y-141883109D01*
X176716052Y-141413061D01*
X176502344Y-140897124D01*
X176192088Y-140432793D01*
X175797207Y-140037912D01*
X175332876Y-139727656D01*
X174816939Y-139513948D01*
X174269223Y-139405000D01*
X173710777Y-139405000D01*
X173163061Y-139513948D01*
X172647124Y-139727656D01*
X172182793Y-140037912D01*
X171787912Y-140432793D01*
X171477656Y-140897124D01*
X171263948Y-141413061D01*
X171155000Y-141960777D01*
X171155000Y-142519223D01*
X171263948Y-143066939D01*
X171477656Y-143582876D01*
X171787912Y-144047207D01*
X172182793Y-144442088D01*
X172498445Y-144653000D01*
X150081555Y-144653000D01*
X150397207Y-144442088D01*
X150792088Y-144047207D01*
X151102344Y-143582876D01*
X151316052Y-143066939D01*
X151425000Y-142519223D01*
X151425000Y-141960777D01*
X151316052Y-141413061D01*
X151102344Y-140897124D01*
X150792088Y-140432793D01*
X150397207Y-140037912D01*
X149932876Y-139727656D01*
X149416939Y-139513948D01*
X148869223Y-139405000D01*
X148310777Y-139405000D01*
X147763061Y-139513948D01*
X147247124Y-139727656D01*
X146782793Y-140037912D01*
X146387912Y-140432793D01*
X146177000Y-140748445D01*
X146177000Y-132436891D01*
X181438519Y-132436891D01*
X181535843Y-132711252D01*
X181684822Y-132961355D01*
X181879731Y-133177588D01*
X182113080Y-133351641D01*
X182375901Y-133476825D01*
X182523110Y-133521476D01*
X182753000Y-133400155D01*
X182753000Y-132207000D01*
X183007000Y-132207000D01*
X183007000Y-133400155D01*
X183236890Y-133521476D01*
X183384099Y-133476825D01*
X183646920Y-133351641D01*
X183880269Y-133177588D01*
X184075178Y-132961355D01*
X184224157Y-132711252D01*
X184321481Y-132436891D01*
X184200814Y-132207000D01*
X183007000Y-132207000D01*
X182753000Y-132207000D01*
X181559186Y-132207000D01*
X181438519Y-132436891D01*
X146177000Y-132436891D01*
X146177000Y-131723109D01*
X181438519Y-131723109D01*
X181559186Y-131953000D01*
X182753000Y-131953000D01*
X182753000Y-130759845D01*
X183007000Y-130759845D01*
X183007000Y-131953000D01*
X184200814Y-131953000D01*
X184210923Y-131933740D01*
X186475000Y-131933740D01*
X186475000Y-132226260D01*
X186532068Y-132513158D01*
X186644010Y-132783411D01*
X186806525Y-133026632D01*
X187013368Y-133233475D01*
X187256589Y-133395990D01*
X187526842Y-133507932D01*
X187813740Y-133565000D01*
X188106260Y-133565000D01*
X188393158Y-133507932D01*
X188663411Y-133395990D01*
X188906632Y-133233475D01*
X189038487Y-133101620D01*
X189060498Y-133174180D01*
X189119463Y-133284494D01*
X189198815Y-133381185D01*
X189295506Y-133460537D01*
X189405820Y-133519502D01*
X189525518Y-133555812D01*
X189650000Y-133568072D01*
X191350000Y-133568072D01*
X191474482Y-133555812D01*
X191594180Y-133519502D01*
X191704494Y-133460537D01*
X191801185Y-133381185D01*
X191880537Y-133284494D01*
X191939502Y-133174180D01*
X191975812Y-133054482D01*
X191988072Y-132930000D01*
X191988072Y-131230000D01*
X191975812Y-131105518D01*
X191939502Y-130985820D01*
X191880537Y-130875506D01*
X191801185Y-130778815D01*
X191704494Y-130699463D01*
X191594180Y-130640498D01*
X191474482Y-130604188D01*
X191350000Y-130591928D01*
X189650000Y-130591928D01*
X189525518Y-130604188D01*
X189405820Y-130640498D01*
X189295506Y-130699463D01*
X189198815Y-130778815D01*
X189119463Y-130875506D01*
X189060498Y-130985820D01*
X189038487Y-131058380D01*
X188906632Y-130926525D01*
X188663411Y-130764010D01*
X188393158Y-130652068D01*
X188106260Y-130595000D01*
X187813740Y-130595000D01*
X187526842Y-130652068D01*
X187256589Y-130764010D01*
X187013368Y-130926525D01*
X186806525Y-131133368D01*
X186644010Y-131376589D01*
X186532068Y-131646842D01*
X186475000Y-131933740D01*
X184210923Y-131933740D01*
X184321481Y-131723109D01*
X184224157Y-131448748D01*
X184075178Y-131198645D01*
X183880269Y-130982412D01*
X183646920Y-130808359D01*
X183384099Y-130683175D01*
X183236890Y-130638524D01*
X183007000Y-130759845D01*
X182753000Y-130759845D01*
X182523110Y-130638524D01*
X182375901Y-130683175D01*
X182113080Y-130808359D01*
X181879731Y-130982412D01*
X181684822Y-131198645D01*
X181535843Y-131448748D01*
X181438519Y-131723109D01*
X146177000Y-131723109D01*
X146177000Y-128132408D01*
X147193000Y-128132408D01*
X147193000Y-128407592D01*
X147246686Y-128677490D01*
X147351995Y-128931727D01*
X147504880Y-129160535D01*
X147699465Y-129355120D01*
X147928273Y-129508005D01*
X148182510Y-129613314D01*
X148452408Y-129667000D01*
X148727592Y-129667000D01*
X148997490Y-129613314D01*
X149251727Y-129508005D01*
X149480535Y-129355120D01*
X149675120Y-129160535D01*
X149828005Y-128931727D01*
X149933314Y-128677490D01*
X149987000Y-128407592D01*
X149987000Y-128132408D01*
X172593000Y-128132408D01*
X172593000Y-128407592D01*
X172646686Y-128677490D01*
X172751995Y-128931727D01*
X172904880Y-129160535D01*
X173099465Y-129355120D01*
X173328273Y-129508005D01*
X173582510Y-129613314D01*
X173852408Y-129667000D01*
X174127592Y-129667000D01*
X174397490Y-129613314D01*
X174651727Y-129508005D01*
X174880535Y-129355120D01*
X175075120Y-129160535D01*
X175228005Y-128931727D01*
X175333314Y-128677490D01*
X175387000Y-128407592D01*
X175387000Y-128132408D01*
X175333314Y-127862510D01*
X175228005Y-127608273D01*
X175075120Y-127379465D01*
X174880535Y-127184880D01*
X174651727Y-127031995D01*
X174580057Y-127002308D01*
X174593023Y-126997636D01*
X174708980Y-126935656D01*
X174775960Y-126695565D01*
X173990000Y-125909605D01*
X173204040Y-126695565D01*
X173271020Y-126935656D01*
X173406760Y-126999485D01*
X173328273Y-127031995D01*
X173099465Y-127184880D01*
X172904880Y-127379465D01*
X172751995Y-127608273D01*
X172646686Y-127862510D01*
X172593000Y-128132408D01*
X149987000Y-128132408D01*
X149933314Y-127862510D01*
X149828005Y-127608273D01*
X149675120Y-127379465D01*
X149480535Y-127184880D01*
X149251727Y-127031995D01*
X149180057Y-127002308D01*
X149193023Y-126997636D01*
X149308980Y-126935656D01*
X149375960Y-126695565D01*
X148590000Y-125909605D01*
X147804040Y-126695565D01*
X147871020Y-126935656D01*
X148006760Y-126999485D01*
X147928273Y-127031995D01*
X147699465Y-127184880D01*
X147504880Y-127379465D01*
X147351995Y-127608273D01*
X147246686Y-127862510D01*
X147193000Y-128132408D01*
X146177000Y-128132408D01*
X146177000Y-125802017D01*
X147188090Y-125802017D01*
X147229078Y-126074133D01*
X147322364Y-126333023D01*
X147384344Y-126448980D01*
X147624435Y-126515960D01*
X148410395Y-125730000D01*
X148769605Y-125730000D01*
X149555565Y-126515960D01*
X149795656Y-126448980D01*
X149912756Y-126199952D01*
X149979023Y-125932865D01*
X149985157Y-125802017D01*
X172588090Y-125802017D01*
X172629078Y-126074133D01*
X172722364Y-126333023D01*
X172784344Y-126448980D01*
X173024435Y-126515960D01*
X173810395Y-125730000D01*
X174169605Y-125730000D01*
X174955565Y-126515960D01*
X175195656Y-126448980D01*
X175312756Y-126199952D01*
X175379023Y-125932865D01*
X175391910Y-125657983D01*
X175350922Y-125385867D01*
X175257636Y-125126977D01*
X175195656Y-125011020D01*
X174955565Y-124944040D01*
X174169605Y-125730000D01*
X173810395Y-125730000D01*
X173024435Y-124944040D01*
X172784344Y-125011020D01*
X172667244Y-125260048D01*
X172600977Y-125527135D01*
X172588090Y-125802017D01*
X149985157Y-125802017D01*
X149991910Y-125657983D01*
X149950922Y-125385867D01*
X149857636Y-125126977D01*
X149795656Y-125011020D01*
X149555565Y-124944040D01*
X148769605Y-125730000D01*
X148410395Y-125730000D01*
X147624435Y-124944040D01*
X147384344Y-125011020D01*
X147267244Y-125260048D01*
X147200977Y-125527135D01*
X147188090Y-125802017D01*
X146177000Y-125802017D01*
X146177000Y-91948000D01*
X147189928Y-91948000D01*
X147189928Y-93472000D01*
X147202188Y-93596482D01*
X147238498Y-93716180D01*
X147297463Y-93826494D01*
X147376815Y-93923185D01*
X147473506Y-94002537D01*
X147583820Y-94061502D01*
X147703518Y-94097812D01*
X147787465Y-94106080D01*
X147699465Y-94164880D01*
X147504880Y-94359465D01*
X147351995Y-94588273D01*
X147246686Y-94842510D01*
X147193000Y-95112408D01*
X147193000Y-95387592D01*
X147246686Y-95657490D01*
X147351995Y-95911727D01*
X147504880Y-96140535D01*
X147699465Y-96335120D01*
X147928273Y-96488005D01*
X148005515Y-96520000D01*
X147928273Y-96551995D01*
X147699465Y-96704880D01*
X147504880Y-96899465D01*
X147351995Y-97128273D01*
X147246686Y-97382510D01*
X147193000Y-97652408D01*
X147193000Y-97927592D01*
X147246686Y-98197490D01*
X147351995Y-98451727D01*
X147504880Y-98680535D01*
X147699465Y-98875120D01*
X147928273Y-99028005D01*
X148005515Y-99060000D01*
X147928273Y-99091995D01*
X147699465Y-99244880D01*
X147504880Y-99439465D01*
X147351995Y-99668273D01*
X147246686Y-99922510D01*
X147193000Y-100192408D01*
X147193000Y-100467592D01*
X147246686Y-100737490D01*
X147351995Y-100991727D01*
X147504880Y-101220535D01*
X147699465Y-101415120D01*
X147928273Y-101568005D01*
X148005515Y-101600000D01*
X147928273Y-101631995D01*
X147699465Y-101784880D01*
X147504880Y-101979465D01*
X147351995Y-102208273D01*
X147246686Y-102462510D01*
X147193000Y-102732408D01*
X147193000Y-103007592D01*
X147246686Y-103277490D01*
X147351995Y-103531727D01*
X147504880Y-103760535D01*
X147699465Y-103955120D01*
X147928273Y-104108005D01*
X148005515Y-104140000D01*
X147928273Y-104171995D01*
X147699465Y-104324880D01*
X147504880Y-104519465D01*
X147351995Y-104748273D01*
X147246686Y-105002510D01*
X147193000Y-105272408D01*
X147193000Y-105547592D01*
X147246686Y-105817490D01*
X147351995Y-106071727D01*
X147504880Y-106300535D01*
X147699465Y-106495120D01*
X147928273Y-106648005D01*
X148005515Y-106680000D01*
X147928273Y-106711995D01*
X147699465Y-106864880D01*
X147504880Y-107059465D01*
X147351995Y-107288273D01*
X147246686Y-107542510D01*
X147193000Y-107812408D01*
X147193000Y-108087592D01*
X147246686Y-108357490D01*
X147351995Y-108611727D01*
X147504880Y-108840535D01*
X147699465Y-109035120D01*
X147928273Y-109188005D01*
X148005515Y-109220000D01*
X147928273Y-109251995D01*
X147699465Y-109404880D01*
X147504880Y-109599465D01*
X147351995Y-109828273D01*
X147246686Y-110082510D01*
X147193000Y-110352408D01*
X147193000Y-110627592D01*
X147246686Y-110897490D01*
X147351995Y-111151727D01*
X147504880Y-111380535D01*
X147699465Y-111575120D01*
X147928273Y-111728005D01*
X148005515Y-111760000D01*
X147928273Y-111791995D01*
X147699465Y-111944880D01*
X147504880Y-112139465D01*
X147351995Y-112368273D01*
X147246686Y-112622510D01*
X147193000Y-112892408D01*
X147193000Y-113167592D01*
X147246686Y-113437490D01*
X147351995Y-113691727D01*
X147504880Y-113920535D01*
X147699465Y-114115120D01*
X147928273Y-114268005D01*
X148005515Y-114300000D01*
X147928273Y-114331995D01*
X147699465Y-114484880D01*
X147504880Y-114679465D01*
X147351995Y-114908273D01*
X147246686Y-115162510D01*
X147193000Y-115432408D01*
X147193000Y-115707592D01*
X147246686Y-115977490D01*
X147351995Y-116231727D01*
X147504880Y-116460535D01*
X147699465Y-116655120D01*
X147928273Y-116808005D01*
X148005515Y-116840000D01*
X147928273Y-116871995D01*
X147699465Y-117024880D01*
X147504880Y-117219465D01*
X147351995Y-117448273D01*
X147246686Y-117702510D01*
X147193000Y-117972408D01*
X147193000Y-118247592D01*
X147246686Y-118517490D01*
X147351995Y-118771727D01*
X147504880Y-119000535D01*
X147699465Y-119195120D01*
X147928273Y-119348005D01*
X148005515Y-119380000D01*
X147928273Y-119411995D01*
X147699465Y-119564880D01*
X147504880Y-119759465D01*
X147351995Y-119988273D01*
X147246686Y-120242510D01*
X147193000Y-120512408D01*
X147193000Y-120787592D01*
X147246686Y-121057490D01*
X147351995Y-121311727D01*
X147504880Y-121540535D01*
X147699465Y-121735120D01*
X147928273Y-121888005D01*
X148005515Y-121920000D01*
X147928273Y-121951995D01*
X147699465Y-122104880D01*
X147504880Y-122299465D01*
X147351995Y-122528273D01*
X147246686Y-122782510D01*
X147193000Y-123052408D01*
X147193000Y-123327592D01*
X147246686Y-123597490D01*
X147351995Y-123851727D01*
X147504880Y-124080535D01*
X147699465Y-124275120D01*
X147928273Y-124428005D01*
X147999943Y-124457692D01*
X147986977Y-124462364D01*
X147871020Y-124524344D01*
X147804040Y-124764435D01*
X148590000Y-125550395D01*
X149375960Y-124764435D01*
X149308980Y-124524344D01*
X149173240Y-124460515D01*
X149251727Y-124428005D01*
X149480535Y-124275120D01*
X149675120Y-124080535D01*
X149828005Y-123851727D01*
X149933314Y-123597490D01*
X149987000Y-123327592D01*
X149987000Y-123052408D01*
X149933314Y-122782510D01*
X149828005Y-122528273D01*
X149675120Y-122299465D01*
X149480535Y-122104880D01*
X149251727Y-121951995D01*
X149174485Y-121920000D01*
X149251727Y-121888005D01*
X149480535Y-121735120D01*
X149675120Y-121540535D01*
X149828005Y-121311727D01*
X149933314Y-121057490D01*
X149987000Y-120787592D01*
X149987000Y-120512408D01*
X149933314Y-120242510D01*
X149828005Y-119988273D01*
X149675120Y-119759465D01*
X149480535Y-119564880D01*
X149251727Y-119411995D01*
X149174485Y-119380000D01*
X149251727Y-119348005D01*
X149480535Y-119195120D01*
X149675120Y-119000535D01*
X149828005Y-118771727D01*
X149933314Y-118517490D01*
X149987000Y-118247592D01*
X149987000Y-117972408D01*
X149933314Y-117702510D01*
X149828005Y-117448273D01*
X149675120Y-117219465D01*
X149480535Y-117024880D01*
X149251727Y-116871995D01*
X149174485Y-116840000D01*
X149251727Y-116808005D01*
X149480535Y-116655120D01*
X149675120Y-116460535D01*
X149828005Y-116231727D01*
X149933314Y-115977490D01*
X149987000Y-115707592D01*
X149987000Y-115432408D01*
X149933314Y-115162510D01*
X149828005Y-114908273D01*
X149675120Y-114679465D01*
X149480535Y-114484880D01*
X149251727Y-114331995D01*
X149174485Y-114300000D01*
X149251727Y-114268005D01*
X149480535Y-114115120D01*
X149675120Y-113920535D01*
X149828005Y-113691727D01*
X149933314Y-113437490D01*
X149987000Y-113167592D01*
X149987000Y-112892408D01*
X149933314Y-112622510D01*
X149828005Y-112368273D01*
X149675120Y-112139465D01*
X149480535Y-111944880D01*
X149251727Y-111791995D01*
X149174485Y-111760000D01*
X149251727Y-111728005D01*
X149480535Y-111575120D01*
X149675120Y-111380535D01*
X149828005Y-111151727D01*
X149933314Y-110897490D01*
X149987000Y-110627592D01*
X149987000Y-110352408D01*
X149933314Y-110082510D01*
X149828005Y-109828273D01*
X149675120Y-109599465D01*
X149480535Y-109404880D01*
X149251727Y-109251995D01*
X149174485Y-109220000D01*
X149251727Y-109188005D01*
X149480535Y-109035120D01*
X149675120Y-108840535D01*
X149828005Y-108611727D01*
X149933314Y-108357490D01*
X149987000Y-108087592D01*
X149987000Y-107812408D01*
X149933314Y-107542510D01*
X149828005Y-107288273D01*
X149675120Y-107059465D01*
X149480535Y-106864880D01*
X149251727Y-106711995D01*
X149174485Y-106680000D01*
X149251727Y-106648005D01*
X149480535Y-106495120D01*
X149675120Y-106300535D01*
X149828005Y-106071727D01*
X149933314Y-105817490D01*
X149987000Y-105547592D01*
X149987000Y-105272408D01*
X149933314Y-105002510D01*
X149828005Y-104748273D01*
X149675120Y-104519465D01*
X149480535Y-104324880D01*
X149251727Y-104171995D01*
X149174485Y-104140000D01*
X149251727Y-104108005D01*
X149480535Y-103955120D01*
X149675120Y-103760535D01*
X149828005Y-103531727D01*
X149933314Y-103277490D01*
X149987000Y-103007592D01*
X149987000Y-102732408D01*
X149933314Y-102462510D01*
X149828005Y-102208273D01*
X149675120Y-101979465D01*
X149480535Y-101784880D01*
X149251727Y-101631995D01*
X149174485Y-101600000D01*
X149251727Y-101568005D01*
X149480535Y-101415120D01*
X149675120Y-101220535D01*
X149828005Y-100991727D01*
X149933314Y-100737490D01*
X149987000Y-100467592D01*
X149987000Y-100192408D01*
X149933314Y-99922510D01*
X149828005Y-99668273D01*
X149675120Y-99439465D01*
X149480535Y-99244880D01*
X149251727Y-99091995D01*
X149174485Y-99060000D01*
X149251727Y-99028005D01*
X149480535Y-98875120D01*
X149675120Y-98680535D01*
X149828005Y-98451727D01*
X149933314Y-98197490D01*
X149987000Y-97927592D01*
X149987000Y-97652408D01*
X149933314Y-97382510D01*
X149828005Y-97128273D01*
X149675120Y-96899465D01*
X149480535Y-96704880D01*
X149251727Y-96551995D01*
X149174485Y-96520000D01*
X149251727Y-96488005D01*
X149480535Y-96335120D01*
X149675120Y-96140535D01*
X149828005Y-95911727D01*
X149933314Y-95657490D01*
X149987000Y-95387592D01*
X149987000Y-95112408D01*
X149933314Y-94842510D01*
X149828005Y-94588273D01*
X149675120Y-94359465D01*
X149480535Y-94164880D01*
X149392535Y-94106080D01*
X149476482Y-94097812D01*
X149596180Y-94061502D01*
X149706494Y-94002537D01*
X149803185Y-93923185D01*
X149882537Y-93826494D01*
X149941502Y-93716180D01*
X149977812Y-93596482D01*
X149990072Y-93472000D01*
X149990072Y-92572408D01*
X172593000Y-92572408D01*
X172593000Y-92847592D01*
X172646686Y-93117490D01*
X172751995Y-93371727D01*
X172904880Y-93600535D01*
X173099465Y-93795120D01*
X173328273Y-93948005D01*
X173405515Y-93980000D01*
X173328273Y-94011995D01*
X173099465Y-94164880D01*
X172904880Y-94359465D01*
X172751995Y-94588273D01*
X172646686Y-94842510D01*
X172593000Y-95112408D01*
X172593000Y-95387592D01*
X172646686Y-95657490D01*
X172751995Y-95911727D01*
X172904880Y-96140535D01*
X173099465Y-96335120D01*
X173328273Y-96488005D01*
X173405515Y-96520000D01*
X173328273Y-96551995D01*
X173099465Y-96704880D01*
X172904880Y-96899465D01*
X172751995Y-97128273D01*
X172646686Y-97382510D01*
X172593000Y-97652408D01*
X172593000Y-97927592D01*
X172646686Y-98197490D01*
X172751995Y-98451727D01*
X172904880Y-98680535D01*
X173099465Y-98875120D01*
X173328273Y-99028005D01*
X173405515Y-99060000D01*
X173328273Y-99091995D01*
X173099465Y-99244880D01*
X172904880Y-99439465D01*
X172751995Y-99668273D01*
X172646686Y-99922510D01*
X172593000Y-100192408D01*
X172593000Y-100467592D01*
X172646686Y-100737490D01*
X172751995Y-100991727D01*
X172904880Y-101220535D01*
X173099465Y-101415120D01*
X173328273Y-101568005D01*
X173405515Y-101600000D01*
X173328273Y-101631995D01*
X173099465Y-101784880D01*
X172904880Y-101979465D01*
X172751995Y-102208273D01*
X172646686Y-102462510D01*
X172593000Y-102732408D01*
X172593000Y-103007592D01*
X172646686Y-103277490D01*
X172751995Y-103531727D01*
X172904880Y-103760535D01*
X173099465Y-103955120D01*
X173328273Y-104108005D01*
X173405515Y-104140000D01*
X173328273Y-104171995D01*
X173099465Y-104324880D01*
X172904880Y-104519465D01*
X172751995Y-104748273D01*
X172646686Y-105002510D01*
X172593000Y-105272408D01*
X172593000Y-105547592D01*
X172646686Y-105817490D01*
X172751995Y-106071727D01*
X172904880Y-106300535D01*
X173099465Y-106495120D01*
X173328273Y-106648005D01*
X173405515Y-106680000D01*
X173328273Y-106711995D01*
X173099465Y-106864880D01*
X172904880Y-107059465D01*
X172751995Y-107288273D01*
X172646686Y-107542510D01*
X172593000Y-107812408D01*
X172593000Y-108087592D01*
X172646686Y-108357490D01*
X172751995Y-108611727D01*
X172904880Y-108840535D01*
X173099465Y-109035120D01*
X173328273Y-109188005D01*
X173405515Y-109220000D01*
X173328273Y-109251995D01*
X173099465Y-109404880D01*
X172904880Y-109599465D01*
X172751995Y-109828273D01*
X172646686Y-110082510D01*
X172593000Y-110352408D01*
X172593000Y-110627592D01*
X172646686Y-110897490D01*
X172751995Y-111151727D01*
X172904880Y-111380535D01*
X173099465Y-111575120D01*
X173328273Y-111728005D01*
X173405515Y-111760000D01*
X173328273Y-111791995D01*
X173099465Y-111944880D01*
X172904880Y-112139465D01*
X172751995Y-112368273D01*
X172646686Y-112622510D01*
X172593000Y-112892408D01*
X172593000Y-113167592D01*
X172646686Y-113437490D01*
X172751995Y-113691727D01*
X172904880Y-113920535D01*
X173099465Y-114115120D01*
X173328273Y-114268005D01*
X173405515Y-114300000D01*
X173328273Y-114331995D01*
X173099465Y-114484880D01*
X172904880Y-114679465D01*
X172751995Y-114908273D01*
X172646686Y-115162510D01*
X172593000Y-115432408D01*
X172593000Y-115707592D01*
X172646686Y-115977490D01*
X172751995Y-116231727D01*
X172904880Y-116460535D01*
X173099465Y-116655120D01*
X173328273Y-116808005D01*
X173405515Y-116840000D01*
X173328273Y-116871995D01*
X173099465Y-117024880D01*
X172904880Y-117219465D01*
X172751995Y-117448273D01*
X172646686Y-117702510D01*
X172593000Y-117972408D01*
X172593000Y-118247592D01*
X172646686Y-118517490D01*
X172751995Y-118771727D01*
X172904880Y-119000535D01*
X173099465Y-119195120D01*
X173328273Y-119348005D01*
X173405515Y-119380000D01*
X173328273Y-119411995D01*
X173099465Y-119564880D01*
X172904880Y-119759465D01*
X172751995Y-119988273D01*
X172646686Y-120242510D01*
X172593000Y-120512408D01*
X172593000Y-120787592D01*
X172646686Y-121057490D01*
X172751995Y-121311727D01*
X172904880Y-121540535D01*
X173099465Y-121735120D01*
X173328273Y-121888005D01*
X173405515Y-121920000D01*
X173328273Y-121951995D01*
X173099465Y-122104880D01*
X172904880Y-122299465D01*
X172751995Y-122528273D01*
X172646686Y-122782510D01*
X172593000Y-123052408D01*
X172593000Y-123327592D01*
X172646686Y-123597490D01*
X172751995Y-123851727D01*
X172904880Y-124080535D01*
X173099465Y-124275120D01*
X173328273Y-124428005D01*
X173399943Y-124457692D01*
X173386977Y-124462364D01*
X173271020Y-124524344D01*
X173204040Y-124764435D01*
X173990000Y-125550395D01*
X174775960Y-124764435D01*
X174708980Y-124524344D01*
X174573240Y-124460515D01*
X174651727Y-124428005D01*
X174880535Y-124275120D01*
X175075120Y-124080535D01*
X175228005Y-123851727D01*
X175333314Y-123597490D01*
X175387000Y-123327592D01*
X175387000Y-123052408D01*
X175333314Y-122782510D01*
X175228005Y-122528273D01*
X175075120Y-122299465D01*
X175052546Y-122276891D01*
X181438519Y-122276891D01*
X181535843Y-122551252D01*
X181684822Y-122801355D01*
X181879731Y-123017588D01*
X182113080Y-123191641D01*
X182375901Y-123316825D01*
X182523110Y-123361476D01*
X182753000Y-123240155D01*
X182753000Y-122047000D01*
X183007000Y-122047000D01*
X183007000Y-123240155D01*
X183236890Y-123361476D01*
X183384099Y-123316825D01*
X183646920Y-123191641D01*
X183880269Y-123017588D01*
X184075178Y-122801355D01*
X184224157Y-122551252D01*
X184321481Y-122276891D01*
X184200814Y-122047000D01*
X183007000Y-122047000D01*
X182753000Y-122047000D01*
X181559186Y-122047000D01*
X181438519Y-122276891D01*
X175052546Y-122276891D01*
X174880535Y-122104880D01*
X174651727Y-121951995D01*
X174574485Y-121920000D01*
X174651727Y-121888005D01*
X174880535Y-121735120D01*
X175052546Y-121563109D01*
X181438519Y-121563109D01*
X181559186Y-121793000D01*
X182753000Y-121793000D01*
X182753000Y-120599845D01*
X183007000Y-120599845D01*
X183007000Y-121793000D01*
X184200814Y-121793000D01*
X184210923Y-121773740D01*
X186475000Y-121773740D01*
X186475000Y-122066260D01*
X186532068Y-122353158D01*
X186644010Y-122623411D01*
X186806525Y-122866632D01*
X187013368Y-123073475D01*
X187256589Y-123235990D01*
X187526842Y-123347932D01*
X187813740Y-123405000D01*
X188106260Y-123405000D01*
X188393158Y-123347932D01*
X188663411Y-123235990D01*
X188906632Y-123073475D01*
X189038487Y-122941620D01*
X189060498Y-123014180D01*
X189119463Y-123124494D01*
X189198815Y-123221185D01*
X189295506Y-123300537D01*
X189405820Y-123359502D01*
X189525518Y-123395812D01*
X189650000Y-123408072D01*
X191350000Y-123408072D01*
X191474482Y-123395812D01*
X191594180Y-123359502D01*
X191704494Y-123300537D01*
X191801185Y-123221185D01*
X191880537Y-123124494D01*
X191939502Y-123014180D01*
X191975812Y-122894482D01*
X191988072Y-122770000D01*
X191988072Y-121070000D01*
X191975812Y-120945518D01*
X191939502Y-120825820D01*
X191880537Y-120715506D01*
X191801185Y-120618815D01*
X191704494Y-120539463D01*
X191594180Y-120480498D01*
X191474482Y-120444188D01*
X191350000Y-120431928D01*
X189650000Y-120431928D01*
X189525518Y-120444188D01*
X189405820Y-120480498D01*
X189295506Y-120539463D01*
X189198815Y-120618815D01*
X189119463Y-120715506D01*
X189060498Y-120825820D01*
X189038487Y-120898380D01*
X188906632Y-120766525D01*
X188663411Y-120604010D01*
X188393158Y-120492068D01*
X188106260Y-120435000D01*
X187813740Y-120435000D01*
X187526842Y-120492068D01*
X187256589Y-120604010D01*
X187013368Y-120766525D01*
X186806525Y-120973368D01*
X186644010Y-121216589D01*
X186532068Y-121486842D01*
X186475000Y-121773740D01*
X184210923Y-121773740D01*
X184321481Y-121563109D01*
X184224157Y-121288748D01*
X184075178Y-121038645D01*
X183880269Y-120822412D01*
X183646920Y-120648359D01*
X183384099Y-120523175D01*
X183236890Y-120478524D01*
X183007000Y-120599845D01*
X182753000Y-120599845D01*
X182523110Y-120478524D01*
X182375901Y-120523175D01*
X182113080Y-120648359D01*
X181879731Y-120822412D01*
X181684822Y-121038645D01*
X181535843Y-121288748D01*
X181438519Y-121563109D01*
X175052546Y-121563109D01*
X175075120Y-121540535D01*
X175228005Y-121311727D01*
X175333314Y-121057490D01*
X175387000Y-120787592D01*
X175387000Y-120512408D01*
X175333314Y-120242510D01*
X175228005Y-119988273D01*
X175075120Y-119759465D01*
X174880535Y-119564880D01*
X174651727Y-119411995D01*
X174574485Y-119380000D01*
X174651727Y-119348005D01*
X174880535Y-119195120D01*
X175075120Y-119000535D01*
X175228005Y-118771727D01*
X175333314Y-118517490D01*
X175387000Y-118247592D01*
X175387000Y-117972408D01*
X175333314Y-117702510D01*
X175228005Y-117448273D01*
X175075120Y-117219465D01*
X174880535Y-117024880D01*
X174651727Y-116871995D01*
X174574485Y-116840000D01*
X174651727Y-116808005D01*
X174880535Y-116655120D01*
X175075120Y-116460535D01*
X175228005Y-116231727D01*
X175333314Y-115977490D01*
X175387000Y-115707592D01*
X175387000Y-115432408D01*
X175333314Y-115162510D01*
X175228005Y-114908273D01*
X175075120Y-114679465D01*
X174880535Y-114484880D01*
X174651727Y-114331995D01*
X174574485Y-114300000D01*
X174651727Y-114268005D01*
X174880535Y-114115120D01*
X175075120Y-113920535D01*
X175228005Y-113691727D01*
X175333314Y-113437490D01*
X175387000Y-113167592D01*
X175387000Y-112892408D01*
X175333314Y-112622510D01*
X175228005Y-112368273D01*
X175075120Y-112139465D01*
X175052546Y-112116891D01*
X181438519Y-112116891D01*
X181535843Y-112391252D01*
X181684822Y-112641355D01*
X181879731Y-112857588D01*
X182113080Y-113031641D01*
X182375901Y-113156825D01*
X182523110Y-113201476D01*
X182753000Y-113080155D01*
X182753000Y-111887000D01*
X183007000Y-111887000D01*
X183007000Y-113080155D01*
X183236890Y-113201476D01*
X183384099Y-113156825D01*
X183646920Y-113031641D01*
X183880269Y-112857588D01*
X184075178Y-112641355D01*
X184224157Y-112391252D01*
X184321481Y-112116891D01*
X184200814Y-111887000D01*
X183007000Y-111887000D01*
X182753000Y-111887000D01*
X181559186Y-111887000D01*
X181438519Y-112116891D01*
X175052546Y-112116891D01*
X174880535Y-111944880D01*
X174651727Y-111791995D01*
X174574485Y-111760000D01*
X174651727Y-111728005D01*
X174880535Y-111575120D01*
X175052546Y-111403109D01*
X181438519Y-111403109D01*
X181559186Y-111633000D01*
X182753000Y-111633000D01*
X182753000Y-110439845D01*
X183007000Y-110439845D01*
X183007000Y-111633000D01*
X184200814Y-111633000D01*
X184210923Y-111613740D01*
X186475000Y-111613740D01*
X186475000Y-111906260D01*
X186532068Y-112193158D01*
X186644010Y-112463411D01*
X186806525Y-112706632D01*
X187013368Y-112913475D01*
X187256589Y-113075990D01*
X187526842Y-113187932D01*
X187813740Y-113245000D01*
X188106260Y-113245000D01*
X188393158Y-113187932D01*
X188663411Y-113075990D01*
X188906632Y-112913475D01*
X189038487Y-112781620D01*
X189060498Y-112854180D01*
X189119463Y-112964494D01*
X189198815Y-113061185D01*
X189295506Y-113140537D01*
X189405820Y-113199502D01*
X189525518Y-113235812D01*
X189650000Y-113248072D01*
X191350000Y-113248072D01*
X191474482Y-113235812D01*
X191594180Y-113199502D01*
X191704494Y-113140537D01*
X191801185Y-113061185D01*
X191880537Y-112964494D01*
X191939502Y-112854180D01*
X191975812Y-112734482D01*
X191988072Y-112610000D01*
X191988072Y-110910000D01*
X191975812Y-110785518D01*
X191939502Y-110665820D01*
X191880537Y-110555506D01*
X191801185Y-110458815D01*
X191704494Y-110379463D01*
X191594180Y-110320498D01*
X191474482Y-110284188D01*
X191350000Y-110271928D01*
X189650000Y-110271928D01*
X189525518Y-110284188D01*
X189405820Y-110320498D01*
X189295506Y-110379463D01*
X189198815Y-110458815D01*
X189119463Y-110555506D01*
X189060498Y-110665820D01*
X189038487Y-110738380D01*
X188906632Y-110606525D01*
X188663411Y-110444010D01*
X188393158Y-110332068D01*
X188106260Y-110275000D01*
X187813740Y-110275000D01*
X187526842Y-110332068D01*
X187256589Y-110444010D01*
X187013368Y-110606525D01*
X186806525Y-110813368D01*
X186644010Y-111056589D01*
X186532068Y-111326842D01*
X186475000Y-111613740D01*
X184210923Y-111613740D01*
X184321481Y-111403109D01*
X184224157Y-111128748D01*
X184075178Y-110878645D01*
X183880269Y-110662412D01*
X183646920Y-110488359D01*
X183384099Y-110363175D01*
X183236890Y-110318524D01*
X183007000Y-110439845D01*
X182753000Y-110439845D01*
X182523110Y-110318524D01*
X182375901Y-110363175D01*
X182113080Y-110488359D01*
X181879731Y-110662412D01*
X181684822Y-110878645D01*
X181535843Y-111128748D01*
X181438519Y-111403109D01*
X175052546Y-111403109D01*
X175075120Y-111380535D01*
X175228005Y-111151727D01*
X175333314Y-110897490D01*
X175387000Y-110627592D01*
X175387000Y-110352408D01*
X175333314Y-110082510D01*
X175228005Y-109828273D01*
X175075120Y-109599465D01*
X174880535Y-109404880D01*
X174651727Y-109251995D01*
X174574485Y-109220000D01*
X174651727Y-109188005D01*
X174880535Y-109035120D01*
X175075120Y-108840535D01*
X175228005Y-108611727D01*
X175333314Y-108357490D01*
X175387000Y-108087592D01*
X175387000Y-107812408D01*
X175333314Y-107542510D01*
X175228005Y-107288273D01*
X175075120Y-107059465D01*
X174880535Y-106864880D01*
X174651727Y-106711995D01*
X174574485Y-106680000D01*
X174651727Y-106648005D01*
X174880535Y-106495120D01*
X175075120Y-106300535D01*
X175228005Y-106071727D01*
X175333314Y-105817490D01*
X175387000Y-105547592D01*
X175387000Y-105272408D01*
X175333314Y-105002510D01*
X175228005Y-104748273D01*
X175075120Y-104519465D01*
X174880535Y-104324880D01*
X174651727Y-104171995D01*
X174574485Y-104140000D01*
X174651727Y-104108005D01*
X174880535Y-103955120D01*
X175075120Y-103760535D01*
X175228005Y-103531727D01*
X175333314Y-103277490D01*
X175387000Y-103007592D01*
X175387000Y-102732408D01*
X175333314Y-102462510D01*
X175228005Y-102208273D01*
X175075120Y-101979465D01*
X175052546Y-101956891D01*
X181438519Y-101956891D01*
X181535843Y-102231252D01*
X181684822Y-102481355D01*
X181879731Y-102697588D01*
X182113080Y-102871641D01*
X182375901Y-102996825D01*
X182523110Y-103041476D01*
X182753000Y-102920155D01*
X182753000Y-101727000D01*
X183007000Y-101727000D01*
X183007000Y-102920155D01*
X183236890Y-103041476D01*
X183384099Y-102996825D01*
X183646920Y-102871641D01*
X183880269Y-102697588D01*
X184075178Y-102481355D01*
X184224157Y-102231252D01*
X184321481Y-101956891D01*
X184200814Y-101727000D01*
X183007000Y-101727000D01*
X182753000Y-101727000D01*
X181559186Y-101727000D01*
X181438519Y-101956891D01*
X175052546Y-101956891D01*
X174880535Y-101784880D01*
X174651727Y-101631995D01*
X174574485Y-101600000D01*
X174651727Y-101568005D01*
X174880535Y-101415120D01*
X175052546Y-101243109D01*
X181438519Y-101243109D01*
X181559186Y-101473000D01*
X182753000Y-101473000D01*
X182753000Y-100279845D01*
X183007000Y-100279845D01*
X183007000Y-101473000D01*
X184200814Y-101473000D01*
X184210923Y-101453740D01*
X186475000Y-101453740D01*
X186475000Y-101746260D01*
X186532068Y-102033158D01*
X186644010Y-102303411D01*
X186806525Y-102546632D01*
X187013368Y-102753475D01*
X187256589Y-102915990D01*
X187526842Y-103027932D01*
X187813740Y-103085000D01*
X188106260Y-103085000D01*
X188393158Y-103027932D01*
X188663411Y-102915990D01*
X188906632Y-102753475D01*
X189038487Y-102621620D01*
X189060498Y-102694180D01*
X189119463Y-102804494D01*
X189198815Y-102901185D01*
X189295506Y-102980537D01*
X189405820Y-103039502D01*
X189525518Y-103075812D01*
X189650000Y-103088072D01*
X191350000Y-103088072D01*
X191474482Y-103075812D01*
X191594180Y-103039502D01*
X191704494Y-102980537D01*
X191801185Y-102901185D01*
X191880537Y-102804494D01*
X191939502Y-102694180D01*
X191975812Y-102574482D01*
X191988072Y-102450000D01*
X191988072Y-100750000D01*
X191975812Y-100625518D01*
X191939502Y-100505820D01*
X191880537Y-100395506D01*
X191801185Y-100298815D01*
X191704494Y-100219463D01*
X191594180Y-100160498D01*
X191474482Y-100124188D01*
X191350000Y-100111928D01*
X189650000Y-100111928D01*
X189525518Y-100124188D01*
X189405820Y-100160498D01*
X189295506Y-100219463D01*
X189198815Y-100298815D01*
X189119463Y-100395506D01*
X189060498Y-100505820D01*
X189038487Y-100578380D01*
X188906632Y-100446525D01*
X188663411Y-100284010D01*
X188393158Y-100172068D01*
X188106260Y-100115000D01*
X187813740Y-100115000D01*
X187526842Y-100172068D01*
X187256589Y-100284010D01*
X187013368Y-100446525D01*
X186806525Y-100653368D01*
X186644010Y-100896589D01*
X186532068Y-101166842D01*
X186475000Y-101453740D01*
X184210923Y-101453740D01*
X184321481Y-101243109D01*
X184224157Y-100968748D01*
X184075178Y-100718645D01*
X183880269Y-100502412D01*
X183646920Y-100328359D01*
X183384099Y-100203175D01*
X183236890Y-100158524D01*
X183007000Y-100279845D01*
X182753000Y-100279845D01*
X182523110Y-100158524D01*
X182375901Y-100203175D01*
X182113080Y-100328359D01*
X181879731Y-100502412D01*
X181684822Y-100718645D01*
X181535843Y-100968748D01*
X181438519Y-101243109D01*
X175052546Y-101243109D01*
X175075120Y-101220535D01*
X175228005Y-100991727D01*
X175333314Y-100737490D01*
X175387000Y-100467592D01*
X175387000Y-100192408D01*
X175333314Y-99922510D01*
X175228005Y-99668273D01*
X175075120Y-99439465D01*
X174880535Y-99244880D01*
X174651727Y-99091995D01*
X174574485Y-99060000D01*
X174651727Y-99028005D01*
X174880535Y-98875120D01*
X175075120Y-98680535D01*
X175228005Y-98451727D01*
X175333314Y-98197490D01*
X175387000Y-97927592D01*
X175387000Y-97652408D01*
X175333314Y-97382510D01*
X175228005Y-97128273D01*
X175075120Y-96899465D01*
X174880535Y-96704880D01*
X174651727Y-96551995D01*
X174574485Y-96520000D01*
X174651727Y-96488005D01*
X174880535Y-96335120D01*
X175075120Y-96140535D01*
X175228005Y-95911727D01*
X175333314Y-95657490D01*
X175387000Y-95387592D01*
X175387000Y-95112408D01*
X175333314Y-94842510D01*
X175228005Y-94588273D01*
X175075120Y-94359465D01*
X174880535Y-94164880D01*
X174651727Y-94011995D01*
X174574485Y-93980000D01*
X174651727Y-93948005D01*
X174880535Y-93795120D01*
X175075120Y-93600535D01*
X175228005Y-93371727D01*
X175333314Y-93117490D01*
X175387000Y-92847592D01*
X175387000Y-92572408D01*
X175333314Y-92302510D01*
X175228005Y-92048273D01*
X175075120Y-91819465D01*
X175052546Y-91796891D01*
X181438519Y-91796891D01*
X181535843Y-92071252D01*
X181684822Y-92321355D01*
X181879731Y-92537588D01*
X182113080Y-92711641D01*
X182375901Y-92836825D01*
X182523110Y-92881476D01*
X182753000Y-92760155D01*
X182753000Y-91567000D01*
X183007000Y-91567000D01*
X183007000Y-92760155D01*
X183236890Y-92881476D01*
X183384099Y-92836825D01*
X183646920Y-92711641D01*
X183880269Y-92537588D01*
X184075178Y-92321355D01*
X184224157Y-92071252D01*
X184321481Y-91796891D01*
X184200814Y-91567000D01*
X183007000Y-91567000D01*
X182753000Y-91567000D01*
X181559186Y-91567000D01*
X181438519Y-91796891D01*
X175052546Y-91796891D01*
X174880535Y-91624880D01*
X174651727Y-91471995D01*
X174397490Y-91366686D01*
X174127592Y-91313000D01*
X173852408Y-91313000D01*
X173582510Y-91366686D01*
X173328273Y-91471995D01*
X173099465Y-91624880D01*
X172904880Y-91819465D01*
X172751995Y-92048273D01*
X172646686Y-92302510D01*
X172593000Y-92572408D01*
X149990072Y-92572408D01*
X149990072Y-91948000D01*
X149977812Y-91823518D01*
X149941502Y-91703820D01*
X149882537Y-91593506D01*
X149803185Y-91496815D01*
X149706494Y-91417463D01*
X149596180Y-91358498D01*
X149476482Y-91322188D01*
X149352000Y-91309928D01*
X147828000Y-91309928D01*
X147703518Y-91322188D01*
X147583820Y-91358498D01*
X147473506Y-91417463D01*
X147376815Y-91496815D01*
X147297463Y-91593506D01*
X147238498Y-91703820D01*
X147202188Y-91823518D01*
X147189928Y-91948000D01*
X146177000Y-91948000D01*
X146177000Y-91083109D01*
X181438519Y-91083109D01*
X181559186Y-91313000D01*
X182753000Y-91313000D01*
X182753000Y-90119845D01*
X183007000Y-90119845D01*
X183007000Y-91313000D01*
X184200814Y-91313000D01*
X184210923Y-91293740D01*
X186475000Y-91293740D01*
X186475000Y-91586260D01*
X186532068Y-91873158D01*
X186644010Y-92143411D01*
X186806525Y-92386632D01*
X187013368Y-92593475D01*
X187256589Y-92755990D01*
X187526842Y-92867932D01*
X187813740Y-92925000D01*
X188106260Y-92925000D01*
X188393158Y-92867932D01*
X188663411Y-92755990D01*
X188906632Y-92593475D01*
X189038487Y-92461620D01*
X189060498Y-92534180D01*
X189119463Y-92644494D01*
X189198815Y-92741185D01*
X189295506Y-92820537D01*
X189405820Y-92879502D01*
X189525518Y-92915812D01*
X189650000Y-92928072D01*
X191350000Y-92928072D01*
X191474482Y-92915812D01*
X191594180Y-92879502D01*
X191704494Y-92820537D01*
X191801185Y-92741185D01*
X191880537Y-92644494D01*
X191939502Y-92534180D01*
X191975812Y-92414482D01*
X191988072Y-92290000D01*
X191988072Y-90590000D01*
X191975812Y-90465518D01*
X191939502Y-90345820D01*
X191880537Y-90235506D01*
X191801185Y-90138815D01*
X191704494Y-90059463D01*
X191594180Y-90000498D01*
X191474482Y-89964188D01*
X191350000Y-89951928D01*
X189650000Y-89951928D01*
X189525518Y-89964188D01*
X189405820Y-90000498D01*
X189295506Y-90059463D01*
X189198815Y-90138815D01*
X189119463Y-90235506D01*
X189060498Y-90345820D01*
X189038487Y-90418380D01*
X188906632Y-90286525D01*
X188663411Y-90124010D01*
X188393158Y-90012068D01*
X188106260Y-89955000D01*
X187813740Y-89955000D01*
X187526842Y-90012068D01*
X187256589Y-90124010D01*
X187013368Y-90286525D01*
X186806525Y-90493368D01*
X186644010Y-90736589D01*
X186532068Y-91006842D01*
X186475000Y-91293740D01*
X184210923Y-91293740D01*
X184321481Y-91083109D01*
X184224157Y-90808748D01*
X184075178Y-90558645D01*
X183880269Y-90342412D01*
X183646920Y-90168359D01*
X183384099Y-90043175D01*
X183236890Y-89998524D01*
X183007000Y-90119845D01*
X182753000Y-90119845D01*
X182523110Y-89998524D01*
X182375901Y-90043175D01*
X182113080Y-90168359D01*
X181879731Y-90342412D01*
X181684822Y-90558645D01*
X181535843Y-90808748D01*
X181438519Y-91083109D01*
X146177000Y-91083109D01*
X146177000Y-84041555D01*
X146387912Y-84357207D01*
X146782793Y-84752088D01*
X147247124Y-85062344D01*
X147763061Y-85276052D01*
X148310777Y-85385000D01*
X148869223Y-85385000D01*
X149416939Y-85276052D01*
X149932876Y-85062344D01*
X150397207Y-84752088D01*
X150792088Y-84357207D01*
X151102344Y-83892876D01*
X151316052Y-83376939D01*
X151425000Y-82829223D01*
X151425000Y-82270777D01*
X171155000Y-82270777D01*
X171155000Y-82829223D01*
X171263948Y-83376939D01*
X171477656Y-83892876D01*
X171787912Y-84357207D01*
X172182793Y-84752088D01*
X172647124Y-85062344D01*
X173163061Y-85276052D01*
X173710777Y-85385000D01*
X174269223Y-85385000D01*
X174816939Y-85276052D01*
X175332876Y-85062344D01*
X175797207Y-84752088D01*
X176192088Y-84357207D01*
X176502344Y-83892876D01*
X176716052Y-83376939D01*
X176825000Y-82829223D01*
X176825000Y-82270777D01*
X176716052Y-81723061D01*
X176502344Y-81207124D01*
X176192088Y-80742793D01*
X175816186Y-80366891D01*
X181438519Y-80366891D01*
X181535843Y-80641252D01*
X181684822Y-80891355D01*
X181879731Y-81107588D01*
X182113080Y-81281641D01*
X182375901Y-81406825D01*
X182523110Y-81451476D01*
X182753000Y-81330155D01*
X182753000Y-80137000D01*
X183007000Y-80137000D01*
X183007000Y-81330155D01*
X183236890Y-81451476D01*
X183384099Y-81406825D01*
X183646920Y-81281641D01*
X183880269Y-81107588D01*
X184075178Y-80891355D01*
X184224157Y-80641252D01*
X184321481Y-80366891D01*
X184200814Y-80137000D01*
X183007000Y-80137000D01*
X182753000Y-80137000D01*
X181559186Y-80137000D01*
X181438519Y-80366891D01*
X175816186Y-80366891D01*
X175797207Y-80347912D01*
X175332876Y-80037656D01*
X174816939Y-79823948D01*
X174269223Y-79715000D01*
X173710777Y-79715000D01*
X173163061Y-79823948D01*
X172647124Y-80037656D01*
X172182793Y-80347912D01*
X171787912Y-80742793D01*
X171477656Y-81207124D01*
X171263948Y-81723061D01*
X171155000Y-82270777D01*
X151425000Y-82270777D01*
X151316052Y-81723061D01*
X151102344Y-81207124D01*
X150792088Y-80742793D01*
X150397207Y-80347912D01*
X149932876Y-80037656D01*
X149416939Y-79823948D01*
X148869223Y-79715000D01*
X148310777Y-79715000D01*
X147763061Y-79823948D01*
X147247124Y-80037656D01*
X146782793Y-80347912D01*
X146387912Y-80742793D01*
X146177000Y-81058445D01*
X146177000Y-79653109D01*
X181438519Y-79653109D01*
X181559186Y-79883000D01*
X182753000Y-79883000D01*
X182753000Y-78689845D01*
X183007000Y-78689845D01*
X183007000Y-79883000D01*
X184200814Y-79883000D01*
X184210923Y-79863740D01*
X186475000Y-79863740D01*
X186475000Y-80156260D01*
X186532068Y-80443158D01*
X186644010Y-80713411D01*
X186806525Y-80956632D01*
X187013368Y-81163475D01*
X187256589Y-81325990D01*
X187526842Y-81437932D01*
X187813740Y-81495000D01*
X188106260Y-81495000D01*
X188393158Y-81437932D01*
X188663411Y-81325990D01*
X188906632Y-81163475D01*
X189038487Y-81031620D01*
X189060498Y-81104180D01*
X189119463Y-81214494D01*
X189198815Y-81311185D01*
X189295506Y-81390537D01*
X189405820Y-81449502D01*
X189525518Y-81485812D01*
X189650000Y-81498072D01*
X191350000Y-81498072D01*
X191474482Y-81485812D01*
X191594180Y-81449502D01*
X191704494Y-81390537D01*
X191801185Y-81311185D01*
X191880537Y-81214494D01*
X191939502Y-81104180D01*
X191975812Y-80984482D01*
X191988072Y-80860000D01*
X191988072Y-79160000D01*
X191975812Y-79035518D01*
X191939502Y-78915820D01*
X191880537Y-78805506D01*
X191801185Y-78708815D01*
X191704494Y-78629463D01*
X191594180Y-78570498D01*
X191474482Y-78534188D01*
X191350000Y-78521928D01*
X189650000Y-78521928D01*
X189525518Y-78534188D01*
X189405820Y-78570498D01*
X189295506Y-78629463D01*
X189198815Y-78708815D01*
X189119463Y-78805506D01*
X189060498Y-78915820D01*
X189038487Y-78988380D01*
X188906632Y-78856525D01*
X188663411Y-78694010D01*
X188393158Y-78582068D01*
X188106260Y-78525000D01*
X187813740Y-78525000D01*
X187526842Y-78582068D01*
X187256589Y-78694010D01*
X187013368Y-78856525D01*
X186806525Y-79063368D01*
X186644010Y-79306589D01*
X186532068Y-79576842D01*
X186475000Y-79863740D01*
X184210923Y-79863740D01*
X184321481Y-79653109D01*
X184224157Y-79378748D01*
X184075178Y-79128645D01*
X183880269Y-78912412D01*
X183646920Y-78738359D01*
X183384099Y-78613175D01*
X183236890Y-78568524D01*
X183007000Y-78689845D01*
X182753000Y-78689845D01*
X182523110Y-78568524D01*
X182375901Y-78613175D01*
X182113080Y-78738359D01*
X181879731Y-78912412D01*
X181684822Y-79128645D01*
X181535843Y-79378748D01*
X181438519Y-79653109D01*
X146177000Y-79653109D01*
X146177000Y-67190000D01*
X151641928Y-67190000D01*
X151641928Y-69970000D01*
X151654188Y-70094482D01*
X151690498Y-70214180D01*
X151749463Y-70324494D01*
X151828815Y-70421185D01*
X151925506Y-70500537D01*
X152035820Y-70559502D01*
X152155518Y-70595812D01*
X152280000Y-70608072D01*
X155060000Y-70608072D01*
X155184482Y-70595812D01*
X155304180Y-70559502D01*
X155414494Y-70500537D01*
X155511185Y-70421185D01*
X155590537Y-70324494D01*
X155649502Y-70214180D01*
X155685812Y-70094482D01*
X155695774Y-69993325D01*
X157516280Y-69993325D01*
X157659052Y-70297625D01*
X158015107Y-70477455D01*
X158399402Y-70584366D01*
X158797171Y-70614251D01*
X159193128Y-70565961D01*
X159572055Y-70441352D01*
X159840948Y-70297625D01*
X159983720Y-69993325D01*
X162596280Y-69993325D01*
X162739052Y-70297625D01*
X163095107Y-70477455D01*
X163479402Y-70584366D01*
X163877171Y-70614251D01*
X164273128Y-70565961D01*
X164652055Y-70441352D01*
X164920948Y-70297625D01*
X165063720Y-69993325D01*
X163830000Y-68759605D01*
X162596280Y-69993325D01*
X159983720Y-69993325D01*
X158750000Y-68759605D01*
X157516280Y-69993325D01*
X155695774Y-69993325D01*
X155698072Y-69970000D01*
X155698072Y-68627171D01*
X156715749Y-68627171D01*
X156764039Y-69023128D01*
X156888648Y-69402055D01*
X157032375Y-69670948D01*
X157336675Y-69813720D01*
X158570395Y-68580000D01*
X158929605Y-68580000D01*
X160163325Y-69813720D01*
X160467625Y-69670948D01*
X160647455Y-69314893D01*
X160754366Y-68930598D01*
X160777162Y-68627171D01*
X161795749Y-68627171D01*
X161844039Y-69023128D01*
X161968648Y-69402055D01*
X162112375Y-69670948D01*
X162416675Y-69813720D01*
X163650395Y-68580000D01*
X164009605Y-68580000D01*
X165243325Y-69813720D01*
X165547625Y-69670948D01*
X165727455Y-69314893D01*
X165834366Y-68930598D01*
X165864251Y-68532829D01*
X165845681Y-68380555D01*
X166885000Y-68380555D01*
X166885000Y-68779445D01*
X166962820Y-69170671D01*
X167115468Y-69539197D01*
X167337080Y-69870862D01*
X167619138Y-70152920D01*
X167950803Y-70374532D01*
X168319329Y-70527180D01*
X168710555Y-70605000D01*
X169109445Y-70605000D01*
X169500671Y-70527180D01*
X169869197Y-70374532D01*
X170120088Y-70206891D01*
X181438519Y-70206891D01*
X181535843Y-70481252D01*
X181684822Y-70731355D01*
X181879731Y-70947588D01*
X182113080Y-71121641D01*
X182375901Y-71246825D01*
X182523110Y-71291476D01*
X182753000Y-71170155D01*
X182753000Y-69977000D01*
X183007000Y-69977000D01*
X183007000Y-71170155D01*
X183236890Y-71291476D01*
X183384099Y-71246825D01*
X183646920Y-71121641D01*
X183880269Y-70947588D01*
X184075178Y-70731355D01*
X184224157Y-70481252D01*
X184321481Y-70206891D01*
X184200814Y-69977000D01*
X183007000Y-69977000D01*
X182753000Y-69977000D01*
X181559186Y-69977000D01*
X181438519Y-70206891D01*
X170120088Y-70206891D01*
X170200862Y-70152920D01*
X170482920Y-69870862D01*
X170704532Y-69539197D01*
X170723622Y-69493109D01*
X181438519Y-69493109D01*
X181559186Y-69723000D01*
X182753000Y-69723000D01*
X182753000Y-68529845D01*
X183007000Y-68529845D01*
X183007000Y-69723000D01*
X184200814Y-69723000D01*
X184210923Y-69703740D01*
X186475000Y-69703740D01*
X186475000Y-69996260D01*
X186532068Y-70283158D01*
X186644010Y-70553411D01*
X186806525Y-70796632D01*
X187013368Y-71003475D01*
X187256589Y-71165990D01*
X187526842Y-71277932D01*
X187813740Y-71335000D01*
X188106260Y-71335000D01*
X188393158Y-71277932D01*
X188663411Y-71165990D01*
X188906632Y-71003475D01*
X189038487Y-70871620D01*
X189060498Y-70944180D01*
X189119463Y-71054494D01*
X189198815Y-71151185D01*
X189295506Y-71230537D01*
X189405820Y-71289502D01*
X189525518Y-71325812D01*
X189650000Y-71338072D01*
X191350000Y-71338072D01*
X191474482Y-71325812D01*
X191594180Y-71289502D01*
X191704494Y-71230537D01*
X191801185Y-71151185D01*
X191880537Y-71054494D01*
X191939502Y-70944180D01*
X191975812Y-70824482D01*
X191988072Y-70700000D01*
X191988072Y-69000000D01*
X191975812Y-68875518D01*
X191939502Y-68755820D01*
X191880537Y-68645506D01*
X191801185Y-68548815D01*
X191704494Y-68469463D01*
X191594180Y-68410498D01*
X191474482Y-68374188D01*
X191350000Y-68361928D01*
X189650000Y-68361928D01*
X189525518Y-68374188D01*
X189405820Y-68410498D01*
X189295506Y-68469463D01*
X189198815Y-68548815D01*
X189119463Y-68645506D01*
X189060498Y-68755820D01*
X189038487Y-68828380D01*
X188906632Y-68696525D01*
X188663411Y-68534010D01*
X188393158Y-68422068D01*
X188106260Y-68365000D01*
X187813740Y-68365000D01*
X187526842Y-68422068D01*
X187256589Y-68534010D01*
X187013368Y-68696525D01*
X186806525Y-68903368D01*
X186644010Y-69146589D01*
X186532068Y-69416842D01*
X186475000Y-69703740D01*
X184210923Y-69703740D01*
X184321481Y-69493109D01*
X184224157Y-69218748D01*
X184075178Y-68968645D01*
X183880269Y-68752412D01*
X183646920Y-68578359D01*
X183384099Y-68453175D01*
X183236890Y-68408524D01*
X183007000Y-68529845D01*
X182753000Y-68529845D01*
X182523110Y-68408524D01*
X182375901Y-68453175D01*
X182113080Y-68578359D01*
X181879731Y-68752412D01*
X181684822Y-68968645D01*
X181535843Y-69218748D01*
X181438519Y-69493109D01*
X170723622Y-69493109D01*
X170857180Y-69170671D01*
X170935000Y-68779445D01*
X170935000Y-68380555D01*
X170857180Y-67989329D01*
X170704532Y-67620803D01*
X170482920Y-67289138D01*
X170200862Y-67007080D01*
X169869197Y-66785468D01*
X169500671Y-66632820D01*
X169109445Y-66555000D01*
X168710555Y-66555000D01*
X168319329Y-66632820D01*
X167950803Y-66785468D01*
X167619138Y-67007080D01*
X167337080Y-67289138D01*
X167115468Y-67620803D01*
X166962820Y-67989329D01*
X166885000Y-68380555D01*
X165845681Y-68380555D01*
X165815961Y-68136872D01*
X165691352Y-67757945D01*
X165547625Y-67489052D01*
X165243325Y-67346280D01*
X164009605Y-68580000D01*
X163650395Y-68580000D01*
X162416675Y-67346280D01*
X162112375Y-67489052D01*
X161932545Y-67845107D01*
X161825634Y-68229402D01*
X161795749Y-68627171D01*
X160777162Y-68627171D01*
X160784251Y-68532829D01*
X160735961Y-68136872D01*
X160611352Y-67757945D01*
X160467625Y-67489052D01*
X160163325Y-67346280D01*
X158929605Y-68580000D01*
X158570395Y-68580000D01*
X157336675Y-67346280D01*
X157032375Y-67489052D01*
X156852545Y-67845107D01*
X156745634Y-68229402D01*
X156715749Y-68627171D01*
X155698072Y-68627171D01*
X155698072Y-67190000D01*
X155695775Y-67166675D01*
X157516280Y-67166675D01*
X158750000Y-68400395D01*
X159983720Y-67166675D01*
X162596280Y-67166675D01*
X163830000Y-68400395D01*
X165063720Y-67166675D01*
X164920948Y-66862375D01*
X164564893Y-66682545D01*
X164180598Y-66575634D01*
X163782829Y-66545749D01*
X163386872Y-66594039D01*
X163007945Y-66718648D01*
X162739052Y-66862375D01*
X162596280Y-67166675D01*
X159983720Y-67166675D01*
X159840948Y-66862375D01*
X159484893Y-66682545D01*
X159100598Y-66575634D01*
X158702829Y-66545749D01*
X158306872Y-66594039D01*
X157927945Y-66718648D01*
X157659052Y-66862375D01*
X157516280Y-67166675D01*
X155695775Y-67166675D01*
X155685812Y-67065518D01*
X155649502Y-66945820D01*
X155590537Y-66835506D01*
X155511185Y-66738815D01*
X155414494Y-66659463D01*
X155304180Y-66600498D01*
X155184482Y-66564188D01*
X155060000Y-66551928D01*
X152280000Y-66551928D01*
X152155518Y-66564188D01*
X152035820Y-66600498D01*
X151925506Y-66659463D01*
X151828815Y-66738815D01*
X151749463Y-66835506D01*
X151690498Y-66945820D01*
X151654188Y-67065518D01*
X151641928Y-67190000D01*
X146177000Y-67190000D01*
X146177000Y-63627000D01*
X192913000Y-63627000D01*
X192913000Y-144653000D01*
%TA.AperFunction,Conductor*%
D19*
G36*
X192913000Y-144653000D02*
G01*
X175481555Y-144653000D01*
X175797207Y-144442088D01*
X176192088Y-144047207D01*
X176502344Y-143582876D01*
X176716052Y-143066939D01*
X176809550Y-142596891D01*
X181438519Y-142596891D01*
X181535843Y-142871252D01*
X181684822Y-143121355D01*
X181879731Y-143337588D01*
X182113080Y-143511641D01*
X182375901Y-143636825D01*
X182523110Y-143681476D01*
X182753000Y-143560155D01*
X182753000Y-142367000D01*
X183007000Y-142367000D01*
X183007000Y-143560155D01*
X183236890Y-143681476D01*
X183384099Y-143636825D01*
X183646920Y-143511641D01*
X183880269Y-143337588D01*
X184075178Y-143121355D01*
X184224157Y-142871252D01*
X184321481Y-142596891D01*
X184200814Y-142367000D01*
X183007000Y-142367000D01*
X182753000Y-142367000D01*
X181559186Y-142367000D01*
X181438519Y-142596891D01*
X176809550Y-142596891D01*
X176825000Y-142519223D01*
X176825000Y-141960777D01*
X176809551Y-141883109D01*
X181438519Y-141883109D01*
X181559186Y-142113000D01*
X182753000Y-142113000D01*
X182753000Y-140919845D01*
X183007000Y-140919845D01*
X183007000Y-142113000D01*
X184200814Y-142113000D01*
X184210923Y-142093740D01*
X186475000Y-142093740D01*
X186475000Y-142386260D01*
X186532068Y-142673158D01*
X186644010Y-142943411D01*
X186806525Y-143186632D01*
X187013368Y-143393475D01*
X187256589Y-143555990D01*
X187526842Y-143667932D01*
X187813740Y-143725000D01*
X188106260Y-143725000D01*
X188393158Y-143667932D01*
X188663411Y-143555990D01*
X188906632Y-143393475D01*
X189038487Y-143261620D01*
X189060498Y-143334180D01*
X189119463Y-143444494D01*
X189198815Y-143541185D01*
X189295506Y-143620537D01*
X189405820Y-143679502D01*
X189525518Y-143715812D01*
X189650000Y-143728072D01*
X191350000Y-143728072D01*
X191474482Y-143715812D01*
X191594180Y-143679502D01*
X191704494Y-143620537D01*
X191801185Y-143541185D01*
X191880537Y-143444494D01*
X191939502Y-143334180D01*
X191975812Y-143214482D01*
X191988072Y-143090000D01*
X191988072Y-141390000D01*
X191975812Y-141265518D01*
X191939502Y-141145820D01*
X191880537Y-141035506D01*
X191801185Y-140938815D01*
X191704494Y-140859463D01*
X191594180Y-140800498D01*
X191474482Y-140764188D01*
X191350000Y-140751928D01*
X189650000Y-140751928D01*
X189525518Y-140764188D01*
X189405820Y-140800498D01*
X189295506Y-140859463D01*
X189198815Y-140938815D01*
X189119463Y-141035506D01*
X189060498Y-141145820D01*
X189038487Y-141218380D01*
X188906632Y-141086525D01*
X188663411Y-140924010D01*
X188393158Y-140812068D01*
X188106260Y-140755000D01*
X187813740Y-140755000D01*
X187526842Y-140812068D01*
X187256589Y-140924010D01*
X187013368Y-141086525D01*
X186806525Y-141293368D01*
X186644010Y-141536589D01*
X186532068Y-141806842D01*
X186475000Y-142093740D01*
X184210923Y-142093740D01*
X184321481Y-141883109D01*
X184224157Y-141608748D01*
X184075178Y-141358645D01*
X183880269Y-141142412D01*
X183646920Y-140968359D01*
X183384099Y-140843175D01*
X183236890Y-140798524D01*
X183007000Y-140919845D01*
X182753000Y-140919845D01*
X182523110Y-140798524D01*
X182375901Y-140843175D01*
X182113080Y-140968359D01*
X181879731Y-141142412D01*
X181684822Y-141358645D01*
X181535843Y-141608748D01*
X181438519Y-141883109D01*
X176809551Y-141883109D01*
X176716052Y-141413061D01*
X176502344Y-140897124D01*
X176192088Y-140432793D01*
X175797207Y-140037912D01*
X175332876Y-139727656D01*
X174816939Y-139513948D01*
X174269223Y-139405000D01*
X173710777Y-139405000D01*
X173163061Y-139513948D01*
X172647124Y-139727656D01*
X172182793Y-140037912D01*
X171787912Y-140432793D01*
X171477656Y-140897124D01*
X171263948Y-141413061D01*
X171155000Y-141960777D01*
X171155000Y-142519223D01*
X171263948Y-143066939D01*
X171477656Y-143582876D01*
X171787912Y-144047207D01*
X172182793Y-144442088D01*
X172498445Y-144653000D01*
X150081555Y-144653000D01*
X150397207Y-144442088D01*
X150792088Y-144047207D01*
X151102344Y-143582876D01*
X151316052Y-143066939D01*
X151425000Y-142519223D01*
X151425000Y-141960777D01*
X151316052Y-141413061D01*
X151102344Y-140897124D01*
X150792088Y-140432793D01*
X150397207Y-140037912D01*
X149932876Y-139727656D01*
X149416939Y-139513948D01*
X148869223Y-139405000D01*
X148310777Y-139405000D01*
X147763061Y-139513948D01*
X147247124Y-139727656D01*
X146782793Y-140037912D01*
X146387912Y-140432793D01*
X146177000Y-140748445D01*
X146177000Y-132436891D01*
X181438519Y-132436891D01*
X181535843Y-132711252D01*
X181684822Y-132961355D01*
X181879731Y-133177588D01*
X182113080Y-133351641D01*
X182375901Y-133476825D01*
X182523110Y-133521476D01*
X182753000Y-133400155D01*
X182753000Y-132207000D01*
X183007000Y-132207000D01*
X183007000Y-133400155D01*
X183236890Y-133521476D01*
X183384099Y-133476825D01*
X183646920Y-133351641D01*
X183880269Y-133177588D01*
X184075178Y-132961355D01*
X184224157Y-132711252D01*
X184321481Y-132436891D01*
X184200814Y-132207000D01*
X183007000Y-132207000D01*
X182753000Y-132207000D01*
X181559186Y-132207000D01*
X181438519Y-132436891D01*
X146177000Y-132436891D01*
X146177000Y-131723109D01*
X181438519Y-131723109D01*
X181559186Y-131953000D01*
X182753000Y-131953000D01*
X182753000Y-130759845D01*
X183007000Y-130759845D01*
X183007000Y-131953000D01*
X184200814Y-131953000D01*
X184210923Y-131933740D01*
X186475000Y-131933740D01*
X186475000Y-132226260D01*
X186532068Y-132513158D01*
X186644010Y-132783411D01*
X186806525Y-133026632D01*
X187013368Y-133233475D01*
X187256589Y-133395990D01*
X187526842Y-133507932D01*
X187813740Y-133565000D01*
X188106260Y-133565000D01*
X188393158Y-133507932D01*
X188663411Y-133395990D01*
X188906632Y-133233475D01*
X189038487Y-133101620D01*
X189060498Y-133174180D01*
X189119463Y-133284494D01*
X189198815Y-133381185D01*
X189295506Y-133460537D01*
X189405820Y-133519502D01*
X189525518Y-133555812D01*
X189650000Y-133568072D01*
X191350000Y-133568072D01*
X191474482Y-133555812D01*
X191594180Y-133519502D01*
X191704494Y-133460537D01*
X191801185Y-133381185D01*
X191880537Y-133284494D01*
X191939502Y-133174180D01*
X191975812Y-133054482D01*
X191988072Y-132930000D01*
X191988072Y-131230000D01*
X191975812Y-131105518D01*
X191939502Y-130985820D01*
X191880537Y-130875506D01*
X191801185Y-130778815D01*
X191704494Y-130699463D01*
X191594180Y-130640498D01*
X191474482Y-130604188D01*
X191350000Y-130591928D01*
X189650000Y-130591928D01*
X189525518Y-130604188D01*
X189405820Y-130640498D01*
X189295506Y-130699463D01*
X189198815Y-130778815D01*
X189119463Y-130875506D01*
X189060498Y-130985820D01*
X189038487Y-131058380D01*
X188906632Y-130926525D01*
X188663411Y-130764010D01*
X188393158Y-130652068D01*
X188106260Y-130595000D01*
X187813740Y-130595000D01*
X187526842Y-130652068D01*
X187256589Y-130764010D01*
X187013368Y-130926525D01*
X186806525Y-131133368D01*
X186644010Y-131376589D01*
X186532068Y-131646842D01*
X186475000Y-131933740D01*
X184210923Y-131933740D01*
X184321481Y-131723109D01*
X184224157Y-131448748D01*
X184075178Y-131198645D01*
X183880269Y-130982412D01*
X183646920Y-130808359D01*
X183384099Y-130683175D01*
X183236890Y-130638524D01*
X183007000Y-130759845D01*
X182753000Y-130759845D01*
X182523110Y-130638524D01*
X182375901Y-130683175D01*
X182113080Y-130808359D01*
X181879731Y-130982412D01*
X181684822Y-131198645D01*
X181535843Y-131448748D01*
X181438519Y-131723109D01*
X146177000Y-131723109D01*
X146177000Y-128132408D01*
X147193000Y-128132408D01*
X147193000Y-128407592D01*
X147246686Y-128677490D01*
X147351995Y-128931727D01*
X147504880Y-129160535D01*
X147699465Y-129355120D01*
X147928273Y-129508005D01*
X148182510Y-129613314D01*
X148452408Y-129667000D01*
X148727592Y-129667000D01*
X148997490Y-129613314D01*
X149251727Y-129508005D01*
X149480535Y-129355120D01*
X149675120Y-129160535D01*
X149828005Y-128931727D01*
X149933314Y-128677490D01*
X149987000Y-128407592D01*
X149987000Y-128132408D01*
X172593000Y-128132408D01*
X172593000Y-128407592D01*
X172646686Y-128677490D01*
X172751995Y-128931727D01*
X172904880Y-129160535D01*
X173099465Y-129355120D01*
X173328273Y-129508005D01*
X173582510Y-129613314D01*
X173852408Y-129667000D01*
X174127592Y-129667000D01*
X174397490Y-129613314D01*
X174651727Y-129508005D01*
X174880535Y-129355120D01*
X175075120Y-129160535D01*
X175228005Y-128931727D01*
X175333314Y-128677490D01*
X175387000Y-128407592D01*
X175387000Y-128132408D01*
X175333314Y-127862510D01*
X175228005Y-127608273D01*
X175075120Y-127379465D01*
X174880535Y-127184880D01*
X174651727Y-127031995D01*
X174580057Y-127002308D01*
X174593023Y-126997636D01*
X174708980Y-126935656D01*
X174775960Y-126695565D01*
X173990000Y-125909605D01*
X173204040Y-126695565D01*
X173271020Y-126935656D01*
X173406760Y-126999485D01*
X173328273Y-127031995D01*
X173099465Y-127184880D01*
X172904880Y-127379465D01*
X172751995Y-127608273D01*
X172646686Y-127862510D01*
X172593000Y-128132408D01*
X149987000Y-128132408D01*
X149933314Y-127862510D01*
X149828005Y-127608273D01*
X149675120Y-127379465D01*
X149480535Y-127184880D01*
X149251727Y-127031995D01*
X149180057Y-127002308D01*
X149193023Y-126997636D01*
X149308980Y-126935656D01*
X149375960Y-126695565D01*
X148590000Y-125909605D01*
X147804040Y-126695565D01*
X147871020Y-126935656D01*
X148006760Y-126999485D01*
X147928273Y-127031995D01*
X147699465Y-127184880D01*
X147504880Y-127379465D01*
X147351995Y-127608273D01*
X147246686Y-127862510D01*
X147193000Y-128132408D01*
X146177000Y-128132408D01*
X146177000Y-125802017D01*
X147188090Y-125802017D01*
X147229078Y-126074133D01*
X147322364Y-126333023D01*
X147384344Y-126448980D01*
X147624435Y-126515960D01*
X148410395Y-125730000D01*
X148769605Y-125730000D01*
X149555565Y-126515960D01*
X149795656Y-126448980D01*
X149912756Y-126199952D01*
X149979023Y-125932865D01*
X149985157Y-125802017D01*
X172588090Y-125802017D01*
X172629078Y-126074133D01*
X172722364Y-126333023D01*
X172784344Y-126448980D01*
X173024435Y-126515960D01*
X173810395Y-125730000D01*
X174169605Y-125730000D01*
X174955565Y-126515960D01*
X175195656Y-126448980D01*
X175312756Y-126199952D01*
X175379023Y-125932865D01*
X175391910Y-125657983D01*
X175350922Y-125385867D01*
X175257636Y-125126977D01*
X175195656Y-125011020D01*
X174955565Y-124944040D01*
X174169605Y-125730000D01*
X173810395Y-125730000D01*
X173024435Y-124944040D01*
X172784344Y-125011020D01*
X172667244Y-125260048D01*
X172600977Y-125527135D01*
X172588090Y-125802017D01*
X149985157Y-125802017D01*
X149991910Y-125657983D01*
X149950922Y-125385867D01*
X149857636Y-125126977D01*
X149795656Y-125011020D01*
X149555565Y-124944040D01*
X148769605Y-125730000D01*
X148410395Y-125730000D01*
X147624435Y-124944040D01*
X147384344Y-125011020D01*
X147267244Y-125260048D01*
X147200977Y-125527135D01*
X147188090Y-125802017D01*
X146177000Y-125802017D01*
X146177000Y-91948000D01*
X147189928Y-91948000D01*
X147189928Y-93472000D01*
X147202188Y-93596482D01*
X147238498Y-93716180D01*
X147297463Y-93826494D01*
X147376815Y-93923185D01*
X147473506Y-94002537D01*
X147583820Y-94061502D01*
X147703518Y-94097812D01*
X147787465Y-94106080D01*
X147699465Y-94164880D01*
X147504880Y-94359465D01*
X147351995Y-94588273D01*
X147246686Y-94842510D01*
X147193000Y-95112408D01*
X147193000Y-95387592D01*
X147246686Y-95657490D01*
X147351995Y-95911727D01*
X147504880Y-96140535D01*
X147699465Y-96335120D01*
X147928273Y-96488005D01*
X148005515Y-96520000D01*
X147928273Y-96551995D01*
X147699465Y-96704880D01*
X147504880Y-96899465D01*
X147351995Y-97128273D01*
X147246686Y-97382510D01*
X147193000Y-97652408D01*
X147193000Y-97927592D01*
X147246686Y-98197490D01*
X147351995Y-98451727D01*
X147504880Y-98680535D01*
X147699465Y-98875120D01*
X147928273Y-99028005D01*
X148005515Y-99060000D01*
X147928273Y-99091995D01*
X147699465Y-99244880D01*
X147504880Y-99439465D01*
X147351995Y-99668273D01*
X147246686Y-99922510D01*
X147193000Y-100192408D01*
X147193000Y-100467592D01*
X147246686Y-100737490D01*
X147351995Y-100991727D01*
X147504880Y-101220535D01*
X147699465Y-101415120D01*
X147928273Y-101568005D01*
X148005515Y-101600000D01*
X147928273Y-101631995D01*
X147699465Y-101784880D01*
X147504880Y-101979465D01*
X147351995Y-102208273D01*
X147246686Y-102462510D01*
X147193000Y-102732408D01*
X147193000Y-103007592D01*
X147246686Y-103277490D01*
X147351995Y-103531727D01*
X147504880Y-103760535D01*
X147699465Y-103955120D01*
X147928273Y-104108005D01*
X148005515Y-104140000D01*
X147928273Y-104171995D01*
X147699465Y-104324880D01*
X147504880Y-104519465D01*
X147351995Y-104748273D01*
X147246686Y-105002510D01*
X147193000Y-105272408D01*
X147193000Y-105547592D01*
X147246686Y-105817490D01*
X147351995Y-106071727D01*
X147504880Y-106300535D01*
X147699465Y-106495120D01*
X147928273Y-106648005D01*
X148005515Y-106680000D01*
X147928273Y-106711995D01*
X147699465Y-106864880D01*
X147504880Y-107059465D01*
X147351995Y-107288273D01*
X147246686Y-107542510D01*
X147193000Y-107812408D01*
X147193000Y-108087592D01*
X147246686Y-108357490D01*
X147351995Y-108611727D01*
X147504880Y-108840535D01*
X147699465Y-109035120D01*
X147928273Y-109188005D01*
X148005515Y-109220000D01*
X147928273Y-109251995D01*
X147699465Y-109404880D01*
X147504880Y-109599465D01*
X147351995Y-109828273D01*
X147246686Y-110082510D01*
X147193000Y-110352408D01*
X147193000Y-110627592D01*
X147246686Y-110897490D01*
X147351995Y-111151727D01*
X147504880Y-111380535D01*
X147699465Y-111575120D01*
X147928273Y-111728005D01*
X148005515Y-111760000D01*
X147928273Y-111791995D01*
X147699465Y-111944880D01*
X147504880Y-112139465D01*
X147351995Y-112368273D01*
X147246686Y-112622510D01*
X147193000Y-112892408D01*
X147193000Y-113167592D01*
X147246686Y-113437490D01*
X147351995Y-113691727D01*
X147504880Y-113920535D01*
X147699465Y-114115120D01*
X147928273Y-114268005D01*
X148005515Y-114300000D01*
X147928273Y-114331995D01*
X147699465Y-114484880D01*
X147504880Y-114679465D01*
X147351995Y-114908273D01*
X147246686Y-115162510D01*
X147193000Y-115432408D01*
X147193000Y-115707592D01*
X147246686Y-115977490D01*
X147351995Y-116231727D01*
X147504880Y-116460535D01*
X147699465Y-116655120D01*
X147928273Y-116808005D01*
X148005515Y-116840000D01*
X147928273Y-116871995D01*
X147699465Y-117024880D01*
X147504880Y-117219465D01*
X147351995Y-117448273D01*
X147246686Y-117702510D01*
X147193000Y-117972408D01*
X147193000Y-118247592D01*
X147246686Y-118517490D01*
X147351995Y-118771727D01*
X147504880Y-119000535D01*
X147699465Y-119195120D01*
X147928273Y-119348005D01*
X148005515Y-119380000D01*
X147928273Y-119411995D01*
X147699465Y-119564880D01*
X147504880Y-119759465D01*
X147351995Y-119988273D01*
X147246686Y-120242510D01*
X147193000Y-120512408D01*
X147193000Y-120787592D01*
X147246686Y-121057490D01*
X147351995Y-121311727D01*
X147504880Y-121540535D01*
X147699465Y-121735120D01*
X147928273Y-121888005D01*
X148005515Y-121920000D01*
X147928273Y-121951995D01*
X147699465Y-122104880D01*
X147504880Y-122299465D01*
X147351995Y-122528273D01*
X147246686Y-122782510D01*
X147193000Y-123052408D01*
X147193000Y-123327592D01*
X147246686Y-123597490D01*
X147351995Y-123851727D01*
X147504880Y-124080535D01*
X147699465Y-124275120D01*
X147928273Y-124428005D01*
X147999943Y-124457692D01*
X147986977Y-124462364D01*
X147871020Y-124524344D01*
X147804040Y-124764435D01*
X148590000Y-125550395D01*
X149375960Y-124764435D01*
X149308980Y-124524344D01*
X149173240Y-124460515D01*
X149251727Y-124428005D01*
X149480535Y-124275120D01*
X149675120Y-124080535D01*
X149828005Y-123851727D01*
X149933314Y-123597490D01*
X149987000Y-123327592D01*
X149987000Y-123052408D01*
X149933314Y-122782510D01*
X149828005Y-122528273D01*
X149675120Y-122299465D01*
X149480535Y-122104880D01*
X149251727Y-121951995D01*
X149174485Y-121920000D01*
X149251727Y-121888005D01*
X149480535Y-121735120D01*
X149675120Y-121540535D01*
X149828005Y-121311727D01*
X149933314Y-121057490D01*
X149987000Y-120787592D01*
X149987000Y-120512408D01*
X149933314Y-120242510D01*
X149828005Y-119988273D01*
X149675120Y-119759465D01*
X149480535Y-119564880D01*
X149251727Y-119411995D01*
X149174485Y-119380000D01*
X149251727Y-119348005D01*
X149480535Y-119195120D01*
X149675120Y-119000535D01*
X149828005Y-118771727D01*
X149933314Y-118517490D01*
X149987000Y-118247592D01*
X149987000Y-117972408D01*
X149933314Y-117702510D01*
X149828005Y-117448273D01*
X149675120Y-117219465D01*
X149480535Y-117024880D01*
X149251727Y-116871995D01*
X149174485Y-116840000D01*
X149251727Y-116808005D01*
X149480535Y-116655120D01*
X149675120Y-116460535D01*
X149828005Y-116231727D01*
X149933314Y-115977490D01*
X149987000Y-115707592D01*
X149987000Y-115432408D01*
X149933314Y-115162510D01*
X149828005Y-114908273D01*
X149675120Y-114679465D01*
X149480535Y-114484880D01*
X149251727Y-114331995D01*
X149174485Y-114300000D01*
X149251727Y-114268005D01*
X149480535Y-114115120D01*
X149675120Y-113920535D01*
X149828005Y-113691727D01*
X149933314Y-113437490D01*
X149987000Y-113167592D01*
X149987000Y-112892408D01*
X149933314Y-112622510D01*
X149828005Y-112368273D01*
X149675120Y-112139465D01*
X149480535Y-111944880D01*
X149251727Y-111791995D01*
X149174485Y-111760000D01*
X149251727Y-111728005D01*
X149480535Y-111575120D01*
X149675120Y-111380535D01*
X149828005Y-111151727D01*
X149933314Y-110897490D01*
X149987000Y-110627592D01*
X149987000Y-110352408D01*
X149933314Y-110082510D01*
X149828005Y-109828273D01*
X149675120Y-109599465D01*
X149480535Y-109404880D01*
X149251727Y-109251995D01*
X149174485Y-109220000D01*
X149251727Y-109188005D01*
X149480535Y-109035120D01*
X149675120Y-108840535D01*
X149828005Y-108611727D01*
X149933314Y-108357490D01*
X149987000Y-108087592D01*
X149987000Y-107812408D01*
X149933314Y-107542510D01*
X149828005Y-107288273D01*
X149675120Y-107059465D01*
X149480535Y-106864880D01*
X149251727Y-106711995D01*
X149174485Y-106680000D01*
X149251727Y-106648005D01*
X149480535Y-106495120D01*
X149675120Y-106300535D01*
X149828005Y-106071727D01*
X149933314Y-105817490D01*
X149987000Y-105547592D01*
X149987000Y-105272408D01*
X149933314Y-105002510D01*
X149828005Y-104748273D01*
X149675120Y-104519465D01*
X149480535Y-104324880D01*
X149251727Y-104171995D01*
X149174485Y-104140000D01*
X149251727Y-104108005D01*
X149480535Y-103955120D01*
X149675120Y-103760535D01*
X149828005Y-103531727D01*
X149933314Y-103277490D01*
X149987000Y-103007592D01*
X149987000Y-102732408D01*
X149933314Y-102462510D01*
X149828005Y-102208273D01*
X149675120Y-101979465D01*
X149480535Y-101784880D01*
X149251727Y-101631995D01*
X149174485Y-101600000D01*
X149251727Y-101568005D01*
X149480535Y-101415120D01*
X149675120Y-101220535D01*
X149828005Y-100991727D01*
X149933314Y-100737490D01*
X149987000Y-100467592D01*
X149987000Y-100192408D01*
X149933314Y-99922510D01*
X149828005Y-99668273D01*
X149675120Y-99439465D01*
X149480535Y-99244880D01*
X149251727Y-99091995D01*
X149174485Y-99060000D01*
X149251727Y-99028005D01*
X149480535Y-98875120D01*
X149675120Y-98680535D01*
X149828005Y-98451727D01*
X149933314Y-98197490D01*
X149987000Y-97927592D01*
X149987000Y-97652408D01*
X149933314Y-97382510D01*
X149828005Y-97128273D01*
X149675120Y-96899465D01*
X149480535Y-96704880D01*
X149251727Y-96551995D01*
X149174485Y-96520000D01*
X149251727Y-96488005D01*
X149480535Y-96335120D01*
X149675120Y-96140535D01*
X149828005Y-95911727D01*
X149933314Y-95657490D01*
X149987000Y-95387592D01*
X149987000Y-95112408D01*
X149933314Y-94842510D01*
X149828005Y-94588273D01*
X149675120Y-94359465D01*
X149480535Y-94164880D01*
X149392535Y-94106080D01*
X149476482Y-94097812D01*
X149596180Y-94061502D01*
X149706494Y-94002537D01*
X149803185Y-93923185D01*
X149882537Y-93826494D01*
X149941502Y-93716180D01*
X149977812Y-93596482D01*
X149990072Y-93472000D01*
X149990072Y-92572408D01*
X172593000Y-92572408D01*
X172593000Y-92847592D01*
X172646686Y-93117490D01*
X172751995Y-93371727D01*
X172904880Y-93600535D01*
X173099465Y-93795120D01*
X173328273Y-93948005D01*
X173405515Y-93980000D01*
X173328273Y-94011995D01*
X173099465Y-94164880D01*
X172904880Y-94359465D01*
X172751995Y-94588273D01*
X172646686Y-94842510D01*
X172593000Y-95112408D01*
X172593000Y-95387592D01*
X172646686Y-95657490D01*
X172751995Y-95911727D01*
X172904880Y-96140535D01*
X173099465Y-96335120D01*
X173328273Y-96488005D01*
X173405515Y-96520000D01*
X173328273Y-96551995D01*
X173099465Y-96704880D01*
X172904880Y-96899465D01*
X172751995Y-97128273D01*
X172646686Y-97382510D01*
X172593000Y-97652408D01*
X172593000Y-97927592D01*
X172646686Y-98197490D01*
X172751995Y-98451727D01*
X172904880Y-98680535D01*
X173099465Y-98875120D01*
X173328273Y-99028005D01*
X173405515Y-99060000D01*
X173328273Y-99091995D01*
X173099465Y-99244880D01*
X172904880Y-99439465D01*
X172751995Y-99668273D01*
X172646686Y-99922510D01*
X172593000Y-100192408D01*
X172593000Y-100467592D01*
X172646686Y-100737490D01*
X172751995Y-100991727D01*
X172904880Y-101220535D01*
X173099465Y-101415120D01*
X173328273Y-101568005D01*
X173405515Y-101600000D01*
X173328273Y-101631995D01*
X173099465Y-101784880D01*
X172904880Y-101979465D01*
X172751995Y-102208273D01*
X172646686Y-102462510D01*
X172593000Y-102732408D01*
X172593000Y-103007592D01*
X172646686Y-103277490D01*
X172751995Y-103531727D01*
X172904880Y-103760535D01*
X173099465Y-103955120D01*
X173328273Y-104108005D01*
X173405515Y-104140000D01*
X173328273Y-104171995D01*
X173099465Y-104324880D01*
X172904880Y-104519465D01*
X172751995Y-104748273D01*
X172646686Y-105002510D01*
X172593000Y-105272408D01*
X172593000Y-105547592D01*
X172646686Y-105817490D01*
X172751995Y-106071727D01*
X172904880Y-106300535D01*
X173099465Y-106495120D01*
X173328273Y-106648005D01*
X173405515Y-106680000D01*
X173328273Y-106711995D01*
X173099465Y-106864880D01*
X172904880Y-107059465D01*
X172751995Y-107288273D01*
X172646686Y-107542510D01*
X172593000Y-107812408D01*
X172593000Y-108087592D01*
X172646686Y-108357490D01*
X172751995Y-108611727D01*
X172904880Y-108840535D01*
X173099465Y-109035120D01*
X173328273Y-109188005D01*
X173405515Y-109220000D01*
X173328273Y-109251995D01*
X173099465Y-109404880D01*
X172904880Y-109599465D01*
X172751995Y-109828273D01*
X172646686Y-110082510D01*
X172593000Y-110352408D01*
X172593000Y-110627592D01*
X172646686Y-110897490D01*
X172751995Y-111151727D01*
X172904880Y-111380535D01*
X173099465Y-111575120D01*
X173328273Y-111728005D01*
X173405515Y-111760000D01*
X173328273Y-111791995D01*
X173099465Y-111944880D01*
X172904880Y-112139465D01*
X172751995Y-112368273D01*
X172646686Y-112622510D01*
X172593000Y-112892408D01*
X172593000Y-113167592D01*
X172646686Y-113437490D01*
X172751995Y-113691727D01*
X172904880Y-113920535D01*
X173099465Y-114115120D01*
X173328273Y-114268005D01*
X173405515Y-114300000D01*
X173328273Y-114331995D01*
X173099465Y-114484880D01*
X172904880Y-114679465D01*
X172751995Y-114908273D01*
X172646686Y-115162510D01*
X172593000Y-115432408D01*
X172593000Y-115707592D01*
X172646686Y-115977490D01*
X172751995Y-116231727D01*
X172904880Y-116460535D01*
X173099465Y-116655120D01*
X173328273Y-116808005D01*
X173405515Y-116840000D01*
X173328273Y-116871995D01*
X173099465Y-117024880D01*
X172904880Y-117219465D01*
X172751995Y-117448273D01*
X172646686Y-117702510D01*
X172593000Y-117972408D01*
X172593000Y-118247592D01*
X172646686Y-118517490D01*
X172751995Y-118771727D01*
X172904880Y-119000535D01*
X173099465Y-119195120D01*
X173328273Y-119348005D01*
X173405515Y-119380000D01*
X173328273Y-119411995D01*
X173099465Y-119564880D01*
X172904880Y-119759465D01*
X172751995Y-119988273D01*
X172646686Y-120242510D01*
X172593000Y-120512408D01*
X172593000Y-120787592D01*
X172646686Y-121057490D01*
X172751995Y-121311727D01*
X172904880Y-121540535D01*
X173099465Y-121735120D01*
X173328273Y-121888005D01*
X173405515Y-121920000D01*
X173328273Y-121951995D01*
X173099465Y-122104880D01*
X172904880Y-122299465D01*
X172751995Y-122528273D01*
X172646686Y-122782510D01*
X172593000Y-123052408D01*
X172593000Y-123327592D01*
X172646686Y-123597490D01*
X172751995Y-123851727D01*
X172904880Y-124080535D01*
X173099465Y-124275120D01*
X173328273Y-124428005D01*
X173399943Y-124457692D01*
X173386977Y-124462364D01*
X173271020Y-124524344D01*
X173204040Y-124764435D01*
X173990000Y-125550395D01*
X174775960Y-124764435D01*
X174708980Y-124524344D01*
X174573240Y-124460515D01*
X174651727Y-124428005D01*
X174880535Y-124275120D01*
X175075120Y-124080535D01*
X175228005Y-123851727D01*
X175333314Y-123597490D01*
X175387000Y-123327592D01*
X175387000Y-123052408D01*
X175333314Y-122782510D01*
X175228005Y-122528273D01*
X175075120Y-122299465D01*
X175052546Y-122276891D01*
X181438519Y-122276891D01*
X181535843Y-122551252D01*
X181684822Y-122801355D01*
X181879731Y-123017588D01*
X182113080Y-123191641D01*
X182375901Y-123316825D01*
X182523110Y-123361476D01*
X182753000Y-123240155D01*
X182753000Y-122047000D01*
X183007000Y-122047000D01*
X183007000Y-123240155D01*
X183236890Y-123361476D01*
X183384099Y-123316825D01*
X183646920Y-123191641D01*
X183880269Y-123017588D01*
X184075178Y-122801355D01*
X184224157Y-122551252D01*
X184321481Y-122276891D01*
X184200814Y-122047000D01*
X183007000Y-122047000D01*
X182753000Y-122047000D01*
X181559186Y-122047000D01*
X181438519Y-122276891D01*
X175052546Y-122276891D01*
X174880535Y-122104880D01*
X174651727Y-121951995D01*
X174574485Y-121920000D01*
X174651727Y-121888005D01*
X174880535Y-121735120D01*
X175052546Y-121563109D01*
X181438519Y-121563109D01*
X181559186Y-121793000D01*
X182753000Y-121793000D01*
X182753000Y-120599845D01*
X183007000Y-120599845D01*
X183007000Y-121793000D01*
X184200814Y-121793000D01*
X184210923Y-121773740D01*
X186475000Y-121773740D01*
X186475000Y-122066260D01*
X186532068Y-122353158D01*
X186644010Y-122623411D01*
X186806525Y-122866632D01*
X187013368Y-123073475D01*
X187256589Y-123235990D01*
X187526842Y-123347932D01*
X187813740Y-123405000D01*
X188106260Y-123405000D01*
X188393158Y-123347932D01*
X188663411Y-123235990D01*
X188906632Y-123073475D01*
X189038487Y-122941620D01*
X189060498Y-123014180D01*
X189119463Y-123124494D01*
X189198815Y-123221185D01*
X189295506Y-123300537D01*
X189405820Y-123359502D01*
X189525518Y-123395812D01*
X189650000Y-123408072D01*
X191350000Y-123408072D01*
X191474482Y-123395812D01*
X191594180Y-123359502D01*
X191704494Y-123300537D01*
X191801185Y-123221185D01*
X191880537Y-123124494D01*
X191939502Y-123014180D01*
X191975812Y-122894482D01*
X191988072Y-122770000D01*
X191988072Y-121070000D01*
X191975812Y-120945518D01*
X191939502Y-120825820D01*
X191880537Y-120715506D01*
X191801185Y-120618815D01*
X191704494Y-120539463D01*
X191594180Y-120480498D01*
X191474482Y-120444188D01*
X191350000Y-120431928D01*
X189650000Y-120431928D01*
X189525518Y-120444188D01*
X189405820Y-120480498D01*
X189295506Y-120539463D01*
X189198815Y-120618815D01*
X189119463Y-120715506D01*
X189060498Y-120825820D01*
X189038487Y-120898380D01*
X188906632Y-120766525D01*
X188663411Y-120604010D01*
X188393158Y-120492068D01*
X188106260Y-120435000D01*
X187813740Y-120435000D01*
X187526842Y-120492068D01*
X187256589Y-120604010D01*
X187013368Y-120766525D01*
X186806525Y-120973368D01*
X186644010Y-121216589D01*
X186532068Y-121486842D01*
X186475000Y-121773740D01*
X184210923Y-121773740D01*
X184321481Y-121563109D01*
X184224157Y-121288748D01*
X184075178Y-121038645D01*
X183880269Y-120822412D01*
X183646920Y-120648359D01*
X183384099Y-120523175D01*
X183236890Y-120478524D01*
X183007000Y-120599845D01*
X182753000Y-120599845D01*
X182523110Y-120478524D01*
X182375901Y-120523175D01*
X182113080Y-120648359D01*
X181879731Y-120822412D01*
X181684822Y-121038645D01*
X181535843Y-121288748D01*
X181438519Y-121563109D01*
X175052546Y-121563109D01*
X175075120Y-121540535D01*
X175228005Y-121311727D01*
X175333314Y-121057490D01*
X175387000Y-120787592D01*
X175387000Y-120512408D01*
X175333314Y-120242510D01*
X175228005Y-119988273D01*
X175075120Y-119759465D01*
X174880535Y-119564880D01*
X174651727Y-119411995D01*
X174574485Y-119380000D01*
X174651727Y-119348005D01*
X174880535Y-119195120D01*
X175075120Y-119000535D01*
X175228005Y-118771727D01*
X175333314Y-118517490D01*
X175387000Y-118247592D01*
X175387000Y-117972408D01*
X175333314Y-117702510D01*
X175228005Y-117448273D01*
X175075120Y-117219465D01*
X174880535Y-117024880D01*
X174651727Y-116871995D01*
X174574485Y-116840000D01*
X174651727Y-116808005D01*
X174880535Y-116655120D01*
X175075120Y-116460535D01*
X175228005Y-116231727D01*
X175333314Y-115977490D01*
X175387000Y-115707592D01*
X175387000Y-115432408D01*
X175333314Y-115162510D01*
X175228005Y-114908273D01*
X175075120Y-114679465D01*
X174880535Y-114484880D01*
X174651727Y-114331995D01*
X174574485Y-114300000D01*
X174651727Y-114268005D01*
X174880535Y-114115120D01*
X175075120Y-113920535D01*
X175228005Y-113691727D01*
X175333314Y-113437490D01*
X175387000Y-113167592D01*
X175387000Y-112892408D01*
X175333314Y-112622510D01*
X175228005Y-112368273D01*
X175075120Y-112139465D01*
X175052546Y-112116891D01*
X181438519Y-112116891D01*
X181535843Y-112391252D01*
X181684822Y-112641355D01*
X181879731Y-112857588D01*
X182113080Y-113031641D01*
X182375901Y-113156825D01*
X182523110Y-113201476D01*
X182753000Y-113080155D01*
X182753000Y-111887000D01*
X183007000Y-111887000D01*
X183007000Y-113080155D01*
X183236890Y-113201476D01*
X183384099Y-113156825D01*
X183646920Y-113031641D01*
X183880269Y-112857588D01*
X184075178Y-112641355D01*
X184224157Y-112391252D01*
X184321481Y-112116891D01*
X184200814Y-111887000D01*
X183007000Y-111887000D01*
X182753000Y-111887000D01*
X181559186Y-111887000D01*
X181438519Y-112116891D01*
X175052546Y-112116891D01*
X174880535Y-111944880D01*
X174651727Y-111791995D01*
X174574485Y-111760000D01*
X174651727Y-111728005D01*
X174880535Y-111575120D01*
X175052546Y-111403109D01*
X181438519Y-111403109D01*
X181559186Y-111633000D01*
X182753000Y-111633000D01*
X182753000Y-110439845D01*
X183007000Y-110439845D01*
X183007000Y-111633000D01*
X184200814Y-111633000D01*
X184210923Y-111613740D01*
X186475000Y-111613740D01*
X186475000Y-111906260D01*
X186532068Y-112193158D01*
X186644010Y-112463411D01*
X186806525Y-112706632D01*
X187013368Y-112913475D01*
X187256589Y-113075990D01*
X187526842Y-113187932D01*
X187813740Y-113245000D01*
X188106260Y-113245000D01*
X188393158Y-113187932D01*
X188663411Y-113075990D01*
X188906632Y-112913475D01*
X189038487Y-112781620D01*
X189060498Y-112854180D01*
X189119463Y-112964494D01*
X189198815Y-113061185D01*
X189295506Y-113140537D01*
X189405820Y-113199502D01*
X189525518Y-113235812D01*
X189650000Y-113248072D01*
X191350000Y-113248072D01*
X191474482Y-113235812D01*
X191594180Y-113199502D01*
X191704494Y-113140537D01*
X191801185Y-113061185D01*
X191880537Y-112964494D01*
X191939502Y-112854180D01*
X191975812Y-112734482D01*
X191988072Y-112610000D01*
X191988072Y-110910000D01*
X191975812Y-110785518D01*
X191939502Y-110665820D01*
X191880537Y-110555506D01*
X191801185Y-110458815D01*
X191704494Y-110379463D01*
X191594180Y-110320498D01*
X191474482Y-110284188D01*
X191350000Y-110271928D01*
X189650000Y-110271928D01*
X189525518Y-110284188D01*
X189405820Y-110320498D01*
X189295506Y-110379463D01*
X189198815Y-110458815D01*
X189119463Y-110555506D01*
X189060498Y-110665820D01*
X189038487Y-110738380D01*
X188906632Y-110606525D01*
X188663411Y-110444010D01*
X188393158Y-110332068D01*
X188106260Y-110275000D01*
X187813740Y-110275000D01*
X187526842Y-110332068D01*
X187256589Y-110444010D01*
X187013368Y-110606525D01*
X186806525Y-110813368D01*
X186644010Y-111056589D01*
X186532068Y-111326842D01*
X186475000Y-111613740D01*
X184210923Y-111613740D01*
X184321481Y-111403109D01*
X184224157Y-111128748D01*
X184075178Y-110878645D01*
X183880269Y-110662412D01*
X183646920Y-110488359D01*
X183384099Y-110363175D01*
X183236890Y-110318524D01*
X183007000Y-110439845D01*
X182753000Y-110439845D01*
X182523110Y-110318524D01*
X182375901Y-110363175D01*
X182113080Y-110488359D01*
X181879731Y-110662412D01*
X181684822Y-110878645D01*
X181535843Y-111128748D01*
X181438519Y-111403109D01*
X175052546Y-111403109D01*
X175075120Y-111380535D01*
X175228005Y-111151727D01*
X175333314Y-110897490D01*
X175387000Y-110627592D01*
X175387000Y-110352408D01*
X175333314Y-110082510D01*
X175228005Y-109828273D01*
X175075120Y-109599465D01*
X174880535Y-109404880D01*
X174651727Y-109251995D01*
X174574485Y-109220000D01*
X174651727Y-109188005D01*
X174880535Y-109035120D01*
X175075120Y-108840535D01*
X175228005Y-108611727D01*
X175333314Y-108357490D01*
X175387000Y-108087592D01*
X175387000Y-107812408D01*
X175333314Y-107542510D01*
X175228005Y-107288273D01*
X175075120Y-107059465D01*
X174880535Y-106864880D01*
X174651727Y-106711995D01*
X174574485Y-106680000D01*
X174651727Y-106648005D01*
X174880535Y-106495120D01*
X175075120Y-106300535D01*
X175228005Y-106071727D01*
X175333314Y-105817490D01*
X175387000Y-105547592D01*
X175387000Y-105272408D01*
X175333314Y-105002510D01*
X175228005Y-104748273D01*
X175075120Y-104519465D01*
X174880535Y-104324880D01*
X174651727Y-104171995D01*
X174574485Y-104140000D01*
X174651727Y-104108005D01*
X174880535Y-103955120D01*
X175075120Y-103760535D01*
X175228005Y-103531727D01*
X175333314Y-103277490D01*
X175387000Y-103007592D01*
X175387000Y-102732408D01*
X175333314Y-102462510D01*
X175228005Y-102208273D01*
X175075120Y-101979465D01*
X175052546Y-101956891D01*
X181438519Y-101956891D01*
X181535843Y-102231252D01*
X181684822Y-102481355D01*
X181879731Y-102697588D01*
X182113080Y-102871641D01*
X182375901Y-102996825D01*
X182523110Y-103041476D01*
X182753000Y-102920155D01*
X182753000Y-101727000D01*
X183007000Y-101727000D01*
X183007000Y-102920155D01*
X183236890Y-103041476D01*
X183384099Y-102996825D01*
X183646920Y-102871641D01*
X183880269Y-102697588D01*
X184075178Y-102481355D01*
X184224157Y-102231252D01*
X184321481Y-101956891D01*
X184200814Y-101727000D01*
X183007000Y-101727000D01*
X182753000Y-101727000D01*
X181559186Y-101727000D01*
X181438519Y-101956891D01*
X175052546Y-101956891D01*
X174880535Y-101784880D01*
X174651727Y-101631995D01*
X174574485Y-101600000D01*
X174651727Y-101568005D01*
X174880535Y-101415120D01*
X175052546Y-101243109D01*
X181438519Y-101243109D01*
X181559186Y-101473000D01*
X182753000Y-101473000D01*
X182753000Y-100279845D01*
X183007000Y-100279845D01*
X183007000Y-101473000D01*
X184200814Y-101473000D01*
X184210923Y-101453740D01*
X186475000Y-101453740D01*
X186475000Y-101746260D01*
X186532068Y-102033158D01*
X186644010Y-102303411D01*
X186806525Y-102546632D01*
X187013368Y-102753475D01*
X187256589Y-102915990D01*
X187526842Y-103027932D01*
X187813740Y-103085000D01*
X188106260Y-103085000D01*
X188393158Y-103027932D01*
X188663411Y-102915990D01*
X188906632Y-102753475D01*
X189038487Y-102621620D01*
X189060498Y-102694180D01*
X189119463Y-102804494D01*
X189198815Y-102901185D01*
X189295506Y-102980537D01*
X189405820Y-103039502D01*
X189525518Y-103075812D01*
X189650000Y-103088072D01*
X191350000Y-103088072D01*
X191474482Y-103075812D01*
X191594180Y-103039502D01*
X191704494Y-102980537D01*
X191801185Y-102901185D01*
X191880537Y-102804494D01*
X191939502Y-102694180D01*
X191975812Y-102574482D01*
X191988072Y-102450000D01*
X191988072Y-100750000D01*
X191975812Y-100625518D01*
X191939502Y-100505820D01*
X191880537Y-100395506D01*
X191801185Y-100298815D01*
X191704494Y-100219463D01*
X191594180Y-100160498D01*
X191474482Y-100124188D01*
X191350000Y-100111928D01*
X189650000Y-100111928D01*
X189525518Y-100124188D01*
X189405820Y-100160498D01*
X189295506Y-100219463D01*
X189198815Y-100298815D01*
X189119463Y-100395506D01*
X189060498Y-100505820D01*
X189038487Y-100578380D01*
X188906632Y-100446525D01*
X188663411Y-100284010D01*
X188393158Y-100172068D01*
X188106260Y-100115000D01*
X187813740Y-100115000D01*
X187526842Y-100172068D01*
X187256589Y-100284010D01*
X187013368Y-100446525D01*
X186806525Y-100653368D01*
X186644010Y-100896589D01*
X186532068Y-101166842D01*
X186475000Y-101453740D01*
X184210923Y-101453740D01*
X184321481Y-101243109D01*
X184224157Y-100968748D01*
X184075178Y-100718645D01*
X183880269Y-100502412D01*
X183646920Y-100328359D01*
X183384099Y-100203175D01*
X183236890Y-100158524D01*
X183007000Y-100279845D01*
X182753000Y-100279845D01*
X182523110Y-100158524D01*
X182375901Y-100203175D01*
X182113080Y-100328359D01*
X181879731Y-100502412D01*
X181684822Y-100718645D01*
X181535843Y-100968748D01*
X181438519Y-101243109D01*
X175052546Y-101243109D01*
X175075120Y-101220535D01*
X175228005Y-100991727D01*
X175333314Y-100737490D01*
X175387000Y-100467592D01*
X175387000Y-100192408D01*
X175333314Y-99922510D01*
X175228005Y-99668273D01*
X175075120Y-99439465D01*
X174880535Y-99244880D01*
X174651727Y-99091995D01*
X174574485Y-99060000D01*
X174651727Y-99028005D01*
X174880535Y-98875120D01*
X175075120Y-98680535D01*
X175228005Y-98451727D01*
X175333314Y-98197490D01*
X175387000Y-97927592D01*
X175387000Y-97652408D01*
X175333314Y-97382510D01*
X175228005Y-97128273D01*
X175075120Y-96899465D01*
X174880535Y-96704880D01*
X174651727Y-96551995D01*
X174574485Y-96520000D01*
X174651727Y-96488005D01*
X174880535Y-96335120D01*
X175075120Y-96140535D01*
X175228005Y-95911727D01*
X175333314Y-95657490D01*
X175387000Y-95387592D01*
X175387000Y-95112408D01*
X175333314Y-94842510D01*
X175228005Y-94588273D01*
X175075120Y-94359465D01*
X174880535Y-94164880D01*
X174651727Y-94011995D01*
X174574485Y-93980000D01*
X174651727Y-93948005D01*
X174880535Y-93795120D01*
X175075120Y-93600535D01*
X175228005Y-93371727D01*
X175333314Y-93117490D01*
X175387000Y-92847592D01*
X175387000Y-92572408D01*
X175333314Y-92302510D01*
X175228005Y-92048273D01*
X175075120Y-91819465D01*
X175052546Y-91796891D01*
X181438519Y-91796891D01*
X181535843Y-92071252D01*
X181684822Y-92321355D01*
X181879731Y-92537588D01*
X182113080Y-92711641D01*
X182375901Y-92836825D01*
X182523110Y-92881476D01*
X182753000Y-92760155D01*
X182753000Y-91567000D01*
X183007000Y-91567000D01*
X183007000Y-92760155D01*
X183236890Y-92881476D01*
X183384099Y-92836825D01*
X183646920Y-92711641D01*
X183880269Y-92537588D01*
X184075178Y-92321355D01*
X184224157Y-92071252D01*
X184321481Y-91796891D01*
X184200814Y-91567000D01*
X183007000Y-91567000D01*
X182753000Y-91567000D01*
X181559186Y-91567000D01*
X181438519Y-91796891D01*
X175052546Y-91796891D01*
X174880535Y-91624880D01*
X174651727Y-91471995D01*
X174397490Y-91366686D01*
X174127592Y-91313000D01*
X173852408Y-91313000D01*
X173582510Y-91366686D01*
X173328273Y-91471995D01*
X173099465Y-91624880D01*
X172904880Y-91819465D01*
X172751995Y-92048273D01*
X172646686Y-92302510D01*
X172593000Y-92572408D01*
X149990072Y-92572408D01*
X149990072Y-91948000D01*
X149977812Y-91823518D01*
X149941502Y-91703820D01*
X149882537Y-91593506D01*
X149803185Y-91496815D01*
X149706494Y-91417463D01*
X149596180Y-91358498D01*
X149476482Y-91322188D01*
X149352000Y-91309928D01*
X147828000Y-91309928D01*
X147703518Y-91322188D01*
X147583820Y-91358498D01*
X147473506Y-91417463D01*
X147376815Y-91496815D01*
X147297463Y-91593506D01*
X147238498Y-91703820D01*
X147202188Y-91823518D01*
X147189928Y-91948000D01*
X146177000Y-91948000D01*
X146177000Y-91083109D01*
X181438519Y-91083109D01*
X181559186Y-91313000D01*
X182753000Y-91313000D01*
X182753000Y-90119845D01*
X183007000Y-90119845D01*
X183007000Y-91313000D01*
X184200814Y-91313000D01*
X184210923Y-91293740D01*
X186475000Y-91293740D01*
X186475000Y-91586260D01*
X186532068Y-91873158D01*
X186644010Y-92143411D01*
X186806525Y-92386632D01*
X187013368Y-92593475D01*
X187256589Y-92755990D01*
X187526842Y-92867932D01*
X187813740Y-92925000D01*
X188106260Y-92925000D01*
X188393158Y-92867932D01*
X188663411Y-92755990D01*
X188906632Y-92593475D01*
X189038487Y-92461620D01*
X189060498Y-92534180D01*
X189119463Y-92644494D01*
X189198815Y-92741185D01*
X189295506Y-92820537D01*
X189405820Y-92879502D01*
X189525518Y-92915812D01*
X189650000Y-92928072D01*
X191350000Y-92928072D01*
X191474482Y-92915812D01*
X191594180Y-92879502D01*
X191704494Y-92820537D01*
X191801185Y-92741185D01*
X191880537Y-92644494D01*
X191939502Y-92534180D01*
X191975812Y-92414482D01*
X191988072Y-92290000D01*
X191988072Y-90590000D01*
X191975812Y-90465518D01*
X191939502Y-90345820D01*
X191880537Y-90235506D01*
X191801185Y-90138815D01*
X191704494Y-90059463D01*
X191594180Y-90000498D01*
X191474482Y-89964188D01*
X191350000Y-89951928D01*
X189650000Y-89951928D01*
X189525518Y-89964188D01*
X189405820Y-90000498D01*
X189295506Y-90059463D01*
X189198815Y-90138815D01*
X189119463Y-90235506D01*
X189060498Y-90345820D01*
X189038487Y-90418380D01*
X188906632Y-90286525D01*
X188663411Y-90124010D01*
X188393158Y-90012068D01*
X188106260Y-89955000D01*
X187813740Y-89955000D01*
X187526842Y-90012068D01*
X187256589Y-90124010D01*
X187013368Y-90286525D01*
X186806525Y-90493368D01*
X186644010Y-90736589D01*
X186532068Y-91006842D01*
X186475000Y-91293740D01*
X184210923Y-91293740D01*
X184321481Y-91083109D01*
X184224157Y-90808748D01*
X184075178Y-90558645D01*
X183880269Y-90342412D01*
X183646920Y-90168359D01*
X183384099Y-90043175D01*
X183236890Y-89998524D01*
X183007000Y-90119845D01*
X182753000Y-90119845D01*
X182523110Y-89998524D01*
X182375901Y-90043175D01*
X182113080Y-90168359D01*
X181879731Y-90342412D01*
X181684822Y-90558645D01*
X181535843Y-90808748D01*
X181438519Y-91083109D01*
X146177000Y-91083109D01*
X146177000Y-84041555D01*
X146387912Y-84357207D01*
X146782793Y-84752088D01*
X147247124Y-85062344D01*
X147763061Y-85276052D01*
X148310777Y-85385000D01*
X148869223Y-85385000D01*
X149416939Y-85276052D01*
X149932876Y-85062344D01*
X150397207Y-84752088D01*
X150792088Y-84357207D01*
X151102344Y-83892876D01*
X151316052Y-83376939D01*
X151425000Y-82829223D01*
X151425000Y-82270777D01*
X171155000Y-82270777D01*
X171155000Y-82829223D01*
X171263948Y-83376939D01*
X171477656Y-83892876D01*
X171787912Y-84357207D01*
X172182793Y-84752088D01*
X172647124Y-85062344D01*
X173163061Y-85276052D01*
X173710777Y-85385000D01*
X174269223Y-85385000D01*
X174816939Y-85276052D01*
X175332876Y-85062344D01*
X175797207Y-84752088D01*
X176192088Y-84357207D01*
X176502344Y-83892876D01*
X176716052Y-83376939D01*
X176825000Y-82829223D01*
X176825000Y-82270777D01*
X176716052Y-81723061D01*
X176502344Y-81207124D01*
X176192088Y-80742793D01*
X175816186Y-80366891D01*
X181438519Y-80366891D01*
X181535843Y-80641252D01*
X181684822Y-80891355D01*
X181879731Y-81107588D01*
X182113080Y-81281641D01*
X182375901Y-81406825D01*
X182523110Y-81451476D01*
X182753000Y-81330155D01*
X182753000Y-80137000D01*
X183007000Y-80137000D01*
X183007000Y-81330155D01*
X183236890Y-81451476D01*
X183384099Y-81406825D01*
X183646920Y-81281641D01*
X183880269Y-81107588D01*
X184075178Y-80891355D01*
X184224157Y-80641252D01*
X184321481Y-80366891D01*
X184200814Y-80137000D01*
X183007000Y-80137000D01*
X182753000Y-80137000D01*
X181559186Y-80137000D01*
X181438519Y-80366891D01*
X175816186Y-80366891D01*
X175797207Y-80347912D01*
X175332876Y-80037656D01*
X174816939Y-79823948D01*
X174269223Y-79715000D01*
X173710777Y-79715000D01*
X173163061Y-79823948D01*
X172647124Y-80037656D01*
X172182793Y-80347912D01*
X171787912Y-80742793D01*
X171477656Y-81207124D01*
X171263948Y-81723061D01*
X171155000Y-82270777D01*
X151425000Y-82270777D01*
X151316052Y-81723061D01*
X151102344Y-81207124D01*
X150792088Y-80742793D01*
X150397207Y-80347912D01*
X149932876Y-80037656D01*
X149416939Y-79823948D01*
X148869223Y-79715000D01*
X148310777Y-79715000D01*
X147763061Y-79823948D01*
X147247124Y-80037656D01*
X146782793Y-80347912D01*
X146387912Y-80742793D01*
X146177000Y-81058445D01*
X146177000Y-79653109D01*
X181438519Y-79653109D01*
X181559186Y-79883000D01*
X182753000Y-79883000D01*
X182753000Y-78689845D01*
X183007000Y-78689845D01*
X183007000Y-79883000D01*
X184200814Y-79883000D01*
X184210923Y-79863740D01*
X186475000Y-79863740D01*
X186475000Y-80156260D01*
X186532068Y-80443158D01*
X186644010Y-80713411D01*
X186806525Y-80956632D01*
X187013368Y-81163475D01*
X187256589Y-81325990D01*
X187526842Y-81437932D01*
X187813740Y-81495000D01*
X188106260Y-81495000D01*
X188393158Y-81437932D01*
X188663411Y-81325990D01*
X188906632Y-81163475D01*
X189038487Y-81031620D01*
X189060498Y-81104180D01*
X189119463Y-81214494D01*
X189198815Y-81311185D01*
X189295506Y-81390537D01*
X189405820Y-81449502D01*
X189525518Y-81485812D01*
X189650000Y-81498072D01*
X191350000Y-81498072D01*
X191474482Y-81485812D01*
X191594180Y-81449502D01*
X191704494Y-81390537D01*
X191801185Y-81311185D01*
X191880537Y-81214494D01*
X191939502Y-81104180D01*
X191975812Y-80984482D01*
X191988072Y-80860000D01*
X191988072Y-79160000D01*
X191975812Y-79035518D01*
X191939502Y-78915820D01*
X191880537Y-78805506D01*
X191801185Y-78708815D01*
X191704494Y-78629463D01*
X191594180Y-78570498D01*
X191474482Y-78534188D01*
X191350000Y-78521928D01*
X189650000Y-78521928D01*
X189525518Y-78534188D01*
X189405820Y-78570498D01*
X189295506Y-78629463D01*
X189198815Y-78708815D01*
X189119463Y-78805506D01*
X189060498Y-78915820D01*
X189038487Y-78988380D01*
X188906632Y-78856525D01*
X188663411Y-78694010D01*
X188393158Y-78582068D01*
X188106260Y-78525000D01*
X187813740Y-78525000D01*
X187526842Y-78582068D01*
X187256589Y-78694010D01*
X187013368Y-78856525D01*
X186806525Y-79063368D01*
X186644010Y-79306589D01*
X186532068Y-79576842D01*
X186475000Y-79863740D01*
X184210923Y-79863740D01*
X184321481Y-79653109D01*
X184224157Y-79378748D01*
X184075178Y-79128645D01*
X183880269Y-78912412D01*
X183646920Y-78738359D01*
X183384099Y-78613175D01*
X183236890Y-78568524D01*
X183007000Y-78689845D01*
X182753000Y-78689845D01*
X182523110Y-78568524D01*
X182375901Y-78613175D01*
X182113080Y-78738359D01*
X181879731Y-78912412D01*
X181684822Y-79128645D01*
X181535843Y-79378748D01*
X181438519Y-79653109D01*
X146177000Y-79653109D01*
X146177000Y-67190000D01*
X151641928Y-67190000D01*
X151641928Y-69970000D01*
X151654188Y-70094482D01*
X151690498Y-70214180D01*
X151749463Y-70324494D01*
X151828815Y-70421185D01*
X151925506Y-70500537D01*
X152035820Y-70559502D01*
X152155518Y-70595812D01*
X152280000Y-70608072D01*
X155060000Y-70608072D01*
X155184482Y-70595812D01*
X155304180Y-70559502D01*
X155414494Y-70500537D01*
X155511185Y-70421185D01*
X155590537Y-70324494D01*
X155649502Y-70214180D01*
X155685812Y-70094482D01*
X155695774Y-69993325D01*
X157516280Y-69993325D01*
X157659052Y-70297625D01*
X158015107Y-70477455D01*
X158399402Y-70584366D01*
X158797171Y-70614251D01*
X159193128Y-70565961D01*
X159572055Y-70441352D01*
X159840948Y-70297625D01*
X159983720Y-69993325D01*
X162596280Y-69993325D01*
X162739052Y-70297625D01*
X163095107Y-70477455D01*
X163479402Y-70584366D01*
X163877171Y-70614251D01*
X164273128Y-70565961D01*
X164652055Y-70441352D01*
X164920948Y-70297625D01*
X165063720Y-69993325D01*
X163830000Y-68759605D01*
X162596280Y-69993325D01*
X159983720Y-69993325D01*
X158750000Y-68759605D01*
X157516280Y-69993325D01*
X155695774Y-69993325D01*
X155698072Y-69970000D01*
X155698072Y-68627171D01*
X156715749Y-68627171D01*
X156764039Y-69023128D01*
X156888648Y-69402055D01*
X157032375Y-69670948D01*
X157336675Y-69813720D01*
X158570395Y-68580000D01*
X158929605Y-68580000D01*
X160163325Y-69813720D01*
X160467625Y-69670948D01*
X160647455Y-69314893D01*
X160754366Y-68930598D01*
X160777162Y-68627171D01*
X161795749Y-68627171D01*
X161844039Y-69023128D01*
X161968648Y-69402055D01*
X162112375Y-69670948D01*
X162416675Y-69813720D01*
X163650395Y-68580000D01*
X164009605Y-68580000D01*
X165243325Y-69813720D01*
X165547625Y-69670948D01*
X165727455Y-69314893D01*
X165834366Y-68930598D01*
X165864251Y-68532829D01*
X165845681Y-68380555D01*
X166885000Y-68380555D01*
X166885000Y-68779445D01*
X166962820Y-69170671D01*
X167115468Y-69539197D01*
X167337080Y-69870862D01*
X167619138Y-70152920D01*
X167950803Y-70374532D01*
X168319329Y-70527180D01*
X168710555Y-70605000D01*
X169109445Y-70605000D01*
X169500671Y-70527180D01*
X169869197Y-70374532D01*
X170120088Y-70206891D01*
X181438519Y-70206891D01*
X181535843Y-70481252D01*
X181684822Y-70731355D01*
X181879731Y-70947588D01*
X182113080Y-71121641D01*
X182375901Y-71246825D01*
X182523110Y-71291476D01*
X182753000Y-71170155D01*
X182753000Y-69977000D01*
X183007000Y-69977000D01*
X183007000Y-71170155D01*
X183236890Y-71291476D01*
X183384099Y-71246825D01*
X183646920Y-71121641D01*
X183880269Y-70947588D01*
X184075178Y-70731355D01*
X184224157Y-70481252D01*
X184321481Y-70206891D01*
X184200814Y-69977000D01*
X183007000Y-69977000D01*
X182753000Y-69977000D01*
X181559186Y-69977000D01*
X181438519Y-70206891D01*
X170120088Y-70206891D01*
X170200862Y-70152920D01*
X170482920Y-69870862D01*
X170704532Y-69539197D01*
X170723622Y-69493109D01*
X181438519Y-69493109D01*
X181559186Y-69723000D01*
X182753000Y-69723000D01*
X182753000Y-68529845D01*
X183007000Y-68529845D01*
X183007000Y-69723000D01*
X184200814Y-69723000D01*
X184210923Y-69703740D01*
X186475000Y-69703740D01*
X186475000Y-69996260D01*
X186532068Y-70283158D01*
X186644010Y-70553411D01*
X186806525Y-70796632D01*
X187013368Y-71003475D01*
X187256589Y-71165990D01*
X187526842Y-71277932D01*
X187813740Y-71335000D01*
X188106260Y-71335000D01*
X188393158Y-71277932D01*
X188663411Y-71165990D01*
X188906632Y-71003475D01*
X189038487Y-70871620D01*
X189060498Y-70944180D01*
X189119463Y-71054494D01*
X189198815Y-71151185D01*
X189295506Y-71230537D01*
X189405820Y-71289502D01*
X189525518Y-71325812D01*
X189650000Y-71338072D01*
X191350000Y-71338072D01*
X191474482Y-71325812D01*
X191594180Y-71289502D01*
X191704494Y-71230537D01*
X191801185Y-71151185D01*
X191880537Y-71054494D01*
X191939502Y-70944180D01*
X191975812Y-70824482D01*
X191988072Y-70700000D01*
X191988072Y-69000000D01*
X191975812Y-68875518D01*
X191939502Y-68755820D01*
X191880537Y-68645506D01*
X191801185Y-68548815D01*
X191704494Y-68469463D01*
X191594180Y-68410498D01*
X191474482Y-68374188D01*
X191350000Y-68361928D01*
X189650000Y-68361928D01*
X189525518Y-68374188D01*
X189405820Y-68410498D01*
X189295506Y-68469463D01*
X189198815Y-68548815D01*
X189119463Y-68645506D01*
X189060498Y-68755820D01*
X189038487Y-68828380D01*
X188906632Y-68696525D01*
X188663411Y-68534010D01*
X188393158Y-68422068D01*
X188106260Y-68365000D01*
X187813740Y-68365000D01*
X187526842Y-68422068D01*
X187256589Y-68534010D01*
X187013368Y-68696525D01*
X186806525Y-68903368D01*
X186644010Y-69146589D01*
X186532068Y-69416842D01*
X186475000Y-69703740D01*
X184210923Y-69703740D01*
X184321481Y-69493109D01*
X184224157Y-69218748D01*
X184075178Y-68968645D01*
X183880269Y-68752412D01*
X183646920Y-68578359D01*
X183384099Y-68453175D01*
X183236890Y-68408524D01*
X183007000Y-68529845D01*
X182753000Y-68529845D01*
X182523110Y-68408524D01*
X182375901Y-68453175D01*
X182113080Y-68578359D01*
X181879731Y-68752412D01*
X181684822Y-68968645D01*
X181535843Y-69218748D01*
X181438519Y-69493109D01*
X170723622Y-69493109D01*
X170857180Y-69170671D01*
X170935000Y-68779445D01*
X170935000Y-68380555D01*
X170857180Y-67989329D01*
X170704532Y-67620803D01*
X170482920Y-67289138D01*
X170200862Y-67007080D01*
X169869197Y-66785468D01*
X169500671Y-66632820D01*
X169109445Y-66555000D01*
X168710555Y-66555000D01*
X168319329Y-66632820D01*
X167950803Y-66785468D01*
X167619138Y-67007080D01*
X167337080Y-67289138D01*
X167115468Y-67620803D01*
X166962820Y-67989329D01*
X166885000Y-68380555D01*
X165845681Y-68380555D01*
X165815961Y-68136872D01*
X165691352Y-67757945D01*
X165547625Y-67489052D01*
X165243325Y-67346280D01*
X164009605Y-68580000D01*
X163650395Y-68580000D01*
X162416675Y-67346280D01*
X162112375Y-67489052D01*
X161932545Y-67845107D01*
X161825634Y-68229402D01*
X161795749Y-68627171D01*
X160777162Y-68627171D01*
X160784251Y-68532829D01*
X160735961Y-68136872D01*
X160611352Y-67757945D01*
X160467625Y-67489052D01*
X160163325Y-67346280D01*
X158929605Y-68580000D01*
X158570395Y-68580000D01*
X157336675Y-67346280D01*
X157032375Y-67489052D01*
X156852545Y-67845107D01*
X156745634Y-68229402D01*
X156715749Y-68627171D01*
X155698072Y-68627171D01*
X155698072Y-67190000D01*
X155695775Y-67166675D01*
X157516280Y-67166675D01*
X158750000Y-68400395D01*
X159983720Y-67166675D01*
X162596280Y-67166675D01*
X163830000Y-68400395D01*
X165063720Y-67166675D01*
X164920948Y-66862375D01*
X164564893Y-66682545D01*
X164180598Y-66575634D01*
X163782829Y-66545749D01*
X163386872Y-66594039D01*
X163007945Y-66718648D01*
X162739052Y-66862375D01*
X162596280Y-67166675D01*
X159983720Y-67166675D01*
X159840948Y-66862375D01*
X159484893Y-66682545D01*
X159100598Y-66575634D01*
X158702829Y-66545749D01*
X158306872Y-66594039D01*
X157927945Y-66718648D01*
X157659052Y-66862375D01*
X157516280Y-67166675D01*
X155695775Y-67166675D01*
X155685812Y-67065518D01*
X155649502Y-66945820D01*
X155590537Y-66835506D01*
X155511185Y-66738815D01*
X155414494Y-66659463D01*
X155304180Y-66600498D01*
X155184482Y-66564188D01*
X155060000Y-66551928D01*
X152280000Y-66551928D01*
X152155518Y-66564188D01*
X152035820Y-66600498D01*
X151925506Y-66659463D01*
X151828815Y-66738815D01*
X151749463Y-66835506D01*
X151690498Y-66945820D01*
X151654188Y-67065518D01*
X151641928Y-67190000D01*
X146177000Y-67190000D01*
X146177000Y-63627000D01*
X192913000Y-63627000D01*
X192913000Y-144653000D01*
G37*
%TD.AperFunction*%
%TD*%
M02*
