%TF.GenerationSoftware,KiCad,Pcbnew,(5.1.9)-1*%
%TF.CreationDate,2021-03-22T14:40:55+00:00*%
%TF.ProjectId,Controller,436f6e74-726f-46c6-9c65-722e6b696361,rev?*%
%TF.SameCoordinates,Original*%
%TF.FileFunction,Copper,L1,Top*%
%TF.FilePolarity,Positive*%
%FSLAX46Y46*%
G04 Gerber Fmt 4.6, Leading zero omitted, Abs format (unit mm)*
G04 Created by KiCad (PCBNEW (5.1.9)-1) date 2021-03-22 14:40:55*
%MOMM*%
%LPD*%
G01*
G04 APERTURE LIST*
%TA.AperFunction,ComponentPad*%
%ADD10C,4.400000*%
%TD*%
%TA.AperFunction,ComponentPad*%
%ADD11O,1.700000X1.700000*%
%TD*%
%TA.AperFunction,ComponentPad*%
%ADD12R,1.700000X1.700000*%
%TD*%
%TA.AperFunction,SMDPad,CuDef*%
%ADD13R,1.800000X0.450000*%
%TD*%
%TA.AperFunction,ComponentPad*%
%ADD14C,2.780000*%
%TD*%
%TA.AperFunction,ComponentPad*%
%ADD15R,2.780000X2.780000*%
%TD*%
%TA.AperFunction,ComponentPad*%
%ADD16C,1.524000*%
%TD*%
%TA.AperFunction,ComponentPad*%
%ADD17R,1.524000X1.524000*%
%TD*%
%TA.AperFunction,ViaPad*%
%ADD18C,0.800000*%
%TD*%
%TA.AperFunction,Conductor*%
%ADD19C,5.000000*%
%TD*%
%TA.AperFunction,Conductor*%
%ADD20C,0.450000*%
%TD*%
%TA.AperFunction,Conductor*%
%ADD21C,0.250000*%
%TD*%
G04 APERTURE END LIST*
D10*
%TO.P,H4,1*%
%TO.N,N/C*%
X173990000Y-142240000D03*
%TD*%
%TO.P,H3,1*%
%TO.N,N/C*%
X148590000Y-142240000D03*
%TD*%
%TO.P,H2,1*%
%TO.N,N/C*%
X173990000Y-82550000D03*
%TD*%
%TO.P,H1,1*%
%TO.N,N/C*%
X148590000Y-82550000D03*
%TD*%
D11*
%TO.P,J8,3*%
%TO.N,GND*%
X182880000Y-69850000D03*
%TO.P,J8,2*%
%TO.N,/B1*%
X187960000Y-69850000D03*
D12*
%TO.P,J8,1*%
%TO.N,+5V*%
X190500000Y-69850000D03*
%TD*%
D11*
%TO.P,J7,3*%
%TO.N,GND*%
X182880000Y-80010000D03*
%TO.P,J7,2*%
%TO.N,/B2*%
X187960000Y-80010000D03*
D12*
%TO.P,J7,1*%
%TO.N,+5V*%
X190500000Y-80010000D03*
%TD*%
D11*
%TO.P,J6,3*%
%TO.N,GND*%
X182880000Y-91440000D03*
%TO.P,J6,2*%
%TO.N,/B3*%
X187960000Y-91440000D03*
D12*
%TO.P,J6,1*%
%TO.N,+5V*%
X190500000Y-91440000D03*
%TD*%
D11*
%TO.P,J5,3*%
%TO.N,GND*%
X182880000Y-101600000D03*
%TO.P,J5,2*%
%TO.N,/B4*%
X187960000Y-101600000D03*
D12*
%TO.P,J5,1*%
%TO.N,+5V*%
X190500000Y-101600000D03*
%TD*%
D11*
%TO.P,J4,3*%
%TO.N,GND*%
X182880000Y-111760000D03*
%TO.P,J4,2*%
%TO.N,/B5*%
X187960000Y-111760000D03*
D12*
%TO.P,J4,1*%
%TO.N,+5V*%
X190500000Y-111760000D03*
%TD*%
D11*
%TO.P,J3,3*%
%TO.N,GND*%
X182880000Y-121920000D03*
%TO.P,J3,2*%
%TO.N,/B6*%
X187960000Y-121920000D03*
D12*
%TO.P,J3,1*%
%TO.N,+5V*%
X190500000Y-121920000D03*
%TD*%
D11*
%TO.P,J2,3*%
%TO.N,GND*%
X182880000Y-132080000D03*
%TO.P,J2,2*%
%TO.N,/B7*%
X187960000Y-132080000D03*
D12*
%TO.P,J2,1*%
%TO.N,+5V*%
X190500000Y-132080000D03*
%TD*%
D11*
%TO.P,J1,3*%
%TO.N,GND*%
X182880000Y-142240000D03*
%TO.P,J1,2*%
%TO.N,/B8*%
X187960000Y-142240000D03*
D12*
%TO.P,J1,1*%
%TO.N,+5V*%
X190500000Y-142240000D03*
%TD*%
%TO.P,C1,2*%
%TO.N,GND*%
%TA.AperFunction,SMDPad,CuDef*%
G36*
G01*
X167470000Y-77720000D02*
X167470000Y-77220000D01*
G75*
G02*
X167695000Y-76995000I225000J0D01*
G01*
X168145000Y-76995000D01*
G75*
G02*
X168370000Y-77220000I0J-225000D01*
G01*
X168370000Y-77720000D01*
G75*
G02*
X168145000Y-77945000I-225000J0D01*
G01*
X167695000Y-77945000D01*
G75*
G02*
X167470000Y-77720000I0J225000D01*
G01*
G37*
%TD.AperFunction*%
%TO.P,C1,1*%
%TO.N,+5V*%
%TA.AperFunction,SMDPad,CuDef*%
G36*
G01*
X165920000Y-77720000D02*
X165920000Y-77220000D01*
G75*
G02*
X166145000Y-76995000I225000J0D01*
G01*
X166595000Y-76995000D01*
G75*
G02*
X166820000Y-77220000I0J-225000D01*
G01*
X166820000Y-77720000D01*
G75*
G02*
X166595000Y-77945000I-225000J0D01*
G01*
X166145000Y-77945000D01*
G75*
G02*
X165920000Y-77720000I0J225000D01*
G01*
G37*
%TD.AperFunction*%
%TD*%
D13*
%TO.P,IC1,20*%
%TO.N,+5V*%
X166110000Y-79625000D03*
%TO.P,IC1,19*%
%TO.N,GND*%
X166110000Y-80275000D03*
%TO.P,IC1,18*%
%TO.N,/B1*%
X166110000Y-80925000D03*
%TO.P,IC1,17*%
%TO.N,/B2*%
X166110000Y-81575000D03*
%TO.P,IC1,16*%
%TO.N,/B3*%
X166110000Y-82225000D03*
%TO.P,IC1,15*%
%TO.N,/B4*%
X166110000Y-82875000D03*
%TO.P,IC1,14*%
%TO.N,/B5*%
X166110000Y-83525000D03*
%TO.P,IC1,13*%
%TO.N,/B6*%
X166110000Y-84175000D03*
%TO.P,IC1,12*%
%TO.N,/B7*%
X166110000Y-84825000D03*
%TO.P,IC1,11*%
%TO.N,/B8*%
X166110000Y-85475000D03*
%TO.P,IC1,10*%
%TO.N,GND*%
X159010000Y-85475000D03*
%TO.P,IC1,9*%
%TO.N,/A8*%
X159010000Y-84825000D03*
%TO.P,IC1,8*%
%TO.N,/A7*%
X159010000Y-84175000D03*
%TO.P,IC1,7*%
%TO.N,/A6*%
X159010000Y-83525000D03*
%TO.P,IC1,6*%
%TO.N,/A5*%
X159010000Y-82875000D03*
%TO.P,IC1,5*%
%TO.N,/A4*%
X159010000Y-82225000D03*
%TO.P,IC1,4*%
%TO.N,/A3*%
X159010000Y-81575000D03*
%TO.P,IC1,3*%
%TO.N,/A2*%
X159010000Y-80925000D03*
%TO.P,IC1,2*%
%TO.N,/A1*%
X159010000Y-80275000D03*
%TO.P,IC1,1*%
%TO.N,+5V*%
X159010000Y-79625000D03*
%TD*%
D14*
%TO.P,J9,4*%
%TO.N,+5V*%
X168910000Y-68580000D03*
%TO.P,J9,3*%
%TO.N,GND*%
X163830000Y-68580000D03*
%TO.P,J9,2*%
X158750000Y-68580000D03*
D15*
%TO.P,J9,1*%
%TO.N,+12V*%
X153670000Y-68580000D03*
%TD*%
D16*
%TO.P,U1,30*%
%TO.N,Net-(U1-Pad30)*%
X173990000Y-92710000D03*
%TO.P,U1,29*%
%TO.N,Net-(U1-Pad29)*%
X173990000Y-95250000D03*
%TO.P,U1,28*%
%TO.N,Net-(U1-Pad28)*%
X173990000Y-97790000D03*
%TO.P,U1,27*%
%TO.N,Net-(U1-Pad27)*%
X173990000Y-100330000D03*
%TO.P,U1,26*%
%TO.N,Net-(U1-Pad26)*%
X173990000Y-102870000D03*
%TO.P,U1,25*%
%TO.N,Net-(U1-Pad25)*%
X173990000Y-105410000D03*
%TO.P,U1,24*%
%TO.N,Net-(U1-Pad24)*%
X173990000Y-107950000D03*
%TO.P,U1,23*%
%TO.N,Net-(U1-Pad23)*%
X173990000Y-110490000D03*
%TO.P,U1,22*%
%TO.N,Net-(U1-Pad22)*%
X173990000Y-113030000D03*
%TO.P,U1,21*%
%TO.N,Net-(U1-Pad21)*%
X173990000Y-115570000D03*
%TO.P,U1,20*%
%TO.N,Net-(U1-Pad20)*%
X173990000Y-118110000D03*
%TO.P,U1,19*%
%TO.N,Net-(U1-Pad19)*%
X173990000Y-120650000D03*
%TO.P,U1,18*%
%TO.N,Net-(U1-Pad18)*%
X173990000Y-123190000D03*
%TO.P,U1,17*%
%TO.N,GND*%
X173990000Y-125730000D03*
%TO.P,U1,16*%
%TO.N,Net-(U1-Pad16)*%
X173990000Y-128270000D03*
%TO.P,U1,15*%
%TO.N,+12V*%
X148590000Y-128270000D03*
%TO.P,U1,14*%
%TO.N,GND*%
X148590000Y-125730000D03*
%TO.P,U1,13*%
%TO.N,/A8*%
X148590000Y-123190000D03*
%TO.P,U1,12*%
%TO.N,/A7*%
X148590000Y-120650000D03*
%TO.P,U1,11*%
%TO.N,/A6*%
X148590000Y-118110000D03*
%TO.P,U1,10*%
%TO.N,/A5*%
X148590000Y-115570000D03*
%TO.P,U1,9*%
%TO.N,/A4*%
X148590000Y-113030000D03*
%TO.P,U1,8*%
%TO.N,/A3*%
X148590000Y-110490000D03*
%TO.P,U1,7*%
%TO.N,/A2*%
X148590000Y-107950000D03*
%TO.P,U1,6*%
%TO.N,/A1*%
X148590000Y-105410000D03*
%TO.P,U1,5*%
%TO.N,Net-(U1-Pad5)*%
X148590000Y-102870000D03*
%TO.P,U1,4*%
%TO.N,Net-(U1-Pad4)*%
X148590000Y-100330000D03*
%TO.P,U1,3*%
%TO.N,Net-(U1-Pad3)*%
X148590000Y-97790000D03*
%TO.P,U1,2*%
%TO.N,Net-(U1-Pad2)*%
X148590000Y-95250000D03*
D17*
%TO.P,U1,1*%
%TO.N,Net-(U1-Pad1)*%
X148590000Y-92710000D03*
%TD*%
D18*
%TO.N,GND*%
X159010000Y-87370000D03*
X167943191Y-79614699D03*
%TD*%
D19*
%TO.N,+5V*%
X191770000Y-68580000D02*
X191770000Y-142240000D01*
X190500000Y-64770000D02*
X191770000Y-68580000D01*
X179070000Y-64770000D02*
X190500000Y-64770000D01*
X168910000Y-68580000D02*
X175260000Y-68580000D01*
X175260000Y-68580000D02*
X179070000Y-64770000D01*
D20*
X168502500Y-68987500D02*
X168910000Y-68580000D01*
X170180000Y-69850000D02*
X168910000Y-68580000D01*
X168910000Y-68580000D02*
X166370000Y-71120000D01*
X166370000Y-71120000D02*
X166370000Y-79465000D01*
X159010000Y-79625000D02*
X159010000Y-78480000D01*
X160020000Y-77470000D02*
X166370000Y-77470000D01*
X159010000Y-78480000D02*
X160020000Y-77470000D01*
%TO.N,GND*%
X159010000Y-85475000D02*
X158365000Y-85475000D01*
D21*
X159010000Y-87370000D02*
X159010000Y-87370000D01*
X159010000Y-85475000D02*
X159010000Y-87370000D01*
D20*
X167920000Y-79705002D02*
X167627501Y-79997501D01*
X167920000Y-77470000D02*
X167920000Y-79705002D01*
X167350002Y-80275000D02*
X166110000Y-80275000D01*
X167627501Y-79997501D02*
X167350002Y-80275000D01*
D21*
%TO.N,/A8*%
X155550069Y-116229931D02*
X148590000Y-123190000D01*
X155550069Y-87224929D02*
X155550069Y-116229931D01*
X157949998Y-84825000D02*
X155550069Y-87224929D01*
X159010000Y-84825000D02*
X157949998Y-84825000D01*
%TO.N,/A7*%
X155100059Y-114139941D02*
X148590000Y-120650000D01*
X155100059Y-87024939D02*
X155100059Y-114139941D01*
X157949998Y-84175000D02*
X155100059Y-87024939D01*
X159010000Y-84175000D02*
X157949998Y-84175000D01*
%TO.N,/A6*%
X154650049Y-112049951D02*
X148590000Y-118110000D01*
X154650049Y-86824949D02*
X154650049Y-112049951D01*
X157949998Y-83525000D02*
X154650049Y-86824949D01*
X159010000Y-83525000D02*
X157949998Y-83525000D01*
%TO.N,/A5*%
X154200039Y-109959961D02*
X148590000Y-115570000D01*
X154200039Y-86624959D02*
X154200039Y-109959961D01*
X157949998Y-82875000D02*
X154200039Y-86624959D01*
X159010000Y-82875000D02*
X157949998Y-82875000D01*
%TO.N,/A4*%
X153750029Y-107869971D02*
X148590000Y-113030000D01*
X153750029Y-86424969D02*
X153750029Y-107869971D01*
X157949998Y-82225000D02*
X153750029Y-86424969D01*
X159010000Y-82225000D02*
X157949998Y-82225000D01*
%TO.N,/A3*%
X149265000Y-110490000D02*
X148590000Y-110490000D01*
X153300019Y-105779981D02*
X148590000Y-110490000D01*
X153300020Y-86224978D02*
X153300019Y-105779981D01*
X157949998Y-81575000D02*
X153300020Y-86224978D01*
X159010000Y-81575000D02*
X157949998Y-81575000D01*
%TO.N,/A2*%
X152850010Y-103689990D02*
X148590000Y-107950000D01*
X152850010Y-86024988D02*
X152850010Y-103689990D01*
X157949998Y-80925000D02*
X152850010Y-86024988D01*
X159010000Y-80925000D02*
X157949998Y-80925000D01*
%TO.N,/A1*%
X157860000Y-80275000D02*
X152400000Y-85735000D01*
X159010000Y-80275000D02*
X157860000Y-80275000D01*
X152400000Y-101600000D02*
X148590000Y-105410000D01*
X152400000Y-85735000D02*
X152400000Y-101600000D01*
%TO.N,/B1*%
X182880000Y-74930000D02*
X187960000Y-69850000D01*
X170459999Y-81000001D02*
X176530000Y-74930000D01*
X167360001Y-81000001D02*
X170459999Y-81000001D01*
X167285000Y-80925000D02*
X167360001Y-81000001D01*
X176530000Y-74930000D02*
X182880000Y-74930000D01*
X166110000Y-80925000D02*
X167285000Y-80925000D01*
%TO.N,/B2*%
X166110000Y-81575000D02*
X171155000Y-81575000D01*
X171155000Y-81575000D02*
X175260000Y-77470000D01*
X175260000Y-77470000D02*
X185420000Y-77470000D01*
X185420000Y-77470000D02*
X187960000Y-80010000D01*
%TO.N,/B3*%
X166110000Y-82225000D02*
X169855000Y-82225000D01*
X184150000Y-87630000D02*
X187960000Y-91440000D01*
X169855000Y-82225000D02*
X175260000Y-87630000D01*
X175260000Y-87630000D02*
X184150000Y-87630000D01*
%TO.N,/B4*%
X169235000Y-82875000D02*
X187960000Y-101600000D01*
X166110000Y-82875000D02*
X169235000Y-82875000D01*
%TO.N,/B5*%
X166110000Y-83525000D02*
X168615000Y-83525000D01*
X168615000Y-83525000D02*
X180340000Y-95250000D01*
X180340000Y-104140000D02*
X187960000Y-111760000D01*
X180340000Y-95250000D02*
X180340000Y-104140000D01*
%TO.N,/B6*%
X166110000Y-84175000D02*
X168628590Y-84175000D01*
X179889990Y-113849990D02*
X187960000Y-121920000D01*
X179889990Y-95436400D02*
X179889990Y-113849990D01*
X168628590Y-84175000D02*
X179889990Y-95436400D01*
%TO.N,/B7*%
X166110000Y-84825000D02*
X168642180Y-84825000D01*
X179439980Y-123559980D02*
X187960000Y-132080000D01*
X179439980Y-95622800D02*
X179439980Y-123559980D01*
X168642180Y-84825000D02*
X179439980Y-95622800D01*
%TO.N,/B8*%
X187960000Y-142240000D02*
X179070000Y-133350000D01*
X166110000Y-85475000D02*
X168363762Y-85475000D01*
X178989970Y-133350000D02*
X178989970Y-96101208D01*
X168363762Y-85475000D02*
X168444381Y-85555619D01*
X178989970Y-96101208D02*
X168363762Y-85475000D01*
D20*
%TO.N,+12V*%
X153670000Y-69850000D02*
X153670000Y-68580000D01*
X153670000Y-82550000D02*
X146050000Y-90170000D01*
X153670000Y-68580000D02*
X153670000Y-82550000D01*
X146050000Y-125730000D02*
X148590000Y-128270000D01*
X146050000Y-90170000D02*
X146050000Y-125730000D01*
%TD*%
M02*
