M48
; DRILL file {KiCad (5.1.9)-1} date 03/22/21 14:41:03
; FORMAT={-:-/ absolute / inch / decimal}
; #@! TF.CreationDate,2021-03-22T14:41:03+00:00
; #@! TF.GenerationSoftware,Kicad,Pcbnew,(5.1.9)-1
FMAT,2
INCH
T1C0.0157
T2C0.0300
T3C0.0394
T4C0.0701
T5C0.0866
T6C0.0454
%
G90
G05
T1
X6.2602Y-3.4398
X6.6119Y-3.1344
T2
X5.85Y-3.65
X5.85Y-3.75
X5.85Y-3.85
X5.85Y-3.95
X5.85Y-4.05
X5.85Y-4.15
X5.85Y-4.25
X5.85Y-4.35
X5.85Y-4.45
X5.85Y-4.55
X5.85Y-4.65
X5.85Y-4.75
X5.85Y-4.85
X5.85Y-4.95
X5.85Y-5.05
X6.85Y-3.65
X6.85Y-3.75
X6.85Y-3.85
X6.85Y-3.95
X6.85Y-4.05
X6.85Y-4.15
X6.85Y-4.25
X6.85Y-4.35
X6.85Y-4.45
X6.85Y-4.55
X6.85Y-4.65
X6.85Y-4.75
X6.85Y-4.85
X6.85Y-4.95
X6.85Y-5.05
T3
X7.2Y-2.75
X7.2Y-3.15
X7.2Y-3.6
X7.2Y-4.0
X7.2Y-4.4
X7.2Y-4.8
X7.2Y-5.2
X7.2Y-5.6
X7.4Y-2.75
X7.4Y-3.15
X7.4Y-3.6
X7.4Y-4.0
X7.4Y-4.4
X7.4Y-4.8
X7.4Y-5.2
X7.4Y-5.6
X7.5Y-2.75
X7.5Y-3.15
X7.5Y-3.6
X7.5Y-4.0
X7.5Y-4.4
X7.5Y-4.8
X7.5Y-5.2
X7.5Y-5.6
T4
X6.05Y-2.7
X6.25Y-2.7
X6.45Y-2.7
X6.65Y-2.7
T5
X5.85Y-3.25
X5.85Y-5.6
X6.85Y-3.25
X6.85Y-5.6
T6
X5.7Y-5.7
X7.65Y-2.45
T0
M30
