%TF.GenerationSoftware,KiCad,Pcbnew,(5.1.9)-1*%
%TF.CreationDate,2021-06-13T18:55:59+01:00*%
%TF.ProjectId,Controller,436f6e74-726f-46c6-9c65-722e6b696361,rev?*%
%TF.SameCoordinates,Original*%
%TF.FileFunction,Copper,L2,Bot*%
%TF.FilePolarity,Positive*%
%FSLAX46Y46*%
G04 Gerber Fmt 4.6, Leading zero omitted, Abs format (unit mm)*
G04 Created by KiCad (PCBNEW (5.1.9)-1) date 2021-06-13 18:55:59*
%MOMM*%
%LPD*%
G01*
G04 APERTURE LIST*
%TA.AperFunction,ComponentPad*%
%ADD10R,2.780000X2.780000*%
%TD*%
%TA.AperFunction,ComponentPad*%
%ADD11C,2.780000*%
%TD*%
%TA.AperFunction,ComponentPad*%
%ADD12O,1.700000X1.700000*%
%TD*%
%TA.AperFunction,ComponentPad*%
%ADD13R,1.700000X1.700000*%
%TD*%
%TA.AperFunction,ComponentPad*%
%ADD14C,1.524000*%
%TD*%
%TA.AperFunction,ComponentPad*%
%ADD15R,1.524000X1.524000*%
%TD*%
%TA.AperFunction,ComponentPad*%
%ADD16C,4.400000*%
%TD*%
%TA.AperFunction,ViaPad*%
%ADD17C,0.800000*%
%TD*%
%TA.AperFunction,Conductor*%
%ADD18C,0.254000*%
%TD*%
%TA.AperFunction,Conductor*%
%ADD19C,0.100000*%
%TD*%
G04 APERTURE END LIST*
D10*
%TO.P,J11,1*%
%TO.N,N/C*%
X149860000Y-86360000D03*
D11*
%TO.P,J11,2*%
%TO.N,GND*%
X154940000Y-86360000D03*
%TO.P,J11,3*%
X160020000Y-86360000D03*
%TO.P,J11,4*%
%TO.N,+5V*%
X165100000Y-86360000D03*
%TD*%
D12*
%TO.P,J5,3*%
%TO.N,GND*%
X175260000Y-116840000D03*
%TO.P,J5,2*%
%TO.N,/B6*%
X180340000Y-116840000D03*
D13*
%TO.P,J5,1*%
%TO.N,+5V*%
X182880000Y-116840000D03*
%TD*%
D14*
%TO.P,U1,30*%
%TO.N,N/C*%
X170487065Y-100330000D03*
%TO.P,U1,29*%
X170487065Y-102870000D03*
%TO.P,U1,28*%
X170487065Y-105410000D03*
%TO.P,U1,27*%
X170487065Y-107950000D03*
%TO.P,U1,26*%
X170487065Y-110490000D03*
%TO.P,U1,25*%
X170487065Y-113030000D03*
%TO.P,U1,24*%
X170487065Y-115570000D03*
%TO.P,U1,23*%
X170487065Y-118110000D03*
%TO.P,U1,22*%
X170487065Y-120650000D03*
%TO.P,U1,21*%
X170487065Y-123190000D03*
%TO.P,U1,20*%
X170487065Y-125730000D03*
%TO.P,U1,19*%
%TO.N,/A9*%
X170487065Y-128270000D03*
%TO.P,U1,18*%
%TO.N,/A10*%
X170487065Y-130810000D03*
%TO.P,U1,17*%
%TO.N,GND*%
X170487065Y-133350000D03*
%TO.P,U1,16*%
%TO.N,N/C*%
X170487065Y-135890000D03*
%TO.P,U1,15*%
%TO.N,+5V*%
X145087065Y-135890000D03*
%TO.P,U1,14*%
%TO.N,GND*%
X145087065Y-133350000D03*
%TO.P,U1,13*%
%TO.N,/A8*%
X145087065Y-130810000D03*
%TO.P,U1,12*%
%TO.N,/A7*%
X145087065Y-128270000D03*
%TO.P,U1,11*%
%TO.N,/A6*%
X145087065Y-125730000D03*
%TO.P,U1,10*%
%TO.N,/A5*%
X145087065Y-123190000D03*
%TO.P,U1,9*%
%TO.N,/A4*%
X145087065Y-120650000D03*
%TO.P,U1,8*%
%TO.N,/A3*%
X145087065Y-118110000D03*
%TO.P,U1,7*%
%TO.N,/A2*%
X145087065Y-115570000D03*
%TO.P,U1,6*%
%TO.N,/A1*%
X145087065Y-113030000D03*
%TO.P,U1,5*%
%TO.N,N/C*%
X145087065Y-110490000D03*
%TO.P,U1,4*%
X145087065Y-107950000D03*
%TO.P,U1,3*%
X145087065Y-105410000D03*
%TO.P,U1,2*%
X145087065Y-102870000D03*
D15*
%TO.P,U1,1*%
X145087065Y-100330000D03*
%TD*%
D12*
%TO.P,J10,3*%
%TO.N,GND*%
X175260000Y-85090000D03*
%TO.P,J10,2*%
%TO.N,/B1*%
X180340000Y-85090000D03*
D13*
%TO.P,J10,1*%
%TO.N,+5V*%
X182880000Y-85090000D03*
%TD*%
D12*
%TO.P,J9,3*%
%TO.N,GND*%
X175260000Y-91440000D03*
%TO.P,J9,2*%
%TO.N,/B2*%
X180340000Y-91440000D03*
D13*
%TO.P,J9,1*%
%TO.N,+5V*%
X182880000Y-91440000D03*
%TD*%
D12*
%TO.P,J6,3*%
%TO.N,GND*%
X175260000Y-110490000D03*
%TO.P,J6,2*%
%TO.N,/B5*%
X180340000Y-110490000D03*
D13*
%TO.P,J6,1*%
%TO.N,+5V*%
X182880000Y-110490000D03*
%TD*%
D16*
%TO.P,H1,1*%
%TO.N,N/C*%
X146075400Y-96291400D03*
%TD*%
D12*
%TO.P,J4,3*%
%TO.N,GND*%
X175260000Y-123190000D03*
%TO.P,J4,2*%
%TO.N,/B7*%
X180340000Y-123190000D03*
D13*
%TO.P,J4,1*%
%TO.N,+5V*%
X182880000Y-123190000D03*
%TD*%
D12*
%TO.P,J3,3*%
%TO.N,GND*%
X175260000Y-129540000D03*
%TO.P,J3,2*%
%TO.N,/B8*%
X180340000Y-129540000D03*
D13*
%TO.P,J3,1*%
%TO.N,+5V*%
X182880000Y-129540000D03*
%TD*%
D16*
%TO.P,H2,1*%
%TO.N,N/C*%
X169468800Y-96291400D03*
%TD*%
D12*
%TO.P,J8,3*%
%TO.N,GND*%
X175260000Y-97790000D03*
%TO.P,J8,2*%
%TO.N,/B3*%
X180340000Y-97790000D03*
D13*
%TO.P,J8,1*%
%TO.N,+5V*%
X182880000Y-97790000D03*
%TD*%
D12*
%TO.P,J7,3*%
%TO.N,GND*%
X175260000Y-104140000D03*
%TO.P,J7,2*%
%TO.N,/B4*%
X180340000Y-104140000D03*
D13*
%TO.P,J7,1*%
%TO.N,+5V*%
X182880000Y-104140000D03*
%TD*%
D16*
%TO.P,H3,1*%
%TO.N,N/C*%
X146075400Y-143764000D03*
%TD*%
D12*
%TO.P,J2,3*%
%TO.N,GND*%
X175260000Y-135890000D03*
%TO.P,J2,2*%
%TO.N,/B9*%
X180340000Y-135890000D03*
D13*
%TO.P,J2,1*%
%TO.N,+5V*%
X182880000Y-135890000D03*
%TD*%
D12*
%TO.P,J1,3*%
%TO.N,GND*%
X175260000Y-142240000D03*
%TO.P,J1,2*%
%TO.N,/B10*%
X180340000Y-142240000D03*
D13*
%TO.P,J1,1*%
%TO.N,+5V*%
X182880000Y-142240000D03*
%TD*%
D16*
%TO.P,H4,1*%
%TO.N,N/C*%
X169494200Y-143789400D03*
%TD*%
D17*
%TO.N,GND*%
X153162000Y-135890000D03*
X163830000Y-129159000D03*
X163830000Y-113665000D03*
X153416000Y-121412000D03*
%TD*%
D18*
%TO.N,GND*%
X185664869Y-79440122D02*
X185778246Y-79474353D01*
X185882819Y-79529955D01*
X185974596Y-79604807D01*
X186050091Y-79696064D01*
X186106419Y-79800244D01*
X186141440Y-79913376D01*
X186157001Y-80061431D01*
X186157000Y-144098826D01*
X186047273Y-144077000D01*
X185808727Y-144077000D01*
X185574764Y-144123538D01*
X185354376Y-144214825D01*
X185156032Y-144347354D01*
X184987354Y-144516032D01*
X184854825Y-144714376D01*
X184763538Y-144934764D01*
X184717000Y-145168727D01*
X184717000Y-145407273D01*
X184763538Y-145641236D01*
X184764683Y-145644000D01*
X171648895Y-145644000D01*
X171696288Y-145596607D01*
X172006544Y-145132276D01*
X172220252Y-144616339D01*
X172329200Y-144068623D01*
X172329200Y-143510177D01*
X172220252Y-142962461D01*
X172006544Y-142446524D01*
X171770822Y-142093740D01*
X178855000Y-142093740D01*
X178855000Y-142386260D01*
X178912068Y-142673158D01*
X179024010Y-142943411D01*
X179186525Y-143186632D01*
X179393368Y-143393475D01*
X179636589Y-143555990D01*
X179906842Y-143667932D01*
X180193740Y-143725000D01*
X180486260Y-143725000D01*
X180773158Y-143667932D01*
X181043411Y-143555990D01*
X181286632Y-143393475D01*
X181418487Y-143261620D01*
X181440498Y-143334180D01*
X181499463Y-143444494D01*
X181578815Y-143541185D01*
X181675506Y-143620537D01*
X181785820Y-143679502D01*
X181905518Y-143715812D01*
X182030000Y-143728072D01*
X183730000Y-143728072D01*
X183854482Y-143715812D01*
X183974180Y-143679502D01*
X184084494Y-143620537D01*
X184181185Y-143541185D01*
X184260537Y-143444494D01*
X184319502Y-143334180D01*
X184355812Y-143214482D01*
X184368072Y-143090000D01*
X184368072Y-141390000D01*
X184355812Y-141265518D01*
X184319502Y-141145820D01*
X184260537Y-141035506D01*
X184181185Y-140938815D01*
X184084494Y-140859463D01*
X183974180Y-140800498D01*
X183854482Y-140764188D01*
X183730000Y-140751928D01*
X182030000Y-140751928D01*
X181905518Y-140764188D01*
X181785820Y-140800498D01*
X181675506Y-140859463D01*
X181578815Y-140938815D01*
X181499463Y-141035506D01*
X181440498Y-141145820D01*
X181418487Y-141218380D01*
X181286632Y-141086525D01*
X181043411Y-140924010D01*
X180773158Y-140812068D01*
X180486260Y-140755000D01*
X180193740Y-140755000D01*
X179906842Y-140812068D01*
X179636589Y-140924010D01*
X179393368Y-141086525D01*
X179186525Y-141293368D01*
X179024010Y-141536589D01*
X178912068Y-141806842D01*
X178855000Y-142093740D01*
X171770822Y-142093740D01*
X171696288Y-141982193D01*
X171301407Y-141587312D01*
X170837076Y-141277056D01*
X170321139Y-141063348D01*
X169773423Y-140954400D01*
X169214977Y-140954400D01*
X168667261Y-141063348D01*
X168151324Y-141277056D01*
X167686993Y-141587312D01*
X167292112Y-141982193D01*
X166981856Y-142446524D01*
X166768148Y-142962461D01*
X166659200Y-143510177D01*
X166659200Y-144068623D01*
X166768148Y-144616339D01*
X166981856Y-145132276D01*
X167292112Y-145596607D01*
X167339505Y-145644000D01*
X148204695Y-145644000D01*
X148277488Y-145571207D01*
X148587744Y-145106876D01*
X148801452Y-144590939D01*
X148910400Y-144043223D01*
X148910400Y-143484777D01*
X148801452Y-142937061D01*
X148587744Y-142421124D01*
X148277488Y-141956793D01*
X147882607Y-141561912D01*
X147418276Y-141251656D01*
X146902339Y-141037948D01*
X146354623Y-140929000D01*
X145796177Y-140929000D01*
X145248461Y-141037948D01*
X144732524Y-141251656D01*
X144268193Y-141561912D01*
X144170000Y-141660105D01*
X144170000Y-136948590D01*
X144196530Y-136975120D01*
X144425338Y-137128005D01*
X144679575Y-137233314D01*
X144949473Y-137287000D01*
X145224657Y-137287000D01*
X145494555Y-137233314D01*
X145748792Y-137128005D01*
X145977600Y-136975120D01*
X146172185Y-136780535D01*
X146325070Y-136551727D01*
X146430379Y-136297490D01*
X146484065Y-136027592D01*
X146484065Y-135752408D01*
X169090065Y-135752408D01*
X169090065Y-136027592D01*
X169143751Y-136297490D01*
X169249060Y-136551727D01*
X169401945Y-136780535D01*
X169596530Y-136975120D01*
X169825338Y-137128005D01*
X170079575Y-137233314D01*
X170349473Y-137287000D01*
X170624657Y-137287000D01*
X170894555Y-137233314D01*
X171148792Y-137128005D01*
X171377600Y-136975120D01*
X171572185Y-136780535D01*
X171725070Y-136551727D01*
X171830379Y-136297490D01*
X171884065Y-136027592D01*
X171884065Y-135752408D01*
X171882341Y-135743740D01*
X178855000Y-135743740D01*
X178855000Y-136036260D01*
X178912068Y-136323158D01*
X179024010Y-136593411D01*
X179186525Y-136836632D01*
X179393368Y-137043475D01*
X179636589Y-137205990D01*
X179906842Y-137317932D01*
X180193740Y-137375000D01*
X180486260Y-137375000D01*
X180773158Y-137317932D01*
X181043411Y-137205990D01*
X181286632Y-137043475D01*
X181418487Y-136911620D01*
X181440498Y-136984180D01*
X181499463Y-137094494D01*
X181578815Y-137191185D01*
X181675506Y-137270537D01*
X181785820Y-137329502D01*
X181905518Y-137365812D01*
X182030000Y-137378072D01*
X183730000Y-137378072D01*
X183854482Y-137365812D01*
X183974180Y-137329502D01*
X184084494Y-137270537D01*
X184181185Y-137191185D01*
X184260537Y-137094494D01*
X184319502Y-136984180D01*
X184355812Y-136864482D01*
X184368072Y-136740000D01*
X184368072Y-135040000D01*
X184355812Y-134915518D01*
X184319502Y-134795820D01*
X184260537Y-134685506D01*
X184181185Y-134588815D01*
X184084494Y-134509463D01*
X183974180Y-134450498D01*
X183854482Y-134414188D01*
X183730000Y-134401928D01*
X182030000Y-134401928D01*
X181905518Y-134414188D01*
X181785820Y-134450498D01*
X181675506Y-134509463D01*
X181578815Y-134588815D01*
X181499463Y-134685506D01*
X181440498Y-134795820D01*
X181418487Y-134868380D01*
X181286632Y-134736525D01*
X181043411Y-134574010D01*
X180773158Y-134462068D01*
X180486260Y-134405000D01*
X180193740Y-134405000D01*
X179906842Y-134462068D01*
X179636589Y-134574010D01*
X179393368Y-134736525D01*
X179186525Y-134943368D01*
X179024010Y-135186589D01*
X178912068Y-135456842D01*
X178855000Y-135743740D01*
X171882341Y-135743740D01*
X171830379Y-135482510D01*
X171725070Y-135228273D01*
X171572185Y-134999465D01*
X171377600Y-134804880D01*
X171148792Y-134651995D01*
X170894555Y-134546686D01*
X170624657Y-134493000D01*
X170349473Y-134493000D01*
X170079575Y-134546686D01*
X169825338Y-134651995D01*
X169596530Y-134804880D01*
X169401945Y-134999465D01*
X169249060Y-135228273D01*
X169143751Y-135482510D01*
X169090065Y-135752408D01*
X146484065Y-135752408D01*
X146430379Y-135482510D01*
X146325070Y-135228273D01*
X146172185Y-134999465D01*
X145977600Y-134804880D01*
X145748792Y-134651995D01*
X145494555Y-134546686D01*
X145224657Y-134493000D01*
X144949473Y-134493000D01*
X144679575Y-134546686D01*
X144425338Y-134651995D01*
X144196530Y-134804880D01*
X144170000Y-134831410D01*
X144170000Y-131868590D01*
X144196530Y-131895120D01*
X144425338Y-132048005D01*
X144679575Y-132153314D01*
X144949473Y-132207000D01*
X145224657Y-132207000D01*
X145494555Y-132153314D01*
X145748792Y-132048005D01*
X145977600Y-131895120D01*
X146172185Y-131700535D01*
X146325070Y-131471727D01*
X146430379Y-131217490D01*
X146484065Y-130947592D01*
X146484065Y-130672408D01*
X146430379Y-130402510D01*
X146325070Y-130148273D01*
X146172185Y-129919465D01*
X145977600Y-129724880D01*
X145748792Y-129571995D01*
X145671550Y-129540000D01*
X145748792Y-129508005D01*
X145977600Y-129355120D01*
X146172185Y-129160535D01*
X146325070Y-128931727D01*
X146430379Y-128677490D01*
X146484065Y-128407592D01*
X146484065Y-128132408D01*
X146430379Y-127862510D01*
X146325070Y-127608273D01*
X146172185Y-127379465D01*
X145977600Y-127184880D01*
X145748792Y-127031995D01*
X145671550Y-127000000D01*
X145748792Y-126968005D01*
X145977600Y-126815120D01*
X146172185Y-126620535D01*
X146325070Y-126391727D01*
X146430379Y-126137490D01*
X146484065Y-125867592D01*
X146484065Y-125592408D01*
X146430379Y-125322510D01*
X146325070Y-125068273D01*
X146172185Y-124839465D01*
X145977600Y-124644880D01*
X145748792Y-124491995D01*
X145671550Y-124460000D01*
X145748792Y-124428005D01*
X145977600Y-124275120D01*
X146172185Y-124080535D01*
X146325070Y-123851727D01*
X146430379Y-123597490D01*
X146484065Y-123327592D01*
X146484065Y-123052408D01*
X146430379Y-122782510D01*
X146325070Y-122528273D01*
X146172185Y-122299465D01*
X145977600Y-122104880D01*
X145748792Y-121951995D01*
X145671550Y-121920000D01*
X145748792Y-121888005D01*
X145977600Y-121735120D01*
X146172185Y-121540535D01*
X146325070Y-121311727D01*
X146430379Y-121057490D01*
X146484065Y-120787592D01*
X146484065Y-120512408D01*
X146430379Y-120242510D01*
X146325070Y-119988273D01*
X146172185Y-119759465D01*
X145977600Y-119564880D01*
X145748792Y-119411995D01*
X145671550Y-119380000D01*
X145748792Y-119348005D01*
X145977600Y-119195120D01*
X146172185Y-119000535D01*
X146325070Y-118771727D01*
X146430379Y-118517490D01*
X146484065Y-118247592D01*
X146484065Y-117972408D01*
X146430379Y-117702510D01*
X146325070Y-117448273D01*
X146172185Y-117219465D01*
X145977600Y-117024880D01*
X145748792Y-116871995D01*
X145671550Y-116840000D01*
X145748792Y-116808005D01*
X145977600Y-116655120D01*
X146172185Y-116460535D01*
X146325070Y-116231727D01*
X146430379Y-115977490D01*
X146484065Y-115707592D01*
X146484065Y-115432408D01*
X146430379Y-115162510D01*
X146325070Y-114908273D01*
X146172185Y-114679465D01*
X145977600Y-114484880D01*
X145748792Y-114331995D01*
X145671550Y-114300000D01*
X145748792Y-114268005D01*
X145977600Y-114115120D01*
X146172185Y-113920535D01*
X146325070Y-113691727D01*
X146430379Y-113437490D01*
X146484065Y-113167592D01*
X146484065Y-112892408D01*
X146430379Y-112622510D01*
X146325070Y-112368273D01*
X146172185Y-112139465D01*
X145977600Y-111944880D01*
X145748792Y-111791995D01*
X145671550Y-111760000D01*
X145748792Y-111728005D01*
X145977600Y-111575120D01*
X146172185Y-111380535D01*
X146325070Y-111151727D01*
X146430379Y-110897490D01*
X146484065Y-110627592D01*
X146484065Y-110352408D01*
X146430379Y-110082510D01*
X146325070Y-109828273D01*
X146172185Y-109599465D01*
X145977600Y-109404880D01*
X145748792Y-109251995D01*
X145671550Y-109220000D01*
X145748792Y-109188005D01*
X145977600Y-109035120D01*
X146172185Y-108840535D01*
X146325070Y-108611727D01*
X146430379Y-108357490D01*
X146484065Y-108087592D01*
X146484065Y-107812408D01*
X146430379Y-107542510D01*
X146325070Y-107288273D01*
X146172185Y-107059465D01*
X145977600Y-106864880D01*
X145748792Y-106711995D01*
X145671550Y-106680000D01*
X145748792Y-106648005D01*
X145977600Y-106495120D01*
X146172185Y-106300535D01*
X146325070Y-106071727D01*
X146430379Y-105817490D01*
X146484065Y-105547592D01*
X146484065Y-105272408D01*
X146430379Y-105002510D01*
X146325070Y-104748273D01*
X146172185Y-104519465D01*
X145977600Y-104324880D01*
X145748792Y-104171995D01*
X145671550Y-104140000D01*
X145748792Y-104108005D01*
X145977600Y-103955120D01*
X146172185Y-103760535D01*
X146325070Y-103531727D01*
X146430379Y-103277490D01*
X146484065Y-103007592D01*
X146484065Y-102732408D01*
X146430379Y-102462510D01*
X146325070Y-102208273D01*
X146172185Y-101979465D01*
X145977600Y-101784880D01*
X145889600Y-101726080D01*
X145973547Y-101717812D01*
X146093245Y-101681502D01*
X146203559Y-101622537D01*
X146300250Y-101543185D01*
X146379602Y-101446494D01*
X146438567Y-101336180D01*
X146474877Y-101216482D01*
X146487137Y-101092000D01*
X146487137Y-99568000D01*
X146474877Y-99443518D01*
X146438567Y-99323820D01*
X146379602Y-99213506D01*
X146308116Y-99126400D01*
X146354623Y-99126400D01*
X146902339Y-99017452D01*
X147418276Y-98803744D01*
X147882607Y-98493488D01*
X148277488Y-98098607D01*
X148587744Y-97634276D01*
X148801452Y-97118339D01*
X148910400Y-96570623D01*
X148910400Y-96012177D01*
X166633800Y-96012177D01*
X166633800Y-96570623D01*
X166742748Y-97118339D01*
X166956456Y-97634276D01*
X167266712Y-98098607D01*
X167661593Y-98493488D01*
X168125924Y-98803744D01*
X168641861Y-99017452D01*
X169189577Y-99126400D01*
X169748023Y-99126400D01*
X169784794Y-99119086D01*
X169596530Y-99244880D01*
X169401945Y-99439465D01*
X169249060Y-99668273D01*
X169143751Y-99922510D01*
X169090065Y-100192408D01*
X169090065Y-100467592D01*
X169143751Y-100737490D01*
X169249060Y-100991727D01*
X169401945Y-101220535D01*
X169596530Y-101415120D01*
X169825338Y-101568005D01*
X169902580Y-101600000D01*
X169825338Y-101631995D01*
X169596530Y-101784880D01*
X169401945Y-101979465D01*
X169249060Y-102208273D01*
X169143751Y-102462510D01*
X169090065Y-102732408D01*
X169090065Y-103007592D01*
X169143751Y-103277490D01*
X169249060Y-103531727D01*
X169401945Y-103760535D01*
X169596530Y-103955120D01*
X169825338Y-104108005D01*
X169902580Y-104140000D01*
X169825338Y-104171995D01*
X169596530Y-104324880D01*
X169401945Y-104519465D01*
X169249060Y-104748273D01*
X169143751Y-105002510D01*
X169090065Y-105272408D01*
X169090065Y-105547592D01*
X169143751Y-105817490D01*
X169249060Y-106071727D01*
X169401945Y-106300535D01*
X169596530Y-106495120D01*
X169825338Y-106648005D01*
X169902580Y-106680000D01*
X169825338Y-106711995D01*
X169596530Y-106864880D01*
X169401945Y-107059465D01*
X169249060Y-107288273D01*
X169143751Y-107542510D01*
X169090065Y-107812408D01*
X169090065Y-108087592D01*
X169143751Y-108357490D01*
X169249060Y-108611727D01*
X169401945Y-108840535D01*
X169596530Y-109035120D01*
X169825338Y-109188005D01*
X169902580Y-109220000D01*
X169825338Y-109251995D01*
X169596530Y-109404880D01*
X169401945Y-109599465D01*
X169249060Y-109828273D01*
X169143751Y-110082510D01*
X169090065Y-110352408D01*
X169090065Y-110627592D01*
X169143751Y-110897490D01*
X169249060Y-111151727D01*
X169401945Y-111380535D01*
X169596530Y-111575120D01*
X169825338Y-111728005D01*
X169902580Y-111760000D01*
X169825338Y-111791995D01*
X169596530Y-111944880D01*
X169401945Y-112139465D01*
X169249060Y-112368273D01*
X169143751Y-112622510D01*
X169090065Y-112892408D01*
X169090065Y-113167592D01*
X169143751Y-113437490D01*
X169249060Y-113691727D01*
X169401945Y-113920535D01*
X169596530Y-114115120D01*
X169825338Y-114268005D01*
X169902580Y-114300000D01*
X169825338Y-114331995D01*
X169596530Y-114484880D01*
X169401945Y-114679465D01*
X169249060Y-114908273D01*
X169143751Y-115162510D01*
X169090065Y-115432408D01*
X169090065Y-115707592D01*
X169143751Y-115977490D01*
X169249060Y-116231727D01*
X169401945Y-116460535D01*
X169596530Y-116655120D01*
X169825338Y-116808005D01*
X169902580Y-116840000D01*
X169825338Y-116871995D01*
X169596530Y-117024880D01*
X169401945Y-117219465D01*
X169249060Y-117448273D01*
X169143751Y-117702510D01*
X169090065Y-117972408D01*
X169090065Y-118247592D01*
X169143751Y-118517490D01*
X169249060Y-118771727D01*
X169401945Y-119000535D01*
X169596530Y-119195120D01*
X169825338Y-119348005D01*
X169902580Y-119380000D01*
X169825338Y-119411995D01*
X169596530Y-119564880D01*
X169401945Y-119759465D01*
X169249060Y-119988273D01*
X169143751Y-120242510D01*
X169090065Y-120512408D01*
X169090065Y-120787592D01*
X169143751Y-121057490D01*
X169249060Y-121311727D01*
X169401945Y-121540535D01*
X169596530Y-121735120D01*
X169825338Y-121888005D01*
X169902580Y-121920000D01*
X169825338Y-121951995D01*
X169596530Y-122104880D01*
X169401945Y-122299465D01*
X169249060Y-122528273D01*
X169143751Y-122782510D01*
X169090065Y-123052408D01*
X169090065Y-123327592D01*
X169143751Y-123597490D01*
X169249060Y-123851727D01*
X169401945Y-124080535D01*
X169596530Y-124275120D01*
X169825338Y-124428005D01*
X169902580Y-124460000D01*
X169825338Y-124491995D01*
X169596530Y-124644880D01*
X169401945Y-124839465D01*
X169249060Y-125068273D01*
X169143751Y-125322510D01*
X169090065Y-125592408D01*
X169090065Y-125867592D01*
X169143751Y-126137490D01*
X169249060Y-126391727D01*
X169401945Y-126620535D01*
X169596530Y-126815120D01*
X169825338Y-126968005D01*
X169902580Y-127000000D01*
X169825338Y-127031995D01*
X169596530Y-127184880D01*
X169401945Y-127379465D01*
X169249060Y-127608273D01*
X169143751Y-127862510D01*
X169090065Y-128132408D01*
X169090065Y-128407592D01*
X169143751Y-128677490D01*
X169249060Y-128931727D01*
X169401945Y-129160535D01*
X169596530Y-129355120D01*
X169825338Y-129508005D01*
X169902580Y-129540000D01*
X169825338Y-129571995D01*
X169596530Y-129724880D01*
X169401945Y-129919465D01*
X169249060Y-130148273D01*
X169143751Y-130402510D01*
X169090065Y-130672408D01*
X169090065Y-130947592D01*
X169143751Y-131217490D01*
X169249060Y-131471727D01*
X169401945Y-131700535D01*
X169596530Y-131895120D01*
X169825338Y-132048005D01*
X170079575Y-132153314D01*
X170349473Y-132207000D01*
X170624657Y-132207000D01*
X170894555Y-132153314D01*
X171148792Y-132048005D01*
X171377600Y-131895120D01*
X171572185Y-131700535D01*
X171725070Y-131471727D01*
X171830379Y-131217490D01*
X171884065Y-130947592D01*
X171884065Y-130672408D01*
X171830379Y-130402510D01*
X171725070Y-130148273D01*
X171572185Y-129919465D01*
X171377600Y-129724880D01*
X171148792Y-129571995D01*
X171071550Y-129540000D01*
X171148792Y-129508005D01*
X171319801Y-129393740D01*
X178855000Y-129393740D01*
X178855000Y-129686260D01*
X178912068Y-129973158D01*
X179024010Y-130243411D01*
X179186525Y-130486632D01*
X179393368Y-130693475D01*
X179636589Y-130855990D01*
X179906842Y-130967932D01*
X180193740Y-131025000D01*
X180486260Y-131025000D01*
X180773158Y-130967932D01*
X181043411Y-130855990D01*
X181286632Y-130693475D01*
X181418487Y-130561620D01*
X181440498Y-130634180D01*
X181499463Y-130744494D01*
X181578815Y-130841185D01*
X181675506Y-130920537D01*
X181785820Y-130979502D01*
X181905518Y-131015812D01*
X182030000Y-131028072D01*
X183730000Y-131028072D01*
X183854482Y-131015812D01*
X183974180Y-130979502D01*
X184084494Y-130920537D01*
X184181185Y-130841185D01*
X184260537Y-130744494D01*
X184319502Y-130634180D01*
X184355812Y-130514482D01*
X184368072Y-130390000D01*
X184368072Y-128690000D01*
X184355812Y-128565518D01*
X184319502Y-128445820D01*
X184260537Y-128335506D01*
X184181185Y-128238815D01*
X184084494Y-128159463D01*
X183974180Y-128100498D01*
X183854482Y-128064188D01*
X183730000Y-128051928D01*
X182030000Y-128051928D01*
X181905518Y-128064188D01*
X181785820Y-128100498D01*
X181675506Y-128159463D01*
X181578815Y-128238815D01*
X181499463Y-128335506D01*
X181440498Y-128445820D01*
X181418487Y-128518380D01*
X181286632Y-128386525D01*
X181043411Y-128224010D01*
X180773158Y-128112068D01*
X180486260Y-128055000D01*
X180193740Y-128055000D01*
X179906842Y-128112068D01*
X179636589Y-128224010D01*
X179393368Y-128386525D01*
X179186525Y-128593368D01*
X179024010Y-128836589D01*
X178912068Y-129106842D01*
X178855000Y-129393740D01*
X171319801Y-129393740D01*
X171377600Y-129355120D01*
X171572185Y-129160535D01*
X171725070Y-128931727D01*
X171830379Y-128677490D01*
X171884065Y-128407592D01*
X171884065Y-128132408D01*
X171830379Y-127862510D01*
X171725070Y-127608273D01*
X171572185Y-127379465D01*
X171377600Y-127184880D01*
X171148792Y-127031995D01*
X171071550Y-127000000D01*
X171148792Y-126968005D01*
X171377600Y-126815120D01*
X171572185Y-126620535D01*
X171725070Y-126391727D01*
X171830379Y-126137490D01*
X171884065Y-125867592D01*
X171884065Y-125592408D01*
X171830379Y-125322510D01*
X171725070Y-125068273D01*
X171572185Y-124839465D01*
X171377600Y-124644880D01*
X171148792Y-124491995D01*
X171071550Y-124460000D01*
X171148792Y-124428005D01*
X171377600Y-124275120D01*
X171572185Y-124080535D01*
X171725070Y-123851727D01*
X171830379Y-123597490D01*
X171884065Y-123327592D01*
X171884065Y-123052408D01*
X171882341Y-123043740D01*
X178855000Y-123043740D01*
X178855000Y-123336260D01*
X178912068Y-123623158D01*
X179024010Y-123893411D01*
X179186525Y-124136632D01*
X179393368Y-124343475D01*
X179636589Y-124505990D01*
X179906842Y-124617932D01*
X180193740Y-124675000D01*
X180486260Y-124675000D01*
X180773158Y-124617932D01*
X181043411Y-124505990D01*
X181286632Y-124343475D01*
X181418487Y-124211620D01*
X181440498Y-124284180D01*
X181499463Y-124394494D01*
X181578815Y-124491185D01*
X181675506Y-124570537D01*
X181785820Y-124629502D01*
X181905518Y-124665812D01*
X182030000Y-124678072D01*
X183730000Y-124678072D01*
X183854482Y-124665812D01*
X183974180Y-124629502D01*
X184084494Y-124570537D01*
X184181185Y-124491185D01*
X184260537Y-124394494D01*
X184319502Y-124284180D01*
X184355812Y-124164482D01*
X184368072Y-124040000D01*
X184368072Y-122340000D01*
X184355812Y-122215518D01*
X184319502Y-122095820D01*
X184260537Y-121985506D01*
X184181185Y-121888815D01*
X184084494Y-121809463D01*
X183974180Y-121750498D01*
X183854482Y-121714188D01*
X183730000Y-121701928D01*
X182030000Y-121701928D01*
X181905518Y-121714188D01*
X181785820Y-121750498D01*
X181675506Y-121809463D01*
X181578815Y-121888815D01*
X181499463Y-121985506D01*
X181440498Y-122095820D01*
X181418487Y-122168380D01*
X181286632Y-122036525D01*
X181043411Y-121874010D01*
X180773158Y-121762068D01*
X180486260Y-121705000D01*
X180193740Y-121705000D01*
X179906842Y-121762068D01*
X179636589Y-121874010D01*
X179393368Y-122036525D01*
X179186525Y-122243368D01*
X179024010Y-122486589D01*
X178912068Y-122756842D01*
X178855000Y-123043740D01*
X171882341Y-123043740D01*
X171830379Y-122782510D01*
X171725070Y-122528273D01*
X171572185Y-122299465D01*
X171377600Y-122104880D01*
X171148792Y-121951995D01*
X171071550Y-121920000D01*
X171148792Y-121888005D01*
X171377600Y-121735120D01*
X171572185Y-121540535D01*
X171725070Y-121311727D01*
X171830379Y-121057490D01*
X171884065Y-120787592D01*
X171884065Y-120512408D01*
X171830379Y-120242510D01*
X171725070Y-119988273D01*
X171572185Y-119759465D01*
X171377600Y-119564880D01*
X171148792Y-119411995D01*
X171071550Y-119380000D01*
X171148792Y-119348005D01*
X171377600Y-119195120D01*
X171572185Y-119000535D01*
X171725070Y-118771727D01*
X171830379Y-118517490D01*
X171884065Y-118247592D01*
X171884065Y-117972408D01*
X171830379Y-117702510D01*
X171725070Y-117448273D01*
X171572185Y-117219465D01*
X171377600Y-117024880D01*
X171148792Y-116871995D01*
X171071550Y-116840000D01*
X171148792Y-116808005D01*
X171319801Y-116693740D01*
X178855000Y-116693740D01*
X178855000Y-116986260D01*
X178912068Y-117273158D01*
X179024010Y-117543411D01*
X179186525Y-117786632D01*
X179393368Y-117993475D01*
X179636589Y-118155990D01*
X179906842Y-118267932D01*
X180193740Y-118325000D01*
X180486260Y-118325000D01*
X180773158Y-118267932D01*
X181043411Y-118155990D01*
X181286632Y-117993475D01*
X181418487Y-117861620D01*
X181440498Y-117934180D01*
X181499463Y-118044494D01*
X181578815Y-118141185D01*
X181675506Y-118220537D01*
X181785820Y-118279502D01*
X181905518Y-118315812D01*
X182030000Y-118328072D01*
X183730000Y-118328072D01*
X183854482Y-118315812D01*
X183974180Y-118279502D01*
X184084494Y-118220537D01*
X184181185Y-118141185D01*
X184260537Y-118044494D01*
X184319502Y-117934180D01*
X184355812Y-117814482D01*
X184368072Y-117690000D01*
X184368072Y-115990000D01*
X184355812Y-115865518D01*
X184319502Y-115745820D01*
X184260537Y-115635506D01*
X184181185Y-115538815D01*
X184084494Y-115459463D01*
X183974180Y-115400498D01*
X183854482Y-115364188D01*
X183730000Y-115351928D01*
X182030000Y-115351928D01*
X181905518Y-115364188D01*
X181785820Y-115400498D01*
X181675506Y-115459463D01*
X181578815Y-115538815D01*
X181499463Y-115635506D01*
X181440498Y-115745820D01*
X181418487Y-115818380D01*
X181286632Y-115686525D01*
X181043411Y-115524010D01*
X180773158Y-115412068D01*
X180486260Y-115355000D01*
X180193740Y-115355000D01*
X179906842Y-115412068D01*
X179636589Y-115524010D01*
X179393368Y-115686525D01*
X179186525Y-115893368D01*
X179024010Y-116136589D01*
X178912068Y-116406842D01*
X178855000Y-116693740D01*
X171319801Y-116693740D01*
X171377600Y-116655120D01*
X171572185Y-116460535D01*
X171725070Y-116231727D01*
X171830379Y-115977490D01*
X171884065Y-115707592D01*
X171884065Y-115432408D01*
X171830379Y-115162510D01*
X171725070Y-114908273D01*
X171572185Y-114679465D01*
X171377600Y-114484880D01*
X171148792Y-114331995D01*
X171071550Y-114300000D01*
X171148792Y-114268005D01*
X171377600Y-114115120D01*
X171572185Y-113920535D01*
X171725070Y-113691727D01*
X171830379Y-113437490D01*
X171884065Y-113167592D01*
X171884065Y-112892408D01*
X171830379Y-112622510D01*
X171725070Y-112368273D01*
X171572185Y-112139465D01*
X171377600Y-111944880D01*
X171148792Y-111791995D01*
X171071550Y-111760000D01*
X171148792Y-111728005D01*
X171377600Y-111575120D01*
X171572185Y-111380535D01*
X171725070Y-111151727D01*
X171830379Y-110897490D01*
X171884065Y-110627592D01*
X171884065Y-110352408D01*
X171882341Y-110343740D01*
X178855000Y-110343740D01*
X178855000Y-110636260D01*
X178912068Y-110923158D01*
X179024010Y-111193411D01*
X179186525Y-111436632D01*
X179393368Y-111643475D01*
X179636589Y-111805990D01*
X179906842Y-111917932D01*
X180193740Y-111975000D01*
X180486260Y-111975000D01*
X180773158Y-111917932D01*
X181043411Y-111805990D01*
X181286632Y-111643475D01*
X181418487Y-111511620D01*
X181440498Y-111584180D01*
X181499463Y-111694494D01*
X181578815Y-111791185D01*
X181675506Y-111870537D01*
X181785820Y-111929502D01*
X181905518Y-111965812D01*
X182030000Y-111978072D01*
X183730000Y-111978072D01*
X183854482Y-111965812D01*
X183974180Y-111929502D01*
X184084494Y-111870537D01*
X184181185Y-111791185D01*
X184260537Y-111694494D01*
X184319502Y-111584180D01*
X184355812Y-111464482D01*
X184368072Y-111340000D01*
X184368072Y-109640000D01*
X184355812Y-109515518D01*
X184319502Y-109395820D01*
X184260537Y-109285506D01*
X184181185Y-109188815D01*
X184084494Y-109109463D01*
X183974180Y-109050498D01*
X183854482Y-109014188D01*
X183730000Y-109001928D01*
X182030000Y-109001928D01*
X181905518Y-109014188D01*
X181785820Y-109050498D01*
X181675506Y-109109463D01*
X181578815Y-109188815D01*
X181499463Y-109285506D01*
X181440498Y-109395820D01*
X181418487Y-109468380D01*
X181286632Y-109336525D01*
X181043411Y-109174010D01*
X180773158Y-109062068D01*
X180486260Y-109005000D01*
X180193740Y-109005000D01*
X179906842Y-109062068D01*
X179636589Y-109174010D01*
X179393368Y-109336525D01*
X179186525Y-109543368D01*
X179024010Y-109786589D01*
X178912068Y-110056842D01*
X178855000Y-110343740D01*
X171882341Y-110343740D01*
X171830379Y-110082510D01*
X171725070Y-109828273D01*
X171572185Y-109599465D01*
X171377600Y-109404880D01*
X171148792Y-109251995D01*
X171071550Y-109220000D01*
X171148792Y-109188005D01*
X171377600Y-109035120D01*
X171572185Y-108840535D01*
X171725070Y-108611727D01*
X171830379Y-108357490D01*
X171884065Y-108087592D01*
X171884065Y-107812408D01*
X171830379Y-107542510D01*
X171725070Y-107288273D01*
X171572185Y-107059465D01*
X171377600Y-106864880D01*
X171148792Y-106711995D01*
X171071550Y-106680000D01*
X171148792Y-106648005D01*
X171377600Y-106495120D01*
X171572185Y-106300535D01*
X171725070Y-106071727D01*
X171830379Y-105817490D01*
X171884065Y-105547592D01*
X171884065Y-105272408D01*
X171830379Y-105002510D01*
X171725070Y-104748273D01*
X171572185Y-104519465D01*
X171377600Y-104324880D01*
X171148792Y-104171995D01*
X171071550Y-104140000D01*
X171148792Y-104108005D01*
X171319801Y-103993740D01*
X178855000Y-103993740D01*
X178855000Y-104286260D01*
X178912068Y-104573158D01*
X179024010Y-104843411D01*
X179186525Y-105086632D01*
X179393368Y-105293475D01*
X179636589Y-105455990D01*
X179906842Y-105567932D01*
X180193740Y-105625000D01*
X180486260Y-105625000D01*
X180773158Y-105567932D01*
X181043411Y-105455990D01*
X181286632Y-105293475D01*
X181418487Y-105161620D01*
X181440498Y-105234180D01*
X181499463Y-105344494D01*
X181578815Y-105441185D01*
X181675506Y-105520537D01*
X181785820Y-105579502D01*
X181905518Y-105615812D01*
X182030000Y-105628072D01*
X183730000Y-105628072D01*
X183854482Y-105615812D01*
X183974180Y-105579502D01*
X184084494Y-105520537D01*
X184181185Y-105441185D01*
X184260537Y-105344494D01*
X184319502Y-105234180D01*
X184355812Y-105114482D01*
X184368072Y-104990000D01*
X184368072Y-103290000D01*
X184355812Y-103165518D01*
X184319502Y-103045820D01*
X184260537Y-102935506D01*
X184181185Y-102838815D01*
X184084494Y-102759463D01*
X183974180Y-102700498D01*
X183854482Y-102664188D01*
X183730000Y-102651928D01*
X182030000Y-102651928D01*
X181905518Y-102664188D01*
X181785820Y-102700498D01*
X181675506Y-102759463D01*
X181578815Y-102838815D01*
X181499463Y-102935506D01*
X181440498Y-103045820D01*
X181418487Y-103118380D01*
X181286632Y-102986525D01*
X181043411Y-102824010D01*
X180773158Y-102712068D01*
X180486260Y-102655000D01*
X180193740Y-102655000D01*
X179906842Y-102712068D01*
X179636589Y-102824010D01*
X179393368Y-102986525D01*
X179186525Y-103193368D01*
X179024010Y-103436589D01*
X178912068Y-103706842D01*
X178855000Y-103993740D01*
X171319801Y-103993740D01*
X171377600Y-103955120D01*
X171572185Y-103760535D01*
X171725070Y-103531727D01*
X171830379Y-103277490D01*
X171884065Y-103007592D01*
X171884065Y-102732408D01*
X171830379Y-102462510D01*
X171725070Y-102208273D01*
X171572185Y-101979465D01*
X171377600Y-101784880D01*
X171148792Y-101631995D01*
X171071550Y-101600000D01*
X171148792Y-101568005D01*
X171377600Y-101415120D01*
X171572185Y-101220535D01*
X171725070Y-100991727D01*
X171830379Y-100737490D01*
X171884065Y-100467592D01*
X171884065Y-100192408D01*
X171830379Y-99922510D01*
X171725070Y-99668273D01*
X171572185Y-99439465D01*
X171377600Y-99244880D01*
X171148792Y-99091995D01*
X170894555Y-98986686D01*
X170624657Y-98933000D01*
X170499624Y-98933000D01*
X170811676Y-98803744D01*
X171276007Y-98493488D01*
X171670888Y-98098607D01*
X171974820Y-97643740D01*
X178855000Y-97643740D01*
X178855000Y-97936260D01*
X178912068Y-98223158D01*
X179024010Y-98493411D01*
X179186525Y-98736632D01*
X179393368Y-98943475D01*
X179636589Y-99105990D01*
X179906842Y-99217932D01*
X180193740Y-99275000D01*
X180486260Y-99275000D01*
X180773158Y-99217932D01*
X181043411Y-99105990D01*
X181286632Y-98943475D01*
X181418487Y-98811620D01*
X181440498Y-98884180D01*
X181499463Y-98994494D01*
X181578815Y-99091185D01*
X181675506Y-99170537D01*
X181785820Y-99229502D01*
X181905518Y-99265812D01*
X182030000Y-99278072D01*
X183730000Y-99278072D01*
X183854482Y-99265812D01*
X183974180Y-99229502D01*
X184084494Y-99170537D01*
X184181185Y-99091185D01*
X184260537Y-98994494D01*
X184319502Y-98884180D01*
X184355812Y-98764482D01*
X184368072Y-98640000D01*
X184368072Y-96940000D01*
X184355812Y-96815518D01*
X184319502Y-96695820D01*
X184260537Y-96585506D01*
X184181185Y-96488815D01*
X184084494Y-96409463D01*
X183974180Y-96350498D01*
X183854482Y-96314188D01*
X183730000Y-96301928D01*
X182030000Y-96301928D01*
X181905518Y-96314188D01*
X181785820Y-96350498D01*
X181675506Y-96409463D01*
X181578815Y-96488815D01*
X181499463Y-96585506D01*
X181440498Y-96695820D01*
X181418487Y-96768380D01*
X181286632Y-96636525D01*
X181043411Y-96474010D01*
X180773158Y-96362068D01*
X180486260Y-96305000D01*
X180193740Y-96305000D01*
X179906842Y-96362068D01*
X179636589Y-96474010D01*
X179393368Y-96636525D01*
X179186525Y-96843368D01*
X179024010Y-97086589D01*
X178912068Y-97356842D01*
X178855000Y-97643740D01*
X171974820Y-97643740D01*
X171981144Y-97634276D01*
X172194852Y-97118339D01*
X172303800Y-96570623D01*
X172303800Y-96012177D01*
X172194852Y-95464461D01*
X171981144Y-94948524D01*
X171670888Y-94484193D01*
X171276007Y-94089312D01*
X170811676Y-93779056D01*
X170295739Y-93565348D01*
X169748023Y-93456400D01*
X169189577Y-93456400D01*
X168641861Y-93565348D01*
X168125924Y-93779056D01*
X167661593Y-94089312D01*
X167266712Y-94484193D01*
X166956456Y-94948524D01*
X166742748Y-95464461D01*
X166633800Y-96012177D01*
X148910400Y-96012177D01*
X148801452Y-95464461D01*
X148587744Y-94948524D01*
X148277488Y-94484193D01*
X147882607Y-94089312D01*
X147418276Y-93779056D01*
X146902339Y-93565348D01*
X146354623Y-93456400D01*
X145796177Y-93456400D01*
X145248461Y-93565348D01*
X144732524Y-93779056D01*
X144268193Y-94089312D01*
X144170000Y-94187505D01*
X144170000Y-91293740D01*
X178855000Y-91293740D01*
X178855000Y-91586260D01*
X178912068Y-91873158D01*
X179024010Y-92143411D01*
X179186525Y-92386632D01*
X179393368Y-92593475D01*
X179636589Y-92755990D01*
X179906842Y-92867932D01*
X180193740Y-92925000D01*
X180486260Y-92925000D01*
X180773158Y-92867932D01*
X181043411Y-92755990D01*
X181286632Y-92593475D01*
X181418487Y-92461620D01*
X181440498Y-92534180D01*
X181499463Y-92644494D01*
X181578815Y-92741185D01*
X181675506Y-92820537D01*
X181785820Y-92879502D01*
X181905518Y-92915812D01*
X182030000Y-92928072D01*
X183730000Y-92928072D01*
X183854482Y-92915812D01*
X183974180Y-92879502D01*
X184084494Y-92820537D01*
X184181185Y-92741185D01*
X184260537Y-92644494D01*
X184319502Y-92534180D01*
X184355812Y-92414482D01*
X184368072Y-92290000D01*
X184368072Y-90590000D01*
X184355812Y-90465518D01*
X184319502Y-90345820D01*
X184260537Y-90235506D01*
X184181185Y-90138815D01*
X184084494Y-90059463D01*
X183974180Y-90000498D01*
X183854482Y-89964188D01*
X183730000Y-89951928D01*
X182030000Y-89951928D01*
X181905518Y-89964188D01*
X181785820Y-90000498D01*
X181675506Y-90059463D01*
X181578815Y-90138815D01*
X181499463Y-90235506D01*
X181440498Y-90345820D01*
X181418487Y-90418380D01*
X181286632Y-90286525D01*
X181043411Y-90124010D01*
X180773158Y-90012068D01*
X180486260Y-89955000D01*
X180193740Y-89955000D01*
X179906842Y-90012068D01*
X179636589Y-90124010D01*
X179393368Y-90286525D01*
X179186525Y-90493368D01*
X179024010Y-90736589D01*
X178912068Y-91006842D01*
X178855000Y-91293740D01*
X144170000Y-91293740D01*
X144170000Y-84970000D01*
X147831928Y-84970000D01*
X147831928Y-87750000D01*
X147844188Y-87874482D01*
X147880498Y-87994180D01*
X147939463Y-88104494D01*
X148018815Y-88201185D01*
X148115506Y-88280537D01*
X148225820Y-88339502D01*
X148345518Y-88375812D01*
X148470000Y-88388072D01*
X151250000Y-88388072D01*
X151374482Y-88375812D01*
X151494180Y-88339502D01*
X151604494Y-88280537D01*
X151701185Y-88201185D01*
X151780537Y-88104494D01*
X151839502Y-87994180D01*
X151875812Y-87874482D01*
X151888072Y-87750000D01*
X151888072Y-86160555D01*
X163075000Y-86160555D01*
X163075000Y-86559445D01*
X163152820Y-86950671D01*
X163305468Y-87319197D01*
X163527080Y-87650862D01*
X163809138Y-87932920D01*
X164140803Y-88154532D01*
X164509329Y-88307180D01*
X164900555Y-88385000D01*
X165299445Y-88385000D01*
X165690671Y-88307180D01*
X166059197Y-88154532D01*
X166390862Y-87932920D01*
X166672920Y-87650862D01*
X166894532Y-87319197D01*
X167047180Y-86950671D01*
X167125000Y-86559445D01*
X167125000Y-86160555D01*
X167047180Y-85769329D01*
X166894532Y-85400803D01*
X166672920Y-85069138D01*
X166547522Y-84943740D01*
X178855000Y-84943740D01*
X178855000Y-85236260D01*
X178912068Y-85523158D01*
X179024010Y-85793411D01*
X179186525Y-86036632D01*
X179393368Y-86243475D01*
X179636589Y-86405990D01*
X179906842Y-86517932D01*
X180193740Y-86575000D01*
X180486260Y-86575000D01*
X180773158Y-86517932D01*
X181043411Y-86405990D01*
X181286632Y-86243475D01*
X181418487Y-86111620D01*
X181440498Y-86184180D01*
X181499463Y-86294494D01*
X181578815Y-86391185D01*
X181675506Y-86470537D01*
X181785820Y-86529502D01*
X181905518Y-86565812D01*
X182030000Y-86578072D01*
X183730000Y-86578072D01*
X183854482Y-86565812D01*
X183974180Y-86529502D01*
X184084494Y-86470537D01*
X184181185Y-86391185D01*
X184260537Y-86294494D01*
X184319502Y-86184180D01*
X184355812Y-86064482D01*
X184368072Y-85940000D01*
X184368072Y-84240000D01*
X184355812Y-84115518D01*
X184319502Y-83995820D01*
X184260537Y-83885506D01*
X184181185Y-83788815D01*
X184084494Y-83709463D01*
X183974180Y-83650498D01*
X183854482Y-83614188D01*
X183730000Y-83601928D01*
X182030000Y-83601928D01*
X181905518Y-83614188D01*
X181785820Y-83650498D01*
X181675506Y-83709463D01*
X181578815Y-83788815D01*
X181499463Y-83885506D01*
X181440498Y-83995820D01*
X181418487Y-84068380D01*
X181286632Y-83936525D01*
X181043411Y-83774010D01*
X180773158Y-83662068D01*
X180486260Y-83605000D01*
X180193740Y-83605000D01*
X179906842Y-83662068D01*
X179636589Y-83774010D01*
X179393368Y-83936525D01*
X179186525Y-84143368D01*
X179024010Y-84386589D01*
X178912068Y-84656842D01*
X178855000Y-84943740D01*
X166547522Y-84943740D01*
X166390862Y-84787080D01*
X166059197Y-84565468D01*
X165690671Y-84412820D01*
X165299445Y-84335000D01*
X164900555Y-84335000D01*
X164509329Y-84412820D01*
X164140803Y-84565468D01*
X163809138Y-84787080D01*
X163527080Y-85069138D01*
X163305468Y-85400803D01*
X163152820Y-85769329D01*
X163075000Y-86160555D01*
X151888072Y-86160555D01*
X151888072Y-84970000D01*
X151875812Y-84845518D01*
X151839502Y-84725820D01*
X151780537Y-84615506D01*
X151701185Y-84518815D01*
X151604494Y-84439463D01*
X151494180Y-84380498D01*
X151374482Y-84344188D01*
X151250000Y-84331928D01*
X148470000Y-84331928D01*
X148345518Y-84344188D01*
X148225820Y-84380498D01*
X148115506Y-84439463D01*
X148018815Y-84518815D01*
X147939463Y-84615506D01*
X147880498Y-84725820D01*
X147844188Y-84845518D01*
X147831928Y-84970000D01*
X144170000Y-84970000D01*
X144170000Y-80919317D01*
X144172764Y-80920462D01*
X144406727Y-80967000D01*
X144645273Y-80967000D01*
X144879236Y-80920462D01*
X145099624Y-80829175D01*
X145297968Y-80696646D01*
X145466646Y-80527968D01*
X145599175Y-80329624D01*
X145690462Y-80109236D01*
X145737000Y-79875273D01*
X145737000Y-79636727D01*
X145694965Y-79425400D01*
X185514721Y-79425400D01*
X185664869Y-79440122D01*
%TA.AperFunction,Conductor*%
D19*
G36*
X185664869Y-79440122D02*
G01*
X185778246Y-79474353D01*
X185882819Y-79529955D01*
X185974596Y-79604807D01*
X186050091Y-79696064D01*
X186106419Y-79800244D01*
X186141440Y-79913376D01*
X186157001Y-80061431D01*
X186157000Y-144098826D01*
X186047273Y-144077000D01*
X185808727Y-144077000D01*
X185574764Y-144123538D01*
X185354376Y-144214825D01*
X185156032Y-144347354D01*
X184987354Y-144516032D01*
X184854825Y-144714376D01*
X184763538Y-144934764D01*
X184717000Y-145168727D01*
X184717000Y-145407273D01*
X184763538Y-145641236D01*
X184764683Y-145644000D01*
X171648895Y-145644000D01*
X171696288Y-145596607D01*
X172006544Y-145132276D01*
X172220252Y-144616339D01*
X172329200Y-144068623D01*
X172329200Y-143510177D01*
X172220252Y-142962461D01*
X172006544Y-142446524D01*
X171770822Y-142093740D01*
X178855000Y-142093740D01*
X178855000Y-142386260D01*
X178912068Y-142673158D01*
X179024010Y-142943411D01*
X179186525Y-143186632D01*
X179393368Y-143393475D01*
X179636589Y-143555990D01*
X179906842Y-143667932D01*
X180193740Y-143725000D01*
X180486260Y-143725000D01*
X180773158Y-143667932D01*
X181043411Y-143555990D01*
X181286632Y-143393475D01*
X181418487Y-143261620D01*
X181440498Y-143334180D01*
X181499463Y-143444494D01*
X181578815Y-143541185D01*
X181675506Y-143620537D01*
X181785820Y-143679502D01*
X181905518Y-143715812D01*
X182030000Y-143728072D01*
X183730000Y-143728072D01*
X183854482Y-143715812D01*
X183974180Y-143679502D01*
X184084494Y-143620537D01*
X184181185Y-143541185D01*
X184260537Y-143444494D01*
X184319502Y-143334180D01*
X184355812Y-143214482D01*
X184368072Y-143090000D01*
X184368072Y-141390000D01*
X184355812Y-141265518D01*
X184319502Y-141145820D01*
X184260537Y-141035506D01*
X184181185Y-140938815D01*
X184084494Y-140859463D01*
X183974180Y-140800498D01*
X183854482Y-140764188D01*
X183730000Y-140751928D01*
X182030000Y-140751928D01*
X181905518Y-140764188D01*
X181785820Y-140800498D01*
X181675506Y-140859463D01*
X181578815Y-140938815D01*
X181499463Y-141035506D01*
X181440498Y-141145820D01*
X181418487Y-141218380D01*
X181286632Y-141086525D01*
X181043411Y-140924010D01*
X180773158Y-140812068D01*
X180486260Y-140755000D01*
X180193740Y-140755000D01*
X179906842Y-140812068D01*
X179636589Y-140924010D01*
X179393368Y-141086525D01*
X179186525Y-141293368D01*
X179024010Y-141536589D01*
X178912068Y-141806842D01*
X178855000Y-142093740D01*
X171770822Y-142093740D01*
X171696288Y-141982193D01*
X171301407Y-141587312D01*
X170837076Y-141277056D01*
X170321139Y-141063348D01*
X169773423Y-140954400D01*
X169214977Y-140954400D01*
X168667261Y-141063348D01*
X168151324Y-141277056D01*
X167686993Y-141587312D01*
X167292112Y-141982193D01*
X166981856Y-142446524D01*
X166768148Y-142962461D01*
X166659200Y-143510177D01*
X166659200Y-144068623D01*
X166768148Y-144616339D01*
X166981856Y-145132276D01*
X167292112Y-145596607D01*
X167339505Y-145644000D01*
X148204695Y-145644000D01*
X148277488Y-145571207D01*
X148587744Y-145106876D01*
X148801452Y-144590939D01*
X148910400Y-144043223D01*
X148910400Y-143484777D01*
X148801452Y-142937061D01*
X148587744Y-142421124D01*
X148277488Y-141956793D01*
X147882607Y-141561912D01*
X147418276Y-141251656D01*
X146902339Y-141037948D01*
X146354623Y-140929000D01*
X145796177Y-140929000D01*
X145248461Y-141037948D01*
X144732524Y-141251656D01*
X144268193Y-141561912D01*
X144170000Y-141660105D01*
X144170000Y-136948590D01*
X144196530Y-136975120D01*
X144425338Y-137128005D01*
X144679575Y-137233314D01*
X144949473Y-137287000D01*
X145224657Y-137287000D01*
X145494555Y-137233314D01*
X145748792Y-137128005D01*
X145977600Y-136975120D01*
X146172185Y-136780535D01*
X146325070Y-136551727D01*
X146430379Y-136297490D01*
X146484065Y-136027592D01*
X146484065Y-135752408D01*
X169090065Y-135752408D01*
X169090065Y-136027592D01*
X169143751Y-136297490D01*
X169249060Y-136551727D01*
X169401945Y-136780535D01*
X169596530Y-136975120D01*
X169825338Y-137128005D01*
X170079575Y-137233314D01*
X170349473Y-137287000D01*
X170624657Y-137287000D01*
X170894555Y-137233314D01*
X171148792Y-137128005D01*
X171377600Y-136975120D01*
X171572185Y-136780535D01*
X171725070Y-136551727D01*
X171830379Y-136297490D01*
X171884065Y-136027592D01*
X171884065Y-135752408D01*
X171882341Y-135743740D01*
X178855000Y-135743740D01*
X178855000Y-136036260D01*
X178912068Y-136323158D01*
X179024010Y-136593411D01*
X179186525Y-136836632D01*
X179393368Y-137043475D01*
X179636589Y-137205990D01*
X179906842Y-137317932D01*
X180193740Y-137375000D01*
X180486260Y-137375000D01*
X180773158Y-137317932D01*
X181043411Y-137205990D01*
X181286632Y-137043475D01*
X181418487Y-136911620D01*
X181440498Y-136984180D01*
X181499463Y-137094494D01*
X181578815Y-137191185D01*
X181675506Y-137270537D01*
X181785820Y-137329502D01*
X181905518Y-137365812D01*
X182030000Y-137378072D01*
X183730000Y-137378072D01*
X183854482Y-137365812D01*
X183974180Y-137329502D01*
X184084494Y-137270537D01*
X184181185Y-137191185D01*
X184260537Y-137094494D01*
X184319502Y-136984180D01*
X184355812Y-136864482D01*
X184368072Y-136740000D01*
X184368072Y-135040000D01*
X184355812Y-134915518D01*
X184319502Y-134795820D01*
X184260537Y-134685506D01*
X184181185Y-134588815D01*
X184084494Y-134509463D01*
X183974180Y-134450498D01*
X183854482Y-134414188D01*
X183730000Y-134401928D01*
X182030000Y-134401928D01*
X181905518Y-134414188D01*
X181785820Y-134450498D01*
X181675506Y-134509463D01*
X181578815Y-134588815D01*
X181499463Y-134685506D01*
X181440498Y-134795820D01*
X181418487Y-134868380D01*
X181286632Y-134736525D01*
X181043411Y-134574010D01*
X180773158Y-134462068D01*
X180486260Y-134405000D01*
X180193740Y-134405000D01*
X179906842Y-134462068D01*
X179636589Y-134574010D01*
X179393368Y-134736525D01*
X179186525Y-134943368D01*
X179024010Y-135186589D01*
X178912068Y-135456842D01*
X178855000Y-135743740D01*
X171882341Y-135743740D01*
X171830379Y-135482510D01*
X171725070Y-135228273D01*
X171572185Y-134999465D01*
X171377600Y-134804880D01*
X171148792Y-134651995D01*
X170894555Y-134546686D01*
X170624657Y-134493000D01*
X170349473Y-134493000D01*
X170079575Y-134546686D01*
X169825338Y-134651995D01*
X169596530Y-134804880D01*
X169401945Y-134999465D01*
X169249060Y-135228273D01*
X169143751Y-135482510D01*
X169090065Y-135752408D01*
X146484065Y-135752408D01*
X146430379Y-135482510D01*
X146325070Y-135228273D01*
X146172185Y-134999465D01*
X145977600Y-134804880D01*
X145748792Y-134651995D01*
X145494555Y-134546686D01*
X145224657Y-134493000D01*
X144949473Y-134493000D01*
X144679575Y-134546686D01*
X144425338Y-134651995D01*
X144196530Y-134804880D01*
X144170000Y-134831410D01*
X144170000Y-131868590D01*
X144196530Y-131895120D01*
X144425338Y-132048005D01*
X144679575Y-132153314D01*
X144949473Y-132207000D01*
X145224657Y-132207000D01*
X145494555Y-132153314D01*
X145748792Y-132048005D01*
X145977600Y-131895120D01*
X146172185Y-131700535D01*
X146325070Y-131471727D01*
X146430379Y-131217490D01*
X146484065Y-130947592D01*
X146484065Y-130672408D01*
X146430379Y-130402510D01*
X146325070Y-130148273D01*
X146172185Y-129919465D01*
X145977600Y-129724880D01*
X145748792Y-129571995D01*
X145671550Y-129540000D01*
X145748792Y-129508005D01*
X145977600Y-129355120D01*
X146172185Y-129160535D01*
X146325070Y-128931727D01*
X146430379Y-128677490D01*
X146484065Y-128407592D01*
X146484065Y-128132408D01*
X146430379Y-127862510D01*
X146325070Y-127608273D01*
X146172185Y-127379465D01*
X145977600Y-127184880D01*
X145748792Y-127031995D01*
X145671550Y-127000000D01*
X145748792Y-126968005D01*
X145977600Y-126815120D01*
X146172185Y-126620535D01*
X146325070Y-126391727D01*
X146430379Y-126137490D01*
X146484065Y-125867592D01*
X146484065Y-125592408D01*
X146430379Y-125322510D01*
X146325070Y-125068273D01*
X146172185Y-124839465D01*
X145977600Y-124644880D01*
X145748792Y-124491995D01*
X145671550Y-124460000D01*
X145748792Y-124428005D01*
X145977600Y-124275120D01*
X146172185Y-124080535D01*
X146325070Y-123851727D01*
X146430379Y-123597490D01*
X146484065Y-123327592D01*
X146484065Y-123052408D01*
X146430379Y-122782510D01*
X146325070Y-122528273D01*
X146172185Y-122299465D01*
X145977600Y-122104880D01*
X145748792Y-121951995D01*
X145671550Y-121920000D01*
X145748792Y-121888005D01*
X145977600Y-121735120D01*
X146172185Y-121540535D01*
X146325070Y-121311727D01*
X146430379Y-121057490D01*
X146484065Y-120787592D01*
X146484065Y-120512408D01*
X146430379Y-120242510D01*
X146325070Y-119988273D01*
X146172185Y-119759465D01*
X145977600Y-119564880D01*
X145748792Y-119411995D01*
X145671550Y-119380000D01*
X145748792Y-119348005D01*
X145977600Y-119195120D01*
X146172185Y-119000535D01*
X146325070Y-118771727D01*
X146430379Y-118517490D01*
X146484065Y-118247592D01*
X146484065Y-117972408D01*
X146430379Y-117702510D01*
X146325070Y-117448273D01*
X146172185Y-117219465D01*
X145977600Y-117024880D01*
X145748792Y-116871995D01*
X145671550Y-116840000D01*
X145748792Y-116808005D01*
X145977600Y-116655120D01*
X146172185Y-116460535D01*
X146325070Y-116231727D01*
X146430379Y-115977490D01*
X146484065Y-115707592D01*
X146484065Y-115432408D01*
X146430379Y-115162510D01*
X146325070Y-114908273D01*
X146172185Y-114679465D01*
X145977600Y-114484880D01*
X145748792Y-114331995D01*
X145671550Y-114300000D01*
X145748792Y-114268005D01*
X145977600Y-114115120D01*
X146172185Y-113920535D01*
X146325070Y-113691727D01*
X146430379Y-113437490D01*
X146484065Y-113167592D01*
X146484065Y-112892408D01*
X146430379Y-112622510D01*
X146325070Y-112368273D01*
X146172185Y-112139465D01*
X145977600Y-111944880D01*
X145748792Y-111791995D01*
X145671550Y-111760000D01*
X145748792Y-111728005D01*
X145977600Y-111575120D01*
X146172185Y-111380535D01*
X146325070Y-111151727D01*
X146430379Y-110897490D01*
X146484065Y-110627592D01*
X146484065Y-110352408D01*
X146430379Y-110082510D01*
X146325070Y-109828273D01*
X146172185Y-109599465D01*
X145977600Y-109404880D01*
X145748792Y-109251995D01*
X145671550Y-109220000D01*
X145748792Y-109188005D01*
X145977600Y-109035120D01*
X146172185Y-108840535D01*
X146325070Y-108611727D01*
X146430379Y-108357490D01*
X146484065Y-108087592D01*
X146484065Y-107812408D01*
X146430379Y-107542510D01*
X146325070Y-107288273D01*
X146172185Y-107059465D01*
X145977600Y-106864880D01*
X145748792Y-106711995D01*
X145671550Y-106680000D01*
X145748792Y-106648005D01*
X145977600Y-106495120D01*
X146172185Y-106300535D01*
X146325070Y-106071727D01*
X146430379Y-105817490D01*
X146484065Y-105547592D01*
X146484065Y-105272408D01*
X146430379Y-105002510D01*
X146325070Y-104748273D01*
X146172185Y-104519465D01*
X145977600Y-104324880D01*
X145748792Y-104171995D01*
X145671550Y-104140000D01*
X145748792Y-104108005D01*
X145977600Y-103955120D01*
X146172185Y-103760535D01*
X146325070Y-103531727D01*
X146430379Y-103277490D01*
X146484065Y-103007592D01*
X146484065Y-102732408D01*
X146430379Y-102462510D01*
X146325070Y-102208273D01*
X146172185Y-101979465D01*
X145977600Y-101784880D01*
X145889600Y-101726080D01*
X145973547Y-101717812D01*
X146093245Y-101681502D01*
X146203559Y-101622537D01*
X146300250Y-101543185D01*
X146379602Y-101446494D01*
X146438567Y-101336180D01*
X146474877Y-101216482D01*
X146487137Y-101092000D01*
X146487137Y-99568000D01*
X146474877Y-99443518D01*
X146438567Y-99323820D01*
X146379602Y-99213506D01*
X146308116Y-99126400D01*
X146354623Y-99126400D01*
X146902339Y-99017452D01*
X147418276Y-98803744D01*
X147882607Y-98493488D01*
X148277488Y-98098607D01*
X148587744Y-97634276D01*
X148801452Y-97118339D01*
X148910400Y-96570623D01*
X148910400Y-96012177D01*
X166633800Y-96012177D01*
X166633800Y-96570623D01*
X166742748Y-97118339D01*
X166956456Y-97634276D01*
X167266712Y-98098607D01*
X167661593Y-98493488D01*
X168125924Y-98803744D01*
X168641861Y-99017452D01*
X169189577Y-99126400D01*
X169748023Y-99126400D01*
X169784794Y-99119086D01*
X169596530Y-99244880D01*
X169401945Y-99439465D01*
X169249060Y-99668273D01*
X169143751Y-99922510D01*
X169090065Y-100192408D01*
X169090065Y-100467592D01*
X169143751Y-100737490D01*
X169249060Y-100991727D01*
X169401945Y-101220535D01*
X169596530Y-101415120D01*
X169825338Y-101568005D01*
X169902580Y-101600000D01*
X169825338Y-101631995D01*
X169596530Y-101784880D01*
X169401945Y-101979465D01*
X169249060Y-102208273D01*
X169143751Y-102462510D01*
X169090065Y-102732408D01*
X169090065Y-103007592D01*
X169143751Y-103277490D01*
X169249060Y-103531727D01*
X169401945Y-103760535D01*
X169596530Y-103955120D01*
X169825338Y-104108005D01*
X169902580Y-104140000D01*
X169825338Y-104171995D01*
X169596530Y-104324880D01*
X169401945Y-104519465D01*
X169249060Y-104748273D01*
X169143751Y-105002510D01*
X169090065Y-105272408D01*
X169090065Y-105547592D01*
X169143751Y-105817490D01*
X169249060Y-106071727D01*
X169401945Y-106300535D01*
X169596530Y-106495120D01*
X169825338Y-106648005D01*
X169902580Y-106680000D01*
X169825338Y-106711995D01*
X169596530Y-106864880D01*
X169401945Y-107059465D01*
X169249060Y-107288273D01*
X169143751Y-107542510D01*
X169090065Y-107812408D01*
X169090065Y-108087592D01*
X169143751Y-108357490D01*
X169249060Y-108611727D01*
X169401945Y-108840535D01*
X169596530Y-109035120D01*
X169825338Y-109188005D01*
X169902580Y-109220000D01*
X169825338Y-109251995D01*
X169596530Y-109404880D01*
X169401945Y-109599465D01*
X169249060Y-109828273D01*
X169143751Y-110082510D01*
X169090065Y-110352408D01*
X169090065Y-110627592D01*
X169143751Y-110897490D01*
X169249060Y-111151727D01*
X169401945Y-111380535D01*
X169596530Y-111575120D01*
X169825338Y-111728005D01*
X169902580Y-111760000D01*
X169825338Y-111791995D01*
X169596530Y-111944880D01*
X169401945Y-112139465D01*
X169249060Y-112368273D01*
X169143751Y-112622510D01*
X169090065Y-112892408D01*
X169090065Y-113167592D01*
X169143751Y-113437490D01*
X169249060Y-113691727D01*
X169401945Y-113920535D01*
X169596530Y-114115120D01*
X169825338Y-114268005D01*
X169902580Y-114300000D01*
X169825338Y-114331995D01*
X169596530Y-114484880D01*
X169401945Y-114679465D01*
X169249060Y-114908273D01*
X169143751Y-115162510D01*
X169090065Y-115432408D01*
X169090065Y-115707592D01*
X169143751Y-115977490D01*
X169249060Y-116231727D01*
X169401945Y-116460535D01*
X169596530Y-116655120D01*
X169825338Y-116808005D01*
X169902580Y-116840000D01*
X169825338Y-116871995D01*
X169596530Y-117024880D01*
X169401945Y-117219465D01*
X169249060Y-117448273D01*
X169143751Y-117702510D01*
X169090065Y-117972408D01*
X169090065Y-118247592D01*
X169143751Y-118517490D01*
X169249060Y-118771727D01*
X169401945Y-119000535D01*
X169596530Y-119195120D01*
X169825338Y-119348005D01*
X169902580Y-119380000D01*
X169825338Y-119411995D01*
X169596530Y-119564880D01*
X169401945Y-119759465D01*
X169249060Y-119988273D01*
X169143751Y-120242510D01*
X169090065Y-120512408D01*
X169090065Y-120787592D01*
X169143751Y-121057490D01*
X169249060Y-121311727D01*
X169401945Y-121540535D01*
X169596530Y-121735120D01*
X169825338Y-121888005D01*
X169902580Y-121920000D01*
X169825338Y-121951995D01*
X169596530Y-122104880D01*
X169401945Y-122299465D01*
X169249060Y-122528273D01*
X169143751Y-122782510D01*
X169090065Y-123052408D01*
X169090065Y-123327592D01*
X169143751Y-123597490D01*
X169249060Y-123851727D01*
X169401945Y-124080535D01*
X169596530Y-124275120D01*
X169825338Y-124428005D01*
X169902580Y-124460000D01*
X169825338Y-124491995D01*
X169596530Y-124644880D01*
X169401945Y-124839465D01*
X169249060Y-125068273D01*
X169143751Y-125322510D01*
X169090065Y-125592408D01*
X169090065Y-125867592D01*
X169143751Y-126137490D01*
X169249060Y-126391727D01*
X169401945Y-126620535D01*
X169596530Y-126815120D01*
X169825338Y-126968005D01*
X169902580Y-127000000D01*
X169825338Y-127031995D01*
X169596530Y-127184880D01*
X169401945Y-127379465D01*
X169249060Y-127608273D01*
X169143751Y-127862510D01*
X169090065Y-128132408D01*
X169090065Y-128407592D01*
X169143751Y-128677490D01*
X169249060Y-128931727D01*
X169401945Y-129160535D01*
X169596530Y-129355120D01*
X169825338Y-129508005D01*
X169902580Y-129540000D01*
X169825338Y-129571995D01*
X169596530Y-129724880D01*
X169401945Y-129919465D01*
X169249060Y-130148273D01*
X169143751Y-130402510D01*
X169090065Y-130672408D01*
X169090065Y-130947592D01*
X169143751Y-131217490D01*
X169249060Y-131471727D01*
X169401945Y-131700535D01*
X169596530Y-131895120D01*
X169825338Y-132048005D01*
X170079575Y-132153314D01*
X170349473Y-132207000D01*
X170624657Y-132207000D01*
X170894555Y-132153314D01*
X171148792Y-132048005D01*
X171377600Y-131895120D01*
X171572185Y-131700535D01*
X171725070Y-131471727D01*
X171830379Y-131217490D01*
X171884065Y-130947592D01*
X171884065Y-130672408D01*
X171830379Y-130402510D01*
X171725070Y-130148273D01*
X171572185Y-129919465D01*
X171377600Y-129724880D01*
X171148792Y-129571995D01*
X171071550Y-129540000D01*
X171148792Y-129508005D01*
X171319801Y-129393740D01*
X178855000Y-129393740D01*
X178855000Y-129686260D01*
X178912068Y-129973158D01*
X179024010Y-130243411D01*
X179186525Y-130486632D01*
X179393368Y-130693475D01*
X179636589Y-130855990D01*
X179906842Y-130967932D01*
X180193740Y-131025000D01*
X180486260Y-131025000D01*
X180773158Y-130967932D01*
X181043411Y-130855990D01*
X181286632Y-130693475D01*
X181418487Y-130561620D01*
X181440498Y-130634180D01*
X181499463Y-130744494D01*
X181578815Y-130841185D01*
X181675506Y-130920537D01*
X181785820Y-130979502D01*
X181905518Y-131015812D01*
X182030000Y-131028072D01*
X183730000Y-131028072D01*
X183854482Y-131015812D01*
X183974180Y-130979502D01*
X184084494Y-130920537D01*
X184181185Y-130841185D01*
X184260537Y-130744494D01*
X184319502Y-130634180D01*
X184355812Y-130514482D01*
X184368072Y-130390000D01*
X184368072Y-128690000D01*
X184355812Y-128565518D01*
X184319502Y-128445820D01*
X184260537Y-128335506D01*
X184181185Y-128238815D01*
X184084494Y-128159463D01*
X183974180Y-128100498D01*
X183854482Y-128064188D01*
X183730000Y-128051928D01*
X182030000Y-128051928D01*
X181905518Y-128064188D01*
X181785820Y-128100498D01*
X181675506Y-128159463D01*
X181578815Y-128238815D01*
X181499463Y-128335506D01*
X181440498Y-128445820D01*
X181418487Y-128518380D01*
X181286632Y-128386525D01*
X181043411Y-128224010D01*
X180773158Y-128112068D01*
X180486260Y-128055000D01*
X180193740Y-128055000D01*
X179906842Y-128112068D01*
X179636589Y-128224010D01*
X179393368Y-128386525D01*
X179186525Y-128593368D01*
X179024010Y-128836589D01*
X178912068Y-129106842D01*
X178855000Y-129393740D01*
X171319801Y-129393740D01*
X171377600Y-129355120D01*
X171572185Y-129160535D01*
X171725070Y-128931727D01*
X171830379Y-128677490D01*
X171884065Y-128407592D01*
X171884065Y-128132408D01*
X171830379Y-127862510D01*
X171725070Y-127608273D01*
X171572185Y-127379465D01*
X171377600Y-127184880D01*
X171148792Y-127031995D01*
X171071550Y-127000000D01*
X171148792Y-126968005D01*
X171377600Y-126815120D01*
X171572185Y-126620535D01*
X171725070Y-126391727D01*
X171830379Y-126137490D01*
X171884065Y-125867592D01*
X171884065Y-125592408D01*
X171830379Y-125322510D01*
X171725070Y-125068273D01*
X171572185Y-124839465D01*
X171377600Y-124644880D01*
X171148792Y-124491995D01*
X171071550Y-124460000D01*
X171148792Y-124428005D01*
X171377600Y-124275120D01*
X171572185Y-124080535D01*
X171725070Y-123851727D01*
X171830379Y-123597490D01*
X171884065Y-123327592D01*
X171884065Y-123052408D01*
X171882341Y-123043740D01*
X178855000Y-123043740D01*
X178855000Y-123336260D01*
X178912068Y-123623158D01*
X179024010Y-123893411D01*
X179186525Y-124136632D01*
X179393368Y-124343475D01*
X179636589Y-124505990D01*
X179906842Y-124617932D01*
X180193740Y-124675000D01*
X180486260Y-124675000D01*
X180773158Y-124617932D01*
X181043411Y-124505990D01*
X181286632Y-124343475D01*
X181418487Y-124211620D01*
X181440498Y-124284180D01*
X181499463Y-124394494D01*
X181578815Y-124491185D01*
X181675506Y-124570537D01*
X181785820Y-124629502D01*
X181905518Y-124665812D01*
X182030000Y-124678072D01*
X183730000Y-124678072D01*
X183854482Y-124665812D01*
X183974180Y-124629502D01*
X184084494Y-124570537D01*
X184181185Y-124491185D01*
X184260537Y-124394494D01*
X184319502Y-124284180D01*
X184355812Y-124164482D01*
X184368072Y-124040000D01*
X184368072Y-122340000D01*
X184355812Y-122215518D01*
X184319502Y-122095820D01*
X184260537Y-121985506D01*
X184181185Y-121888815D01*
X184084494Y-121809463D01*
X183974180Y-121750498D01*
X183854482Y-121714188D01*
X183730000Y-121701928D01*
X182030000Y-121701928D01*
X181905518Y-121714188D01*
X181785820Y-121750498D01*
X181675506Y-121809463D01*
X181578815Y-121888815D01*
X181499463Y-121985506D01*
X181440498Y-122095820D01*
X181418487Y-122168380D01*
X181286632Y-122036525D01*
X181043411Y-121874010D01*
X180773158Y-121762068D01*
X180486260Y-121705000D01*
X180193740Y-121705000D01*
X179906842Y-121762068D01*
X179636589Y-121874010D01*
X179393368Y-122036525D01*
X179186525Y-122243368D01*
X179024010Y-122486589D01*
X178912068Y-122756842D01*
X178855000Y-123043740D01*
X171882341Y-123043740D01*
X171830379Y-122782510D01*
X171725070Y-122528273D01*
X171572185Y-122299465D01*
X171377600Y-122104880D01*
X171148792Y-121951995D01*
X171071550Y-121920000D01*
X171148792Y-121888005D01*
X171377600Y-121735120D01*
X171572185Y-121540535D01*
X171725070Y-121311727D01*
X171830379Y-121057490D01*
X171884065Y-120787592D01*
X171884065Y-120512408D01*
X171830379Y-120242510D01*
X171725070Y-119988273D01*
X171572185Y-119759465D01*
X171377600Y-119564880D01*
X171148792Y-119411995D01*
X171071550Y-119380000D01*
X171148792Y-119348005D01*
X171377600Y-119195120D01*
X171572185Y-119000535D01*
X171725070Y-118771727D01*
X171830379Y-118517490D01*
X171884065Y-118247592D01*
X171884065Y-117972408D01*
X171830379Y-117702510D01*
X171725070Y-117448273D01*
X171572185Y-117219465D01*
X171377600Y-117024880D01*
X171148792Y-116871995D01*
X171071550Y-116840000D01*
X171148792Y-116808005D01*
X171319801Y-116693740D01*
X178855000Y-116693740D01*
X178855000Y-116986260D01*
X178912068Y-117273158D01*
X179024010Y-117543411D01*
X179186525Y-117786632D01*
X179393368Y-117993475D01*
X179636589Y-118155990D01*
X179906842Y-118267932D01*
X180193740Y-118325000D01*
X180486260Y-118325000D01*
X180773158Y-118267932D01*
X181043411Y-118155990D01*
X181286632Y-117993475D01*
X181418487Y-117861620D01*
X181440498Y-117934180D01*
X181499463Y-118044494D01*
X181578815Y-118141185D01*
X181675506Y-118220537D01*
X181785820Y-118279502D01*
X181905518Y-118315812D01*
X182030000Y-118328072D01*
X183730000Y-118328072D01*
X183854482Y-118315812D01*
X183974180Y-118279502D01*
X184084494Y-118220537D01*
X184181185Y-118141185D01*
X184260537Y-118044494D01*
X184319502Y-117934180D01*
X184355812Y-117814482D01*
X184368072Y-117690000D01*
X184368072Y-115990000D01*
X184355812Y-115865518D01*
X184319502Y-115745820D01*
X184260537Y-115635506D01*
X184181185Y-115538815D01*
X184084494Y-115459463D01*
X183974180Y-115400498D01*
X183854482Y-115364188D01*
X183730000Y-115351928D01*
X182030000Y-115351928D01*
X181905518Y-115364188D01*
X181785820Y-115400498D01*
X181675506Y-115459463D01*
X181578815Y-115538815D01*
X181499463Y-115635506D01*
X181440498Y-115745820D01*
X181418487Y-115818380D01*
X181286632Y-115686525D01*
X181043411Y-115524010D01*
X180773158Y-115412068D01*
X180486260Y-115355000D01*
X180193740Y-115355000D01*
X179906842Y-115412068D01*
X179636589Y-115524010D01*
X179393368Y-115686525D01*
X179186525Y-115893368D01*
X179024010Y-116136589D01*
X178912068Y-116406842D01*
X178855000Y-116693740D01*
X171319801Y-116693740D01*
X171377600Y-116655120D01*
X171572185Y-116460535D01*
X171725070Y-116231727D01*
X171830379Y-115977490D01*
X171884065Y-115707592D01*
X171884065Y-115432408D01*
X171830379Y-115162510D01*
X171725070Y-114908273D01*
X171572185Y-114679465D01*
X171377600Y-114484880D01*
X171148792Y-114331995D01*
X171071550Y-114300000D01*
X171148792Y-114268005D01*
X171377600Y-114115120D01*
X171572185Y-113920535D01*
X171725070Y-113691727D01*
X171830379Y-113437490D01*
X171884065Y-113167592D01*
X171884065Y-112892408D01*
X171830379Y-112622510D01*
X171725070Y-112368273D01*
X171572185Y-112139465D01*
X171377600Y-111944880D01*
X171148792Y-111791995D01*
X171071550Y-111760000D01*
X171148792Y-111728005D01*
X171377600Y-111575120D01*
X171572185Y-111380535D01*
X171725070Y-111151727D01*
X171830379Y-110897490D01*
X171884065Y-110627592D01*
X171884065Y-110352408D01*
X171882341Y-110343740D01*
X178855000Y-110343740D01*
X178855000Y-110636260D01*
X178912068Y-110923158D01*
X179024010Y-111193411D01*
X179186525Y-111436632D01*
X179393368Y-111643475D01*
X179636589Y-111805990D01*
X179906842Y-111917932D01*
X180193740Y-111975000D01*
X180486260Y-111975000D01*
X180773158Y-111917932D01*
X181043411Y-111805990D01*
X181286632Y-111643475D01*
X181418487Y-111511620D01*
X181440498Y-111584180D01*
X181499463Y-111694494D01*
X181578815Y-111791185D01*
X181675506Y-111870537D01*
X181785820Y-111929502D01*
X181905518Y-111965812D01*
X182030000Y-111978072D01*
X183730000Y-111978072D01*
X183854482Y-111965812D01*
X183974180Y-111929502D01*
X184084494Y-111870537D01*
X184181185Y-111791185D01*
X184260537Y-111694494D01*
X184319502Y-111584180D01*
X184355812Y-111464482D01*
X184368072Y-111340000D01*
X184368072Y-109640000D01*
X184355812Y-109515518D01*
X184319502Y-109395820D01*
X184260537Y-109285506D01*
X184181185Y-109188815D01*
X184084494Y-109109463D01*
X183974180Y-109050498D01*
X183854482Y-109014188D01*
X183730000Y-109001928D01*
X182030000Y-109001928D01*
X181905518Y-109014188D01*
X181785820Y-109050498D01*
X181675506Y-109109463D01*
X181578815Y-109188815D01*
X181499463Y-109285506D01*
X181440498Y-109395820D01*
X181418487Y-109468380D01*
X181286632Y-109336525D01*
X181043411Y-109174010D01*
X180773158Y-109062068D01*
X180486260Y-109005000D01*
X180193740Y-109005000D01*
X179906842Y-109062068D01*
X179636589Y-109174010D01*
X179393368Y-109336525D01*
X179186525Y-109543368D01*
X179024010Y-109786589D01*
X178912068Y-110056842D01*
X178855000Y-110343740D01*
X171882341Y-110343740D01*
X171830379Y-110082510D01*
X171725070Y-109828273D01*
X171572185Y-109599465D01*
X171377600Y-109404880D01*
X171148792Y-109251995D01*
X171071550Y-109220000D01*
X171148792Y-109188005D01*
X171377600Y-109035120D01*
X171572185Y-108840535D01*
X171725070Y-108611727D01*
X171830379Y-108357490D01*
X171884065Y-108087592D01*
X171884065Y-107812408D01*
X171830379Y-107542510D01*
X171725070Y-107288273D01*
X171572185Y-107059465D01*
X171377600Y-106864880D01*
X171148792Y-106711995D01*
X171071550Y-106680000D01*
X171148792Y-106648005D01*
X171377600Y-106495120D01*
X171572185Y-106300535D01*
X171725070Y-106071727D01*
X171830379Y-105817490D01*
X171884065Y-105547592D01*
X171884065Y-105272408D01*
X171830379Y-105002510D01*
X171725070Y-104748273D01*
X171572185Y-104519465D01*
X171377600Y-104324880D01*
X171148792Y-104171995D01*
X171071550Y-104140000D01*
X171148792Y-104108005D01*
X171319801Y-103993740D01*
X178855000Y-103993740D01*
X178855000Y-104286260D01*
X178912068Y-104573158D01*
X179024010Y-104843411D01*
X179186525Y-105086632D01*
X179393368Y-105293475D01*
X179636589Y-105455990D01*
X179906842Y-105567932D01*
X180193740Y-105625000D01*
X180486260Y-105625000D01*
X180773158Y-105567932D01*
X181043411Y-105455990D01*
X181286632Y-105293475D01*
X181418487Y-105161620D01*
X181440498Y-105234180D01*
X181499463Y-105344494D01*
X181578815Y-105441185D01*
X181675506Y-105520537D01*
X181785820Y-105579502D01*
X181905518Y-105615812D01*
X182030000Y-105628072D01*
X183730000Y-105628072D01*
X183854482Y-105615812D01*
X183974180Y-105579502D01*
X184084494Y-105520537D01*
X184181185Y-105441185D01*
X184260537Y-105344494D01*
X184319502Y-105234180D01*
X184355812Y-105114482D01*
X184368072Y-104990000D01*
X184368072Y-103290000D01*
X184355812Y-103165518D01*
X184319502Y-103045820D01*
X184260537Y-102935506D01*
X184181185Y-102838815D01*
X184084494Y-102759463D01*
X183974180Y-102700498D01*
X183854482Y-102664188D01*
X183730000Y-102651928D01*
X182030000Y-102651928D01*
X181905518Y-102664188D01*
X181785820Y-102700498D01*
X181675506Y-102759463D01*
X181578815Y-102838815D01*
X181499463Y-102935506D01*
X181440498Y-103045820D01*
X181418487Y-103118380D01*
X181286632Y-102986525D01*
X181043411Y-102824010D01*
X180773158Y-102712068D01*
X180486260Y-102655000D01*
X180193740Y-102655000D01*
X179906842Y-102712068D01*
X179636589Y-102824010D01*
X179393368Y-102986525D01*
X179186525Y-103193368D01*
X179024010Y-103436589D01*
X178912068Y-103706842D01*
X178855000Y-103993740D01*
X171319801Y-103993740D01*
X171377600Y-103955120D01*
X171572185Y-103760535D01*
X171725070Y-103531727D01*
X171830379Y-103277490D01*
X171884065Y-103007592D01*
X171884065Y-102732408D01*
X171830379Y-102462510D01*
X171725070Y-102208273D01*
X171572185Y-101979465D01*
X171377600Y-101784880D01*
X171148792Y-101631995D01*
X171071550Y-101600000D01*
X171148792Y-101568005D01*
X171377600Y-101415120D01*
X171572185Y-101220535D01*
X171725070Y-100991727D01*
X171830379Y-100737490D01*
X171884065Y-100467592D01*
X171884065Y-100192408D01*
X171830379Y-99922510D01*
X171725070Y-99668273D01*
X171572185Y-99439465D01*
X171377600Y-99244880D01*
X171148792Y-99091995D01*
X170894555Y-98986686D01*
X170624657Y-98933000D01*
X170499624Y-98933000D01*
X170811676Y-98803744D01*
X171276007Y-98493488D01*
X171670888Y-98098607D01*
X171974820Y-97643740D01*
X178855000Y-97643740D01*
X178855000Y-97936260D01*
X178912068Y-98223158D01*
X179024010Y-98493411D01*
X179186525Y-98736632D01*
X179393368Y-98943475D01*
X179636589Y-99105990D01*
X179906842Y-99217932D01*
X180193740Y-99275000D01*
X180486260Y-99275000D01*
X180773158Y-99217932D01*
X181043411Y-99105990D01*
X181286632Y-98943475D01*
X181418487Y-98811620D01*
X181440498Y-98884180D01*
X181499463Y-98994494D01*
X181578815Y-99091185D01*
X181675506Y-99170537D01*
X181785820Y-99229502D01*
X181905518Y-99265812D01*
X182030000Y-99278072D01*
X183730000Y-99278072D01*
X183854482Y-99265812D01*
X183974180Y-99229502D01*
X184084494Y-99170537D01*
X184181185Y-99091185D01*
X184260537Y-98994494D01*
X184319502Y-98884180D01*
X184355812Y-98764482D01*
X184368072Y-98640000D01*
X184368072Y-96940000D01*
X184355812Y-96815518D01*
X184319502Y-96695820D01*
X184260537Y-96585506D01*
X184181185Y-96488815D01*
X184084494Y-96409463D01*
X183974180Y-96350498D01*
X183854482Y-96314188D01*
X183730000Y-96301928D01*
X182030000Y-96301928D01*
X181905518Y-96314188D01*
X181785820Y-96350498D01*
X181675506Y-96409463D01*
X181578815Y-96488815D01*
X181499463Y-96585506D01*
X181440498Y-96695820D01*
X181418487Y-96768380D01*
X181286632Y-96636525D01*
X181043411Y-96474010D01*
X180773158Y-96362068D01*
X180486260Y-96305000D01*
X180193740Y-96305000D01*
X179906842Y-96362068D01*
X179636589Y-96474010D01*
X179393368Y-96636525D01*
X179186525Y-96843368D01*
X179024010Y-97086589D01*
X178912068Y-97356842D01*
X178855000Y-97643740D01*
X171974820Y-97643740D01*
X171981144Y-97634276D01*
X172194852Y-97118339D01*
X172303800Y-96570623D01*
X172303800Y-96012177D01*
X172194852Y-95464461D01*
X171981144Y-94948524D01*
X171670888Y-94484193D01*
X171276007Y-94089312D01*
X170811676Y-93779056D01*
X170295739Y-93565348D01*
X169748023Y-93456400D01*
X169189577Y-93456400D01*
X168641861Y-93565348D01*
X168125924Y-93779056D01*
X167661593Y-94089312D01*
X167266712Y-94484193D01*
X166956456Y-94948524D01*
X166742748Y-95464461D01*
X166633800Y-96012177D01*
X148910400Y-96012177D01*
X148801452Y-95464461D01*
X148587744Y-94948524D01*
X148277488Y-94484193D01*
X147882607Y-94089312D01*
X147418276Y-93779056D01*
X146902339Y-93565348D01*
X146354623Y-93456400D01*
X145796177Y-93456400D01*
X145248461Y-93565348D01*
X144732524Y-93779056D01*
X144268193Y-94089312D01*
X144170000Y-94187505D01*
X144170000Y-91293740D01*
X178855000Y-91293740D01*
X178855000Y-91586260D01*
X178912068Y-91873158D01*
X179024010Y-92143411D01*
X179186525Y-92386632D01*
X179393368Y-92593475D01*
X179636589Y-92755990D01*
X179906842Y-92867932D01*
X180193740Y-92925000D01*
X180486260Y-92925000D01*
X180773158Y-92867932D01*
X181043411Y-92755990D01*
X181286632Y-92593475D01*
X181418487Y-92461620D01*
X181440498Y-92534180D01*
X181499463Y-92644494D01*
X181578815Y-92741185D01*
X181675506Y-92820537D01*
X181785820Y-92879502D01*
X181905518Y-92915812D01*
X182030000Y-92928072D01*
X183730000Y-92928072D01*
X183854482Y-92915812D01*
X183974180Y-92879502D01*
X184084494Y-92820537D01*
X184181185Y-92741185D01*
X184260537Y-92644494D01*
X184319502Y-92534180D01*
X184355812Y-92414482D01*
X184368072Y-92290000D01*
X184368072Y-90590000D01*
X184355812Y-90465518D01*
X184319502Y-90345820D01*
X184260537Y-90235506D01*
X184181185Y-90138815D01*
X184084494Y-90059463D01*
X183974180Y-90000498D01*
X183854482Y-89964188D01*
X183730000Y-89951928D01*
X182030000Y-89951928D01*
X181905518Y-89964188D01*
X181785820Y-90000498D01*
X181675506Y-90059463D01*
X181578815Y-90138815D01*
X181499463Y-90235506D01*
X181440498Y-90345820D01*
X181418487Y-90418380D01*
X181286632Y-90286525D01*
X181043411Y-90124010D01*
X180773158Y-90012068D01*
X180486260Y-89955000D01*
X180193740Y-89955000D01*
X179906842Y-90012068D01*
X179636589Y-90124010D01*
X179393368Y-90286525D01*
X179186525Y-90493368D01*
X179024010Y-90736589D01*
X178912068Y-91006842D01*
X178855000Y-91293740D01*
X144170000Y-91293740D01*
X144170000Y-84970000D01*
X147831928Y-84970000D01*
X147831928Y-87750000D01*
X147844188Y-87874482D01*
X147880498Y-87994180D01*
X147939463Y-88104494D01*
X148018815Y-88201185D01*
X148115506Y-88280537D01*
X148225820Y-88339502D01*
X148345518Y-88375812D01*
X148470000Y-88388072D01*
X151250000Y-88388072D01*
X151374482Y-88375812D01*
X151494180Y-88339502D01*
X151604494Y-88280537D01*
X151701185Y-88201185D01*
X151780537Y-88104494D01*
X151839502Y-87994180D01*
X151875812Y-87874482D01*
X151888072Y-87750000D01*
X151888072Y-86160555D01*
X163075000Y-86160555D01*
X163075000Y-86559445D01*
X163152820Y-86950671D01*
X163305468Y-87319197D01*
X163527080Y-87650862D01*
X163809138Y-87932920D01*
X164140803Y-88154532D01*
X164509329Y-88307180D01*
X164900555Y-88385000D01*
X165299445Y-88385000D01*
X165690671Y-88307180D01*
X166059197Y-88154532D01*
X166390862Y-87932920D01*
X166672920Y-87650862D01*
X166894532Y-87319197D01*
X167047180Y-86950671D01*
X167125000Y-86559445D01*
X167125000Y-86160555D01*
X167047180Y-85769329D01*
X166894532Y-85400803D01*
X166672920Y-85069138D01*
X166547522Y-84943740D01*
X178855000Y-84943740D01*
X178855000Y-85236260D01*
X178912068Y-85523158D01*
X179024010Y-85793411D01*
X179186525Y-86036632D01*
X179393368Y-86243475D01*
X179636589Y-86405990D01*
X179906842Y-86517932D01*
X180193740Y-86575000D01*
X180486260Y-86575000D01*
X180773158Y-86517932D01*
X181043411Y-86405990D01*
X181286632Y-86243475D01*
X181418487Y-86111620D01*
X181440498Y-86184180D01*
X181499463Y-86294494D01*
X181578815Y-86391185D01*
X181675506Y-86470537D01*
X181785820Y-86529502D01*
X181905518Y-86565812D01*
X182030000Y-86578072D01*
X183730000Y-86578072D01*
X183854482Y-86565812D01*
X183974180Y-86529502D01*
X184084494Y-86470537D01*
X184181185Y-86391185D01*
X184260537Y-86294494D01*
X184319502Y-86184180D01*
X184355812Y-86064482D01*
X184368072Y-85940000D01*
X184368072Y-84240000D01*
X184355812Y-84115518D01*
X184319502Y-83995820D01*
X184260537Y-83885506D01*
X184181185Y-83788815D01*
X184084494Y-83709463D01*
X183974180Y-83650498D01*
X183854482Y-83614188D01*
X183730000Y-83601928D01*
X182030000Y-83601928D01*
X181905518Y-83614188D01*
X181785820Y-83650498D01*
X181675506Y-83709463D01*
X181578815Y-83788815D01*
X181499463Y-83885506D01*
X181440498Y-83995820D01*
X181418487Y-84068380D01*
X181286632Y-83936525D01*
X181043411Y-83774010D01*
X180773158Y-83662068D01*
X180486260Y-83605000D01*
X180193740Y-83605000D01*
X179906842Y-83662068D01*
X179636589Y-83774010D01*
X179393368Y-83936525D01*
X179186525Y-84143368D01*
X179024010Y-84386589D01*
X178912068Y-84656842D01*
X178855000Y-84943740D01*
X166547522Y-84943740D01*
X166390862Y-84787080D01*
X166059197Y-84565468D01*
X165690671Y-84412820D01*
X165299445Y-84335000D01*
X164900555Y-84335000D01*
X164509329Y-84412820D01*
X164140803Y-84565468D01*
X163809138Y-84787080D01*
X163527080Y-85069138D01*
X163305468Y-85400803D01*
X163152820Y-85769329D01*
X163075000Y-86160555D01*
X151888072Y-86160555D01*
X151888072Y-84970000D01*
X151875812Y-84845518D01*
X151839502Y-84725820D01*
X151780537Y-84615506D01*
X151701185Y-84518815D01*
X151604494Y-84439463D01*
X151494180Y-84380498D01*
X151374482Y-84344188D01*
X151250000Y-84331928D01*
X148470000Y-84331928D01*
X148345518Y-84344188D01*
X148225820Y-84380498D01*
X148115506Y-84439463D01*
X148018815Y-84518815D01*
X147939463Y-84615506D01*
X147880498Y-84725820D01*
X147844188Y-84845518D01*
X147831928Y-84970000D01*
X144170000Y-84970000D01*
X144170000Y-80919317D01*
X144172764Y-80920462D01*
X144406727Y-80967000D01*
X144645273Y-80967000D01*
X144879236Y-80920462D01*
X145099624Y-80829175D01*
X145297968Y-80696646D01*
X145466646Y-80527968D01*
X145599175Y-80329624D01*
X145690462Y-80109236D01*
X145737000Y-79875273D01*
X145737000Y-79636727D01*
X145694965Y-79425400D01*
X185514721Y-79425400D01*
X185664869Y-79440122D01*
G37*
%TD.AperFunction*%
%TD*%
M02*
