%TF.GenerationSoftware,KiCad,Pcbnew,(5.1.9)-1*%
%TF.CreationDate,2021-03-22T14:40:55+00:00*%
%TF.ProjectId,Controller,436f6e74-726f-46c6-9c65-722e6b696361,rev?*%
%TF.SameCoordinates,Original*%
%TF.FileFunction,Soldermask,Top*%
%TF.FilePolarity,Negative*%
%FSLAX46Y46*%
G04 Gerber Fmt 4.6, Leading zero omitted, Abs format (unit mm)*
G04 Created by KiCad (PCBNEW (5.1.9)-1) date 2021-03-22 14:40:55*
%MOMM*%
%LPD*%
G01*
G04 APERTURE LIST*
%ADD10C,1.448000*%
%ADD11C,4.400000*%
%ADD12O,1.700000X1.700000*%
%ADD13R,1.700000X1.700000*%
%ADD14R,1.800000X0.450000*%
%ADD15C,2.780000*%
%ADD16R,2.780000X2.780000*%
%ADD17C,1.524000*%
%ADD18R,1.524000X1.524000*%
G04 APERTURE END LIST*
D10*
%TO.C,REF\u002A\u002A*%
X194310000Y-62230000D03*
%TD*%
%TO.C,REF\u002A\u002A*%
X144780000Y-144780000D03*
%TD*%
D11*
%TO.C,H4*%
X173990000Y-142240000D03*
%TD*%
%TO.C,H3*%
X148590000Y-142240000D03*
%TD*%
%TO.C,H2*%
X173990000Y-82550000D03*
%TD*%
%TO.C,H1*%
X148590000Y-82550000D03*
%TD*%
D12*
%TO.C,J8*%
X182880000Y-69850000D03*
X187960000Y-69850000D03*
D13*
X190500000Y-69850000D03*
%TD*%
D12*
%TO.C,J7*%
X182880000Y-80010000D03*
X187960000Y-80010000D03*
D13*
X190500000Y-80010000D03*
%TD*%
D12*
%TO.C,J6*%
X182880000Y-91440000D03*
X187960000Y-91440000D03*
D13*
X190500000Y-91440000D03*
%TD*%
D12*
%TO.C,J5*%
X182880000Y-101600000D03*
X187960000Y-101600000D03*
D13*
X190500000Y-101600000D03*
%TD*%
D12*
%TO.C,J4*%
X182880000Y-111760000D03*
X187960000Y-111760000D03*
D13*
X190500000Y-111760000D03*
%TD*%
D12*
%TO.C,J3*%
X182880000Y-121920000D03*
X187960000Y-121920000D03*
D13*
X190500000Y-121920000D03*
%TD*%
D12*
%TO.C,J2*%
X182880000Y-132080000D03*
X187960000Y-132080000D03*
D13*
X190500000Y-132080000D03*
%TD*%
D12*
%TO.C,J1*%
X182880000Y-142240000D03*
X187960000Y-142240000D03*
D13*
X190500000Y-142240000D03*
%TD*%
%TO.C,C1*%
G36*
G01*
X167470000Y-77720000D02*
X167470000Y-77220000D01*
G75*
G02*
X167695000Y-76995000I225000J0D01*
G01*
X168145000Y-76995000D01*
G75*
G02*
X168370000Y-77220000I0J-225000D01*
G01*
X168370000Y-77720000D01*
G75*
G02*
X168145000Y-77945000I-225000J0D01*
G01*
X167695000Y-77945000D01*
G75*
G02*
X167470000Y-77720000I0J225000D01*
G01*
G37*
G36*
G01*
X165920000Y-77720000D02*
X165920000Y-77220000D01*
G75*
G02*
X166145000Y-76995000I225000J0D01*
G01*
X166595000Y-76995000D01*
G75*
G02*
X166820000Y-77220000I0J-225000D01*
G01*
X166820000Y-77720000D01*
G75*
G02*
X166595000Y-77945000I-225000J0D01*
G01*
X166145000Y-77945000D01*
G75*
G02*
X165920000Y-77720000I0J225000D01*
G01*
G37*
%TD*%
D14*
%TO.C,IC1*%
X166110000Y-79625000D03*
X166110000Y-80275000D03*
X166110000Y-80925000D03*
X166110000Y-81575000D03*
X166110000Y-82225000D03*
X166110000Y-82875000D03*
X166110000Y-83525000D03*
X166110000Y-84175000D03*
X166110000Y-84825000D03*
X166110000Y-85475000D03*
X159010000Y-85475000D03*
X159010000Y-84825000D03*
X159010000Y-84175000D03*
X159010000Y-83525000D03*
X159010000Y-82875000D03*
X159010000Y-82225000D03*
X159010000Y-81575000D03*
X159010000Y-80925000D03*
X159010000Y-80275000D03*
X159010000Y-79625000D03*
%TD*%
D15*
%TO.C,J9*%
X168910000Y-68580000D03*
X163830000Y-68580000D03*
X158750000Y-68580000D03*
D16*
X153670000Y-68580000D03*
%TD*%
D17*
%TO.C,U1*%
X173990000Y-92710000D03*
X173990000Y-95250000D03*
X173990000Y-97790000D03*
X173990000Y-100330000D03*
X173990000Y-102870000D03*
X173990000Y-105410000D03*
X173990000Y-107950000D03*
X173990000Y-110490000D03*
X173990000Y-113030000D03*
X173990000Y-115570000D03*
X173990000Y-118110000D03*
X173990000Y-120650000D03*
X173990000Y-123190000D03*
X173990000Y-125730000D03*
X173990000Y-128270000D03*
X148590000Y-128270000D03*
X148590000Y-125730000D03*
X148590000Y-123190000D03*
X148590000Y-120650000D03*
X148590000Y-118110000D03*
X148590000Y-115570000D03*
X148590000Y-113030000D03*
X148590000Y-110490000D03*
X148590000Y-107950000D03*
X148590000Y-105410000D03*
X148590000Y-102870000D03*
X148590000Y-100330000D03*
X148590000Y-97790000D03*
X148590000Y-95250000D03*
D18*
X148590000Y-92710000D03*
%TD*%
M02*
