%TF.GenerationSoftware,KiCad,Pcbnew,(5.1.9)-1*%
%TF.CreationDate,2021-05-16T11:37:59+01:00*%
%TF.ProjectId,Controller,436f6e74-726f-46c6-9c65-722e6b696361,rev?*%
%TF.SameCoordinates,Original*%
%TF.FileFunction,Legend,Top*%
%TF.FilePolarity,Positive*%
%FSLAX46Y46*%
G04 Gerber Fmt 4.6, Leading zero omitted, Abs format (unit mm)*
G04 Created by KiCad (PCBNEW (5.1.9)-1) date 2021-05-16 11:37:59*
%MOMM*%
%LPD*%
G01*
G04 APERTURE LIST*
%ADD10C,0.100000*%
%ADD11C,0.150000*%
%ADD12C,0.120000*%
%ADD13C,1.000000*%
%ADD14C,0.800000*%
%ADD15C,0.050000*%
G04 APERTURE END LIST*
D10*
X149426666Y-84136666D02*
X149026666Y-84136666D01*
X149226666Y-84136666D02*
X149226666Y-83436666D01*
X149160000Y-83536666D01*
X149093333Y-83603333D01*
X149026666Y-83636666D01*
X149693333Y-83503333D02*
X149726666Y-83470000D01*
X149793333Y-83436666D01*
X149960000Y-83436666D01*
X150026666Y-83470000D01*
X150060000Y-83503333D01*
X150093333Y-83570000D01*
X150093333Y-83636666D01*
X150060000Y-83736666D01*
X149660000Y-84136666D01*
X150093333Y-84136666D01*
X150293333Y-83436666D02*
X150526666Y-84136666D01*
X150760000Y-83436666D01*
X164966666Y-83436666D02*
X164633333Y-83436666D01*
X164600000Y-83770000D01*
X164633333Y-83736666D01*
X164700000Y-83703333D01*
X164866666Y-83703333D01*
X164933333Y-83736666D01*
X164966666Y-83770000D01*
X165000000Y-83836666D01*
X165000000Y-84003333D01*
X164966666Y-84070000D01*
X164933333Y-84103333D01*
X164866666Y-84136666D01*
X164700000Y-84136666D01*
X164633333Y-84103333D01*
X164600000Y-84070000D01*
X165200000Y-83436666D02*
X165433333Y-84136666D01*
X165666666Y-83436666D01*
D11*
X152860952Y-91527380D02*
X152860952Y-92241666D01*
X152813333Y-92384523D01*
X152718095Y-92479761D01*
X152575238Y-92527380D01*
X152480000Y-92527380D01*
X153813333Y-92527380D02*
X153337142Y-92527380D01*
X153337142Y-91527380D01*
X154718095Y-92432142D02*
X154670476Y-92479761D01*
X154527619Y-92527380D01*
X154432380Y-92527380D01*
X154289523Y-92479761D01*
X154194285Y-92384523D01*
X154146666Y-92289285D01*
X154099047Y-92098809D01*
X154099047Y-91955952D01*
X154146666Y-91765476D01*
X154194285Y-91670238D01*
X154289523Y-91575000D01*
X154432380Y-91527380D01*
X154527619Y-91527380D01*
X154670476Y-91575000D01*
X154718095Y-91622619D01*
X155432380Y-91527380D02*
X155432380Y-92241666D01*
X155384761Y-92384523D01*
X155289523Y-92479761D01*
X155146666Y-92527380D01*
X155051428Y-92527380D01*
X156384761Y-92527380D02*
X155908571Y-92527380D01*
X155908571Y-91527380D01*
X157289523Y-92432142D02*
X157241904Y-92479761D01*
X157099047Y-92527380D01*
X157003809Y-92527380D01*
X156860952Y-92479761D01*
X156765714Y-92384523D01*
X156718095Y-92289285D01*
X156670476Y-92098809D01*
X156670476Y-91955952D01*
X156718095Y-91765476D01*
X156765714Y-91670238D01*
X156860952Y-91575000D01*
X157003809Y-91527380D01*
X157099047Y-91527380D01*
X157241904Y-91575000D01*
X157289523Y-91622619D01*
X158003809Y-91527380D02*
X158003809Y-92241666D01*
X157956190Y-92384523D01*
X157860952Y-92479761D01*
X157718095Y-92527380D01*
X157622857Y-92527380D01*
X158956190Y-92527380D02*
X158480000Y-92527380D01*
X158480000Y-91527380D01*
X159860952Y-92432142D02*
X159813333Y-92479761D01*
X159670476Y-92527380D01*
X159575238Y-92527380D01*
X159432380Y-92479761D01*
X159337142Y-92384523D01*
X159289523Y-92289285D01*
X159241904Y-92098809D01*
X159241904Y-91955952D01*
X159289523Y-91765476D01*
X159337142Y-91670238D01*
X159432380Y-91575000D01*
X159575238Y-91527380D01*
X159670476Y-91527380D01*
X159813333Y-91575000D01*
X159860952Y-91622619D01*
X160575238Y-91527380D02*
X160575238Y-92241666D01*
X160527619Y-92384523D01*
X160432380Y-92479761D01*
X160289523Y-92527380D01*
X160194285Y-92527380D01*
X161527619Y-92527380D02*
X161051428Y-92527380D01*
X161051428Y-91527380D01*
X162432380Y-92432142D02*
X162384761Y-92479761D01*
X162241904Y-92527380D01*
X162146666Y-92527380D01*
X162003809Y-92479761D01*
X161908571Y-92384523D01*
X161860952Y-92289285D01*
X161813333Y-92098809D01*
X161813333Y-91955952D01*
X161860952Y-91765476D01*
X161908571Y-91670238D01*
X162003809Y-91575000D01*
X162146666Y-91527380D01*
X162241904Y-91527380D01*
X162384761Y-91575000D01*
X162432380Y-91622619D01*
D12*
%TO.C,J5*%
X184210000Y-115510000D02*
X184210000Y-116840000D01*
X182880000Y-115510000D02*
X184210000Y-115510000D01*
X181610000Y-115510000D02*
X181610000Y-118170000D01*
X181610000Y-118170000D02*
X173930000Y-118170000D01*
X181610000Y-115510000D02*
X173930000Y-115510000D01*
X173930000Y-115510000D02*
X173930000Y-118170000D01*
%TO.C,C4*%
X147446420Y-135638000D02*
X147727580Y-135638000D01*
X147446420Y-134618000D02*
X147727580Y-134618000D01*
%TO.C,C3*%
X147727580Y-136142000D02*
X147446420Y-136142000D01*
X147727580Y-137162000D02*
X147446420Y-137162000D01*
D13*
%TO.C,U1*%
X165707065Y-143185000D02*
G75*
G03*
X165707065Y-143185000I-300000J0D01*
G01*
X150467065Y-143185000D02*
G75*
G03*
X150467065Y-143185000I-300000J0D01*
G01*
D12*
X151437065Y-141280000D02*
X151437065Y-145090000D01*
X148897065Y-141280000D02*
X151437065Y-141280000D01*
X148897065Y-145090000D02*
X148897065Y-141280000D01*
X151437065Y-145090000D02*
X148897065Y-145090000D01*
X164137065Y-145090000D02*
X164137065Y-141280000D01*
X166677065Y-145090000D02*
X164137065Y-145090000D01*
X166677065Y-141280000D02*
X166677065Y-145090000D01*
X164137065Y-141280000D02*
X166677065Y-141280000D01*
D14*
X153107065Y-117150000D02*
G75*
G03*
X153107065Y-117150000I-400000J0D01*
G01*
D12*
X150287065Y-119290000D02*
X150287065Y-101290000D01*
X165287065Y-119290000D02*
X150287065Y-119290000D01*
X165287065Y-101290000D02*
X165287065Y-119290000D01*
X150287065Y-101290000D02*
X165287065Y-101290000D01*
X162867065Y-96322000D02*
X162867065Y-99878000D01*
X165407065Y-96322000D02*
X165407065Y-99878000D01*
X160327065Y-96322000D02*
X165407065Y-96322000D01*
X160327065Y-98354000D02*
X160327065Y-96322000D01*
X157787065Y-98354000D02*
X160327065Y-98354000D01*
X157787065Y-96322000D02*
X157787065Y-98354000D01*
X155247065Y-96322000D02*
X157787065Y-96322000D01*
X155247065Y-98354000D02*
X155247065Y-96322000D01*
X152707065Y-98354000D02*
X155247065Y-98354000D01*
X152707065Y-96322000D02*
X152707065Y-98354000D01*
X150167065Y-96322000D02*
X152707065Y-96322000D01*
X150167065Y-99878000D02*
X150167065Y-96322000D01*
X148897065Y-100640000D02*
X148897065Y-95560000D01*
X166677065Y-100640000D02*
X148897065Y-100640000D01*
X166677065Y-95560000D02*
X166677065Y-100640000D01*
X148897065Y-95560000D02*
X166677065Y-95560000D01*
X153787065Y-139790000D02*
X161787065Y-139790000D01*
X161787065Y-139790000D02*
X161787065Y-145790000D01*
X153787065Y-139790000D02*
X153787065Y-145790000D01*
X170987065Y-143790000D02*
G75*
G03*
X170987065Y-143790000I-1500000J0D01*
G01*
X147587065Y-143790000D02*
G75*
G03*
X147587065Y-143790000I-1500000J0D01*
G01*
X145787065Y-94290000D02*
X169787065Y-94290000D01*
X145787065Y-145790000D02*
X169787065Y-145790000D01*
X143787065Y-96290000D02*
X143787065Y-143790000D01*
X171787065Y-143790000D02*
X171787065Y-96290000D01*
X170987065Y-96290000D02*
G75*
G03*
X170987065Y-96290000I-1500000J0D01*
G01*
X147587065Y-96290000D02*
G75*
G03*
X147587065Y-96290000I-1500000J0D01*
G01*
X171787065Y-143790000D02*
G75*
G02*
X169787065Y-145790000I-2000000J0D01*
G01*
X145787065Y-145790000D02*
G75*
G02*
X143787065Y-143790000I0J2000000D01*
G01*
X143787065Y-96290000D02*
G75*
G02*
X145787065Y-94290000I2000000J0D01*
G01*
X169787065Y-94290000D02*
G75*
G02*
X171787065Y-96290000I0J-2000000D01*
G01*
%TO.C,J10*%
X173930000Y-83760000D02*
X173930000Y-86420000D01*
X181610000Y-83760000D02*
X173930000Y-83760000D01*
X181610000Y-86420000D02*
X173930000Y-86420000D01*
X181610000Y-83760000D02*
X181610000Y-86420000D01*
X182880000Y-83760000D02*
X184210000Y-83760000D01*
X184210000Y-83760000D02*
X184210000Y-85090000D01*
%TO.C,J9*%
X173930000Y-90110000D02*
X173930000Y-92770000D01*
X181610000Y-90110000D02*
X173930000Y-90110000D01*
X181610000Y-92770000D02*
X173930000Y-92770000D01*
X181610000Y-90110000D02*
X181610000Y-92770000D01*
X182880000Y-90110000D02*
X184210000Y-90110000D01*
X184210000Y-90110000D02*
X184210000Y-91440000D01*
%TO.C,IC2*%
X157480000Y-129584000D02*
X153880000Y-129584000D01*
X157480000Y-129584000D02*
X159680000Y-129584000D01*
X157480000Y-136354000D02*
X155280000Y-136354000D01*
X157480000Y-136354000D02*
X159680000Y-136354000D01*
%TO.C,IC1*%
X157480000Y-114090000D02*
X153880000Y-114090000D01*
X157480000Y-114090000D02*
X159680000Y-114090000D01*
X157480000Y-120860000D02*
X155280000Y-120860000D01*
X157480000Y-120860000D02*
X159680000Y-120860000D01*
%TO.C,C2*%
X161924420Y-129669000D02*
X162205580Y-129669000D01*
X161924420Y-128649000D02*
X162205580Y-128649000D01*
%TO.C,C1*%
X161924420Y-114175000D02*
X162205580Y-114175000D01*
X161924420Y-113155000D02*
X162205580Y-113155000D01*
%TO.C,J11*%
X152280000Y-80690000D02*
X153970000Y-80690000D01*
X153970000Y-80690000D02*
X153970000Y-82080000D01*
X152280000Y-82080000D02*
X152280000Y-80690000D01*
X157360000Y-82080000D02*
X157360000Y-80690000D01*
X159050000Y-80690000D02*
X159050000Y-82080000D01*
X157360000Y-80690000D02*
X159050000Y-80690000D01*
X162460000Y-80690000D02*
X164150000Y-80690000D01*
X162460000Y-82080000D02*
X162460000Y-80690000D01*
X164150000Y-80690000D02*
X164150000Y-82080000D01*
X147390000Y-82080000D02*
X147390000Y-80690000D01*
X149080000Y-80690000D02*
X149080000Y-82080000D01*
X147390000Y-80690000D02*
X149080000Y-80690000D01*
X167560000Y-80690000D02*
X169250000Y-80690000D01*
X167560000Y-82080000D02*
X167560000Y-80690000D01*
X144630000Y-84500000D02*
X145710000Y-84500000D01*
X144630000Y-88220000D02*
X144630000Y-84500000D01*
X145710000Y-88220000D02*
X144630000Y-88220000D01*
X170330000Y-84500000D02*
X169250000Y-84500000D01*
X170330000Y-88220000D02*
X170330000Y-84500000D01*
X169250000Y-88220000D02*
X170330000Y-88220000D01*
X145710000Y-83220000D02*
X145710000Y-89500000D01*
X168110000Y-82080000D02*
X146850000Y-82080000D01*
X169250000Y-89500000D02*
X169250000Y-80690000D01*
X146850000Y-90640000D02*
X168110000Y-90640000D01*
X146910000Y-87750000D02*
X146910000Y-83140000D01*
X148740000Y-89580000D02*
X146910000Y-87750000D01*
X166220000Y-89580000D02*
X148740000Y-89580000D01*
X168050000Y-87750000D02*
X166220000Y-89580000D01*
X168050000Y-83140000D02*
X168050000Y-87750000D01*
X146910000Y-83140000D02*
X168050000Y-83140000D01*
X146850000Y-90640000D02*
G75*
G02*
X145710000Y-89500000I0J1140000D01*
G01*
X145710000Y-83220000D02*
G75*
G02*
X146850000Y-82080000I1140000J0D01*
G01*
X169250000Y-89500000D02*
G75*
G02*
X168110000Y-90640000I-1140000J0D01*
G01*
X168110000Y-82080000D02*
G75*
G02*
X169250000Y-83220000I0J-1140000D01*
G01*
%TO.C,J6*%
X184210000Y-109160000D02*
X184210000Y-110490000D01*
X182880000Y-109160000D02*
X184210000Y-109160000D01*
X181610000Y-109160000D02*
X181610000Y-111820000D01*
X181610000Y-111820000D02*
X173930000Y-111820000D01*
X181610000Y-109160000D02*
X173930000Y-109160000D01*
X173930000Y-109160000D02*
X173930000Y-111820000D01*
%TO.C,J4*%
X184210000Y-121860000D02*
X184210000Y-123190000D01*
X182880000Y-121860000D02*
X184210000Y-121860000D01*
X181610000Y-121860000D02*
X181610000Y-124520000D01*
X181610000Y-124520000D02*
X173930000Y-124520000D01*
X181610000Y-121860000D02*
X173930000Y-121860000D01*
X173930000Y-121860000D02*
X173930000Y-124520000D01*
%TO.C,J3*%
X184210000Y-128210000D02*
X184210000Y-129540000D01*
X182880000Y-128210000D02*
X184210000Y-128210000D01*
X181610000Y-128210000D02*
X181610000Y-130870000D01*
X181610000Y-130870000D02*
X173930000Y-130870000D01*
X181610000Y-128210000D02*
X173930000Y-128210000D01*
X173930000Y-128210000D02*
X173930000Y-130870000D01*
%TO.C,J8*%
X184210000Y-96460000D02*
X184210000Y-97790000D01*
X182880000Y-96460000D02*
X184210000Y-96460000D01*
X181610000Y-96460000D02*
X181610000Y-99120000D01*
X181610000Y-99120000D02*
X173930000Y-99120000D01*
X181610000Y-96460000D02*
X173930000Y-96460000D01*
X173930000Y-96460000D02*
X173930000Y-99120000D01*
%TO.C,J7*%
X184210000Y-102810000D02*
X184210000Y-104140000D01*
X182880000Y-102810000D02*
X184210000Y-102810000D01*
X181610000Y-102810000D02*
X181610000Y-105470000D01*
X181610000Y-105470000D02*
X173930000Y-105470000D01*
X181610000Y-102810000D02*
X173930000Y-102810000D01*
X173930000Y-102810000D02*
X173930000Y-105470000D01*
%TO.C,J2*%
X184210000Y-134560000D02*
X184210000Y-135890000D01*
X182880000Y-134560000D02*
X184210000Y-134560000D01*
X181610000Y-134560000D02*
X181610000Y-137220000D01*
X181610000Y-137220000D02*
X173930000Y-137220000D01*
X181610000Y-134560000D02*
X173930000Y-134560000D01*
X173930000Y-134560000D02*
X173930000Y-137220000D01*
%TO.C,J1*%
X184210000Y-140910000D02*
X184210000Y-142240000D01*
X182880000Y-140910000D02*
X184210000Y-140910000D01*
X181610000Y-140910000D02*
X181610000Y-143570000D01*
X181610000Y-143570000D02*
X173930000Y-143570000D01*
X181610000Y-140910000D02*
X173930000Y-140910000D01*
X173930000Y-140910000D02*
X173930000Y-143570000D01*
%TO.C,J5*%
D11*
X177252380Y-117173333D02*
X177966666Y-117173333D01*
X178109523Y-117220952D01*
X178204761Y-117316190D01*
X178252380Y-117459047D01*
X178252380Y-117554285D01*
X177252380Y-116220952D02*
X177252380Y-116697142D01*
X177728571Y-116744761D01*
X177680952Y-116697142D01*
X177633333Y-116601904D01*
X177633333Y-116363809D01*
X177680952Y-116268571D01*
X177728571Y-116220952D01*
X177823809Y-116173333D01*
X178061904Y-116173333D01*
X178157142Y-116220952D01*
X178204761Y-116268571D01*
X178252380Y-116363809D01*
X178252380Y-116601904D01*
X178204761Y-116697142D01*
X178157142Y-116744761D01*
%TO.C,C4*%
X147420333Y-134055142D02*
X147372714Y-134102761D01*
X147229857Y-134150380D01*
X147134619Y-134150380D01*
X146991761Y-134102761D01*
X146896523Y-134007523D01*
X146848904Y-133912285D01*
X146801285Y-133721809D01*
X146801285Y-133578952D01*
X146848904Y-133388476D01*
X146896523Y-133293238D01*
X146991761Y-133198000D01*
X147134619Y-133150380D01*
X147229857Y-133150380D01*
X147372714Y-133198000D01*
X147420333Y-133245619D01*
X148277476Y-133483714D02*
X148277476Y-134150380D01*
X148039380Y-133102761D02*
X147801285Y-133817047D01*
X148420333Y-133817047D01*
%TO.C,C3*%
X147420333Y-138439142D02*
X147372714Y-138486761D01*
X147229857Y-138534380D01*
X147134619Y-138534380D01*
X146991761Y-138486761D01*
X146896523Y-138391523D01*
X146848904Y-138296285D01*
X146801285Y-138105809D01*
X146801285Y-137962952D01*
X146848904Y-137772476D01*
X146896523Y-137677238D01*
X146991761Y-137582000D01*
X147134619Y-137534380D01*
X147229857Y-137534380D01*
X147372714Y-137582000D01*
X147420333Y-137629619D01*
X147753666Y-137534380D02*
X148372714Y-137534380D01*
X148039380Y-137915333D01*
X148182238Y-137915333D01*
X148277476Y-137962952D01*
X148325095Y-138010571D01*
X148372714Y-138105809D01*
X148372714Y-138343904D01*
X148325095Y-138439142D01*
X148277476Y-138486761D01*
X148182238Y-138534380D01*
X147896523Y-138534380D01*
X147801285Y-138486761D01*
X147753666Y-138439142D01*
%TO.C,U1*%
X157025160Y-110252380D02*
X157025160Y-111061904D01*
X157072779Y-111157142D01*
X157120398Y-111204761D01*
X157215636Y-111252380D01*
X157406112Y-111252380D01*
X157501350Y-111204761D01*
X157548969Y-111157142D01*
X157596588Y-111061904D01*
X157596588Y-110252380D01*
X158596588Y-111252380D02*
X158025160Y-111252380D01*
X158310874Y-111252380D02*
X158310874Y-110252380D01*
X158215636Y-110395238D01*
X158120398Y-110490476D01*
X158025160Y-110538095D01*
X147905160Y-139938571D02*
X148238493Y-139938571D01*
X148381350Y-140462380D02*
X147905160Y-140462380D01*
X147905160Y-139462380D01*
X148381350Y-139462380D01*
X148809922Y-139795714D02*
X148809922Y-140462380D01*
X148809922Y-139890952D02*
X148857541Y-139843333D01*
X148952779Y-139795714D01*
X149095636Y-139795714D01*
X149190874Y-139843333D01*
X149238493Y-139938571D01*
X149238493Y-140462380D01*
X150143255Y-140462380D02*
X150143255Y-139938571D01*
X150095636Y-139843333D01*
X150000398Y-139795714D01*
X149809922Y-139795714D01*
X149714684Y-139843333D01*
X150143255Y-140414761D02*
X150048017Y-140462380D01*
X149809922Y-140462380D01*
X149714684Y-140414761D01*
X149667065Y-140319523D01*
X149667065Y-140224285D01*
X149714684Y-140129047D01*
X149809922Y-140081428D01*
X150048017Y-140081428D01*
X150143255Y-140033809D01*
X150619445Y-140462380D02*
X150619445Y-139462380D01*
X150619445Y-139843333D02*
X150714684Y-139795714D01*
X150905160Y-139795714D01*
X151000398Y-139843333D01*
X151048017Y-139890952D01*
X151095636Y-139986190D01*
X151095636Y-140271904D01*
X151048017Y-140367142D01*
X151000398Y-140414761D01*
X150905160Y-140462380D01*
X150714684Y-140462380D01*
X150619445Y-140414761D01*
X151667065Y-140462380D02*
X151571826Y-140414761D01*
X151524207Y-140319523D01*
X151524207Y-139462380D01*
X152428969Y-140414761D02*
X152333731Y-140462380D01*
X152143255Y-140462380D01*
X152048017Y-140414761D01*
X152000398Y-140319523D01*
X152000398Y-139938571D01*
X152048017Y-139843333D01*
X152143255Y-139795714D01*
X152333731Y-139795714D01*
X152428969Y-139843333D01*
X152476588Y-139938571D01*
X152476588Y-140033809D01*
X152000398Y-140129047D01*
X164288017Y-139938571D02*
X164430874Y-139986190D01*
X164478493Y-140033809D01*
X164526112Y-140129047D01*
X164526112Y-140271904D01*
X164478493Y-140367142D01*
X164430874Y-140414761D01*
X164335636Y-140462380D01*
X163954684Y-140462380D01*
X163954684Y-139462380D01*
X164288017Y-139462380D01*
X164383255Y-139510000D01*
X164430874Y-139557619D01*
X164478493Y-139652857D01*
X164478493Y-139748095D01*
X164430874Y-139843333D01*
X164383255Y-139890952D01*
X164288017Y-139938571D01*
X163954684Y-139938571D01*
X165097541Y-140462380D02*
X165002303Y-140414761D01*
X164954684Y-140367142D01*
X164907065Y-140271904D01*
X164907065Y-139986190D01*
X164954684Y-139890952D01*
X165002303Y-139843333D01*
X165097541Y-139795714D01*
X165240398Y-139795714D01*
X165335636Y-139843333D01*
X165383255Y-139890952D01*
X165430874Y-139986190D01*
X165430874Y-140271904D01*
X165383255Y-140367142D01*
X165335636Y-140414761D01*
X165240398Y-140462380D01*
X165097541Y-140462380D01*
X166002303Y-140462380D02*
X165907065Y-140414761D01*
X165859445Y-140367142D01*
X165811826Y-140271904D01*
X165811826Y-139986190D01*
X165859445Y-139890952D01*
X165907065Y-139843333D01*
X166002303Y-139795714D01*
X166145160Y-139795714D01*
X166240398Y-139843333D01*
X166288017Y-139890952D01*
X166335636Y-139986190D01*
X166335636Y-140271904D01*
X166288017Y-140367142D01*
X166240398Y-140414761D01*
X166145160Y-140462380D01*
X166002303Y-140462380D01*
X166621350Y-139795714D02*
X167002303Y-139795714D01*
X166764207Y-139462380D02*
X166764207Y-140319523D01*
X166811826Y-140414761D01*
X166907065Y-140462380D01*
X167002303Y-140462380D01*
X156525160Y-143272380D02*
X156525160Y-144081904D01*
X156572779Y-144177142D01*
X156620398Y-144224761D01*
X156715636Y-144272380D01*
X156906112Y-144272380D01*
X157001350Y-144224761D01*
X157048969Y-144177142D01*
X157096588Y-144081904D01*
X157096588Y-143272380D01*
X157525160Y-144224761D02*
X157668017Y-144272380D01*
X157906112Y-144272380D01*
X158001350Y-144224761D01*
X158048969Y-144177142D01*
X158096588Y-144081904D01*
X158096588Y-143986666D01*
X158048969Y-143891428D01*
X158001350Y-143843809D01*
X157906112Y-143796190D01*
X157715636Y-143748571D01*
X157620398Y-143700952D01*
X157572779Y-143653333D01*
X157525160Y-143558095D01*
X157525160Y-143462857D01*
X157572779Y-143367619D01*
X157620398Y-143320000D01*
X157715636Y-143272380D01*
X157953731Y-143272380D01*
X158096588Y-143320000D01*
X158858493Y-143748571D02*
X159001350Y-143796190D01*
X159048969Y-143843809D01*
X159096588Y-143939047D01*
X159096588Y-144081904D01*
X159048969Y-144177142D01*
X159001350Y-144224761D01*
X158906112Y-144272380D01*
X158525160Y-144272380D01*
X158525160Y-143272380D01*
X158858493Y-143272380D01*
X158953731Y-143320000D01*
X159001350Y-143367619D01*
X159048969Y-143462857D01*
X159048969Y-143558095D01*
X159001350Y-143653333D01*
X158953731Y-143700952D01*
X158858493Y-143748571D01*
X158525160Y-143748571D01*
%TO.C,J10*%
X177252380Y-85899523D02*
X177966666Y-85899523D01*
X178109523Y-85947142D01*
X178204761Y-86042380D01*
X178252380Y-86185238D01*
X178252380Y-86280476D01*
X178252380Y-84899523D02*
X178252380Y-85470952D01*
X178252380Y-85185238D02*
X177252380Y-85185238D01*
X177395238Y-85280476D01*
X177490476Y-85375714D01*
X177538095Y-85470952D01*
X177252380Y-84280476D02*
X177252380Y-84185238D01*
X177300000Y-84090000D01*
X177347619Y-84042380D01*
X177442857Y-83994761D01*
X177633333Y-83947142D01*
X177871428Y-83947142D01*
X178061904Y-83994761D01*
X178157142Y-84042380D01*
X178204761Y-84090000D01*
X178252380Y-84185238D01*
X178252380Y-84280476D01*
X178204761Y-84375714D01*
X178157142Y-84423333D01*
X178061904Y-84470952D01*
X177871428Y-84518571D01*
X177633333Y-84518571D01*
X177442857Y-84470952D01*
X177347619Y-84423333D01*
X177300000Y-84375714D01*
X177252380Y-84280476D01*
%TO.C,J9*%
X177252380Y-91773333D02*
X177966666Y-91773333D01*
X178109523Y-91820952D01*
X178204761Y-91916190D01*
X178252380Y-92059047D01*
X178252380Y-92154285D01*
X178252380Y-91249523D02*
X178252380Y-91059047D01*
X178204761Y-90963809D01*
X178157142Y-90916190D01*
X178014285Y-90820952D01*
X177823809Y-90773333D01*
X177442857Y-90773333D01*
X177347619Y-90820952D01*
X177300000Y-90868571D01*
X177252380Y-90963809D01*
X177252380Y-91154285D01*
X177300000Y-91249523D01*
X177347619Y-91297142D01*
X177442857Y-91344761D01*
X177680952Y-91344761D01*
X177776190Y-91297142D01*
X177823809Y-91249523D01*
X177871428Y-91154285D01*
X177871428Y-90963809D01*
X177823809Y-90868571D01*
X177776190Y-90820952D01*
X177680952Y-90773333D01*
%TO.C,IC2*%
X156503809Y-129221380D02*
X156503809Y-128221380D01*
X157551428Y-129126142D02*
X157503809Y-129173761D01*
X157360952Y-129221380D01*
X157265714Y-129221380D01*
X157122857Y-129173761D01*
X157027619Y-129078523D01*
X156980000Y-128983285D01*
X156932380Y-128792809D01*
X156932380Y-128649952D01*
X156980000Y-128459476D01*
X157027619Y-128364238D01*
X157122857Y-128269000D01*
X157265714Y-128221380D01*
X157360952Y-128221380D01*
X157503809Y-128269000D01*
X157551428Y-128316619D01*
X157932380Y-128316619D02*
X157980000Y-128269000D01*
X158075238Y-128221380D01*
X158313333Y-128221380D01*
X158408571Y-128269000D01*
X158456190Y-128316619D01*
X158503809Y-128411857D01*
X158503809Y-128507095D01*
X158456190Y-128649952D01*
X157884761Y-129221380D01*
X158503809Y-129221380D01*
%TO.C,IC1*%
X156503809Y-113727380D02*
X156503809Y-112727380D01*
X157551428Y-113632142D02*
X157503809Y-113679761D01*
X157360952Y-113727380D01*
X157265714Y-113727380D01*
X157122857Y-113679761D01*
X157027619Y-113584523D01*
X156980000Y-113489285D01*
X156932380Y-113298809D01*
X156932380Y-113155952D01*
X156980000Y-112965476D01*
X157027619Y-112870238D01*
X157122857Y-112775000D01*
X157265714Y-112727380D01*
X157360952Y-112727380D01*
X157503809Y-112775000D01*
X157551428Y-112822619D01*
X158503809Y-113727380D02*
X157932380Y-113727380D01*
X158218095Y-113727380D02*
X158218095Y-112727380D01*
X158122857Y-112870238D01*
X158027619Y-112965476D01*
X157932380Y-113013095D01*
%TO.C,C2*%
X161898333Y-128086142D02*
X161850714Y-128133761D01*
X161707857Y-128181380D01*
X161612619Y-128181380D01*
X161469761Y-128133761D01*
X161374523Y-128038523D01*
X161326904Y-127943285D01*
X161279285Y-127752809D01*
X161279285Y-127609952D01*
X161326904Y-127419476D01*
X161374523Y-127324238D01*
X161469761Y-127229000D01*
X161612619Y-127181380D01*
X161707857Y-127181380D01*
X161850714Y-127229000D01*
X161898333Y-127276619D01*
X162279285Y-127276619D02*
X162326904Y-127229000D01*
X162422142Y-127181380D01*
X162660238Y-127181380D01*
X162755476Y-127229000D01*
X162803095Y-127276619D01*
X162850714Y-127371857D01*
X162850714Y-127467095D01*
X162803095Y-127609952D01*
X162231666Y-128181380D01*
X162850714Y-128181380D01*
%TO.C,C1*%
X161898333Y-112592142D02*
X161850714Y-112639761D01*
X161707857Y-112687380D01*
X161612619Y-112687380D01*
X161469761Y-112639761D01*
X161374523Y-112544523D01*
X161326904Y-112449285D01*
X161279285Y-112258809D01*
X161279285Y-112115952D01*
X161326904Y-111925476D01*
X161374523Y-111830238D01*
X161469761Y-111735000D01*
X161612619Y-111687380D01*
X161707857Y-111687380D01*
X161850714Y-111735000D01*
X161898333Y-111782619D01*
X162850714Y-112687380D02*
X162279285Y-112687380D01*
X162565000Y-112687380D02*
X162565000Y-111687380D01*
X162469761Y-111830238D01*
X162374523Y-111925476D01*
X162279285Y-111973095D01*
D15*
X163564190Y-112748190D02*
X163278476Y-112748190D01*
X163421333Y-112748190D02*
X163421333Y-112248190D01*
X163373714Y-112319619D01*
X163326095Y-112367238D01*
X163278476Y-112391047D01*
X163873714Y-112248190D02*
X163921333Y-112248190D01*
X163968952Y-112272000D01*
X163992761Y-112295809D01*
X164016571Y-112343428D01*
X164040380Y-112438666D01*
X164040380Y-112557714D01*
X164016571Y-112652952D01*
X163992761Y-112700571D01*
X163968952Y-112724380D01*
X163921333Y-112748190D01*
X163873714Y-112748190D01*
X163826095Y-112724380D01*
X163802285Y-112700571D01*
X163778476Y-112652952D01*
X163754666Y-112557714D01*
X163754666Y-112438666D01*
X163778476Y-112343428D01*
X163802285Y-112295809D01*
X163826095Y-112272000D01*
X163873714Y-112248190D01*
X164349904Y-112248190D02*
X164397523Y-112248190D01*
X164445142Y-112272000D01*
X164468952Y-112295809D01*
X164492761Y-112343428D01*
X164516571Y-112438666D01*
X164516571Y-112557714D01*
X164492761Y-112652952D01*
X164468952Y-112700571D01*
X164445142Y-112724380D01*
X164397523Y-112748190D01*
X164349904Y-112748190D01*
X164302285Y-112724380D01*
X164278476Y-112700571D01*
X164254666Y-112652952D01*
X164230857Y-112557714D01*
X164230857Y-112438666D01*
X164254666Y-112343428D01*
X164278476Y-112295809D01*
X164302285Y-112272000D01*
X164349904Y-112248190D01*
X164730857Y-112414857D02*
X164730857Y-112748190D01*
X164730857Y-112462476D02*
X164754666Y-112438666D01*
X164802285Y-112414857D01*
X164873714Y-112414857D01*
X164921333Y-112438666D01*
X164945142Y-112486285D01*
X164945142Y-112748190D01*
X165349904Y-112486285D02*
X165183238Y-112486285D01*
X165183238Y-112748190D02*
X165183238Y-112248190D01*
X165421333Y-112248190D01*
%TO.C,J6*%
D11*
X177252380Y-110823333D02*
X177966666Y-110823333D01*
X178109523Y-110870952D01*
X178204761Y-110966190D01*
X178252380Y-111109047D01*
X178252380Y-111204285D01*
X177252380Y-109918571D02*
X177252380Y-110109047D01*
X177300000Y-110204285D01*
X177347619Y-110251904D01*
X177490476Y-110347142D01*
X177680952Y-110394761D01*
X178061904Y-110394761D01*
X178157142Y-110347142D01*
X178204761Y-110299523D01*
X178252380Y-110204285D01*
X178252380Y-110013809D01*
X178204761Y-109918571D01*
X178157142Y-109870952D01*
X178061904Y-109823333D01*
X177823809Y-109823333D01*
X177728571Y-109870952D01*
X177680952Y-109918571D01*
X177633333Y-110013809D01*
X177633333Y-110204285D01*
X177680952Y-110299523D01*
X177728571Y-110347142D01*
X177823809Y-110394761D01*
%TO.C,J4*%
X177252380Y-123523333D02*
X177966666Y-123523333D01*
X178109523Y-123570952D01*
X178204761Y-123666190D01*
X178252380Y-123809047D01*
X178252380Y-123904285D01*
X177585714Y-122618571D02*
X178252380Y-122618571D01*
X177204761Y-122856666D02*
X177919047Y-123094761D01*
X177919047Y-122475714D01*
%TO.C,J3*%
X177252380Y-129873333D02*
X177966666Y-129873333D01*
X178109523Y-129920952D01*
X178204761Y-130016190D01*
X178252380Y-130159047D01*
X178252380Y-130254285D01*
X177252380Y-129492380D02*
X177252380Y-128873333D01*
X177633333Y-129206666D01*
X177633333Y-129063809D01*
X177680952Y-128968571D01*
X177728571Y-128920952D01*
X177823809Y-128873333D01*
X178061904Y-128873333D01*
X178157142Y-128920952D01*
X178204761Y-128968571D01*
X178252380Y-129063809D01*
X178252380Y-129349523D01*
X178204761Y-129444761D01*
X178157142Y-129492380D01*
%TO.C,J8*%
X177252380Y-98123333D02*
X177966666Y-98123333D01*
X178109523Y-98170952D01*
X178204761Y-98266190D01*
X178252380Y-98409047D01*
X178252380Y-98504285D01*
X177680952Y-97504285D02*
X177633333Y-97599523D01*
X177585714Y-97647142D01*
X177490476Y-97694761D01*
X177442857Y-97694761D01*
X177347619Y-97647142D01*
X177300000Y-97599523D01*
X177252380Y-97504285D01*
X177252380Y-97313809D01*
X177300000Y-97218571D01*
X177347619Y-97170952D01*
X177442857Y-97123333D01*
X177490476Y-97123333D01*
X177585714Y-97170952D01*
X177633333Y-97218571D01*
X177680952Y-97313809D01*
X177680952Y-97504285D01*
X177728571Y-97599523D01*
X177776190Y-97647142D01*
X177871428Y-97694761D01*
X178061904Y-97694761D01*
X178157142Y-97647142D01*
X178204761Y-97599523D01*
X178252380Y-97504285D01*
X178252380Y-97313809D01*
X178204761Y-97218571D01*
X178157142Y-97170952D01*
X178061904Y-97123333D01*
X177871428Y-97123333D01*
X177776190Y-97170952D01*
X177728571Y-97218571D01*
X177680952Y-97313809D01*
%TO.C,J7*%
X177252380Y-104473333D02*
X177966666Y-104473333D01*
X178109523Y-104520952D01*
X178204761Y-104616190D01*
X178252380Y-104759047D01*
X178252380Y-104854285D01*
X177252380Y-104092380D02*
X177252380Y-103425714D01*
X178252380Y-103854285D01*
%TO.C,J2*%
X177252380Y-136223333D02*
X177966666Y-136223333D01*
X178109523Y-136270952D01*
X178204761Y-136366190D01*
X178252380Y-136509047D01*
X178252380Y-136604285D01*
X177347619Y-135794761D02*
X177300000Y-135747142D01*
X177252380Y-135651904D01*
X177252380Y-135413809D01*
X177300000Y-135318571D01*
X177347619Y-135270952D01*
X177442857Y-135223333D01*
X177538095Y-135223333D01*
X177680952Y-135270952D01*
X178252380Y-135842380D01*
X178252380Y-135223333D01*
%TO.C,J1*%
X177252380Y-142573333D02*
X177966666Y-142573333D01*
X178109523Y-142620952D01*
X178204761Y-142716190D01*
X178252380Y-142859047D01*
X178252380Y-142954285D01*
X178252380Y-141573333D02*
X178252380Y-142144761D01*
X178252380Y-141859047D02*
X177252380Y-141859047D01*
X177395238Y-141954285D01*
X177490476Y-142049523D01*
X177538095Y-142144761D01*
%TD*%
M02*
